M48
; #@! TF.GenerationSoftware,LibrePCB,LibrePCB,2.1.1
; #@! TF.CreationDate,2026-06-23T09:12:53
; #@! TF.ProjectId,nrf24l01_pa_lna_transceiver_test,2a96fcbf-9cc4-48e7-bb54-b4758b16b972,v1
; #@! TF.Part,Single
; #@! TF.SameCoordinates
; #@! TF.FileFunction,Plated,1,2,PTH
FMAT,2
METRIC,TZ
; #@! TA.AperFunction,ViaDrill
T1C0.5
; #@! TA.AperFunction,ComponentDrill
T2C0.7
; #@! TA.AperFunction,ComponentDrill
T3C0.8
; #@! TA.AperFunction,ComponentDrill
T4C0.9
; #@! TA.AperFunction,ViaDrill
T5C1.0
; #@! TA.AperFunction,ComponentDrill
T6C1.0
; #@! TA.AperFunction,ComponentDrill
T7C1.016
; #@! TA.AperFunction,ComponentDrill
T8C1.2
%
G90
G05
M71
T1
X47.863125Y22.463125
X38.57625Y28.019375
T2
X18.27625Y45.323125
X20.77625Y45.323125
X19.446875Y39.0325
X19.446875Y36.5325
X35.8775Y41.13625
X35.8775Y43.63625
X28.09875Y51.1375
X28.09875Y53.6375
T3
X19.52625Y7.14375
X19.52625Y4.60375
X42.465625Y54.034375
X42.465625Y51.534375
X11.191875Y7.14375
X11.191875Y4.60375
X11.668125Y38.496875
X11.668125Y46.116875
X32.781875Y35.56
X32.781875Y38.1
X37.861875Y35.480625
X37.861875Y38.020625
X6.0325Y41.036875
X6.0325Y43.576875
T4
X12.779375Y16.1925
X10.239375Y16.1925
X20.399375Y31.4325
X38.179375Y31.4325
X17.859375Y16.1925
X10.239375Y31.4325
X15.319375Y16.1925
X40.719375Y16.1925
X38.179375Y16.1925
X28.019375Y16.1925
X33.099375Y31.4325
X22.939375Y31.4325
X20.399375Y16.1925
X45.799375Y16.1925
X40.719375Y31.4325
X15.319375Y31.4325
X17.859375Y31.4325
X28.019375Y31.4325
X45.799375Y31.4325
X12.779375Y31.4325
X35.639375Y31.4325
X43.259375Y16.1925
X30.559375Y31.4325
X25.479375Y31.4325
X25.479375Y16.1925
X30.559375Y16.1925
X35.639375Y16.1925
X33.099375Y16.1925
X22.939375Y16.1925
X43.259375Y31.4325
T5
X43.259375Y4.28625
X27.6225Y10.31875
X38.814375Y10.31875
X32.0675Y4.28625
T6
X48.180625Y42.06875
X45.640625Y36.98875
X45.640625Y42.06875
X45.640625Y39.52875
X48.180625Y44.60875
X45.640625Y44.60875
X48.180625Y36.98875
X48.180625Y39.52875
T7
X35.56Y52.832
X35.56Y50.038
T8
X6.628125Y52.07
X11.628125Y52.07
T0
M30
