G04 --- HEADER BEGIN --- *
G04 #@! TF.GenerationSoftware,LibrePCB,LibrePCB,2.1.1*
G04 #@! TF.CreationDate,2026-06-23T09:12:53*
G04 #@! TF.ProjectId,nrf24l01_pa_lna_transceiver_test,2a96fcbf-9cc4-48e7-bb54-b4758b16b972,v1*
G04 #@! TF.Part,Single*
G04 #@! TF.SameCoordinates*
G04 #@! TF.FileFunction,Copper,L2,Bot*
G04 #@! TF.FilePolarity,Positive*
%FSLAX66Y66*%
%MOMM*%
G01*
G75*
G04 --- HEADER END --- *
G04 --- APERTURE LIST BEGIN --- *
G04 #@! TA.AperFunction,ComponentPad*
%ADD10R,1.4X1.4*%
%ADD11C,1.4*%
%ADD12C,1.5*%
%ADD13R,1.5X1.5*%
%ADD14C,2.032*%
%ADD15R,2.6X2.6*%
%ADD16C,2.6*%
%ADD17O,2.19X1.587*%
%ADD18R,2.19X1.587*%
%ADD19R,1.6X1.6*%
%ADD20C,1.6*%
%ADD21C,1.7*%
%ADD22R,1.7X1.7*%
G04 #@! TA.AperFunction,ViaPad*
%ADD23C,1.0*%
G04 #@! TA.AperFunction,Conductor*
%ADD24C,0.5*%
G04 #@! TA.AperFunction,ViaPad*
%ADD25C,1.5*%
G04 #@! TA.AperFunction,Conductor*
%ADD26C,0.01*%
G04 #@! TD*
G04 --- APERTURE LIST END --- *
G04 --- BOARD BEGIN --- *
D10*
G04 #@! TO.N,GND*
G04 #@! TO.C,LED1*
G04 #@! TO.P,LED1,C,C*
X6032500Y43576875D03*
D11*
G04 #@! TO.N,N1*
G04 #@! TO.P,LED1,A,A*
X6032500Y41036875D03*
D12*
G04 #@! TO.N,GND*
G04 #@! TO.C,C4*
G04 #@! TO.P,C4,-,-*
X28098750Y53637500D03*
D13*
G04 #@! TO.N,3.3V*
G04 #@! TO.P,C4,+,+*
X28098750Y51137500D03*
D10*
G04 #@! TO.N,N5*
G04 #@! TO.C,LED2*
G04 #@! TO.P,LED2,C,C*
X37861875Y38020625D03*
D11*
G04 #@! TO.N,N3*
G04 #@! TO.P,LED2,A,A*
X37861875Y35480625D03*
D10*
G04 #@! TO.N,N5*
G04 #@! TO.C,LED3*
G04 #@! TO.P,LED3,C,C*
X32781875Y38100000D03*
D11*
G04 #@! TO.N,N2*
G04 #@! TO.P,LED3,A,A*
X32781875Y35560000D03*
D12*
G04 #@! TO.N,GND*
G04 #@! TO.C,C2*
G04 #@! TO.P,C2,-,-*
X35877500Y43636250D03*
D13*
G04 #@! TO.N,5V*
G04 #@! TO.P,C2,+,+*
X35877500Y41136250D03*
D14*
G04 #@! TO.N,3.3V*
G04 #@! TO.C,C7*
G04 #@! TO.P,C7,2,2*
X35560000Y50038000D03*
G04 #@! TO.N,GND*
G04 #@! TO.P,C7,1,1*
X35560000Y52832000D03*
D13*
G04 #@! TO.N,VCC*
G04 #@! TO.C,S3*
G04 #@! TO.P,S3,1,1A*
X11668125Y46116875D03*
D12*
G04 #@! TO.N,N7*
G04 #@! TO.P,S3,2,1B*
X11668125Y38496875D03*
D15*
G04 #@! TO.N,VCC*
G04 #@! TO.C,J1*
G04 #@! TO.P,J1,1,1*
X11628125Y52070000D03*
D16*
G04 #@! TO.N,GND*
G04 #@! TO.P,J1,2,2*
X6628125Y52070000D03*
D17*
G04 #@! TO.N,MOSI*
G04 #@! TO.C,M1*
G04 #@! TO.P,M1,6,MOSI*
X48180625Y39528750D03*
G04 #@! TO.N,IRQ*
G04 #@! TO.P,M1,8,IRQ*
X48180625Y36988750D03*
D18*
G04 #@! TO.N,GND*
G04 #@! TO.P,M1,1,GND*
X45640625Y44608750D03*
D17*
G04 #@! TO.N,3.3V*
G04 #@! TO.P,M1,2,VCC*
X48180625Y44608750D03*
G04 #@! TO.N,SCK*
G04 #@! TO.P,M1,5,SCK*
X45640625Y39528750D03*
G04 #@! TO.N,CE*
G04 #@! TO.P,M1,3,CE*
X45640625Y42068750D03*
G04 #@! TO.N,MISO*
G04 #@! TO.P,M1,7,MISO*
X45640625Y36988750D03*
G04 #@! TO.N,CSN*
G04 #@! TO.P,M1,4,CSN*
X48180625Y42068750D03*
D10*
G04 #@! TO.N,GND*
G04 #@! TO.C,LED4*
G04 #@! TO.P,LED4,C,C*
X11191875Y4603750D03*
D11*
G04 #@! TO.N,N6*
G04 #@! TO.P,LED4,A,A*
X11191875Y7143750D03*
D19*
G04 #@! TO.N,3.3V*
G04 #@! TO.C,C5*
G04 #@! TO.P,C5,+,+*
X42465625Y51534375D03*
D20*
G04 #@! TO.N,GND*
G04 #@! TO.P,C5,-,-*
X42465625Y54034375D03*
D12*
G04 #@! TO.C,C1*
G04 #@! TO.P,C1,-,-*
X19446875Y36532500D03*
D13*
G04 #@! TO.N,N7*
G04 #@! TO.P,C1,+,+*
X19446875Y39032500D03*
D21*
G04 #@! TO.N,N/C*
G04 #@! TO.C,U3*
G04 #@! TO.P,U3,2,3V3*
X43259375Y31432500D03*
G04 #@! TO.P,U3,21,D3*
X22939375Y16192500D03*
G04 #@! TO.P,U3,25,D7*
X33099375Y16192500D03*
G04 #@! TO.N,CSN*
G04 #@! TO.P,U3,26,D8*
X35639375Y16192500D03*
G04 #@! TO.N,D6*
G04 #@! TO.P,U3,24,D6*
X30559375Y16192500D03*
G04 #@! TO.N,N/C*
G04 #@! TO.P,U3,22,D4*
X25479375Y16192500D03*
G04 #@! TO.N,N9*
G04 #@! TO.P,U3,9,D19/A5*
X25479375Y31432500D03*
G04 #@! TO.N,N/C*
G04 #@! TO.P,U3,7,D17/A3*
X30559375Y31432500D03*
G04 #@! TO.N,MOSI*
G04 #@! TO.P,U3,29,D11*
X43259375Y16192500D03*
G04 #@! TO.N,N2*
G04 #@! TO.P,U3,5,D15/A1*
X35639375Y31432500D03*
G04 #@! TO.N,GND*
G04 #@! TO.P,U3,14,GND*
X12779375Y31432500D03*
D22*
G04 #@! TO.N,SCK*
G04 #@! TO.P,U3,1,D13*
X45799375Y31432500D03*
D21*
G04 #@! TO.N,N10*
G04 #@! TO.P,U3,8,D18/A4*
X28019375Y31432500D03*
G04 #@! TO.N,5V*
G04 #@! TO.P,U3,12,5V*
X17859375Y31432500D03*
G04 #@! TO.N,N/C*
G04 #@! TO.P,U3,13,!RESET*
X15319375Y31432500D03*
G04 #@! TO.P,U3,3,AREF*
X40719375Y31432500D03*
G04 #@! TO.N,MISO*
G04 #@! TO.P,U3,30,D12*
X45799375Y16192500D03*
G04 #@! TO.N,N/C*
G04 #@! TO.P,U3,20,D2*
X20399375Y16192500D03*
G04 #@! TO.P,U3,10,A6*
X22939375Y31432500D03*
G04 #@! TO.P,U3,6,D16/A2*
X33099375Y31432500D03*
G04 #@! TO.N,D5*
G04 #@! TO.P,U3,23,D5*
X28019375Y16192500D03*
G04 #@! TO.N,CE*
G04 #@! TO.P,U3,27,D9*
X38179375Y16192500D03*
G04 #@! TO.N,N/C*
G04 #@! TO.P,U3,28,D10*
X40719375Y16192500D03*
G04 #@! TO.P,U3,18,!RESET*
X15319375Y16192500D03*
G04 #@! TO.P,U3,15,VIN*
X10239375Y31432500D03*
G04 #@! TO.N,GND*
G04 #@! TO.P,U3,19,GND*
X17859375Y16192500D03*
G04 #@! TO.N,N3*
G04 #@! TO.P,U3,4,D14/A0*
X38179375Y31432500D03*
G04 #@! TO.N,N/C*
G04 #@! TO.P,U3,11,A7*
X20399375Y31432500D03*
G04 #@! TO.P,U3,16,D1/TX*
X10239375Y16192500D03*
G04 #@! TO.P,U3,17,D0/RX*
X12779375Y16192500D03*
D10*
G04 #@! TO.N,GND*
G04 #@! TO.C,LED5*
G04 #@! TO.P,LED5,C,C*
X19526250Y4603750D03*
D11*
G04 #@! TO.N,N8*
G04 #@! TO.P,LED5,A,A*
X19526250Y7143750D03*
D12*
G04 #@! TO.N,GND*
G04 #@! TO.C,C3*
G04 #@! TO.P,C3,-,-*
X20776250Y45323125D03*
D13*
G04 #@! TO.N,VCC*
G04 #@! TO.P,C3,+,+*
X18276250Y45323125D03*
D23*
G04 #@! TD.C*
G04 #@! TD.P*
G04 #@! TO.N,CSN*
X38576250Y28019375D03*
D24*
X49291875Y42068750D02*
X50879375Y40481250D01*
X50879375Y29448125D02*
X50879375Y40481250D01*
X39687500Y29130625D02*
X50561875Y29130625D01*
X48180625Y42068750D02*
X49291875Y42068750D01*
X50879375Y29448125D02*
X50561875Y29130625D01*
X38576250Y28019375D02*
X39687500Y29130625D01*
D25*
G04 #@! TO.N,GND*
X32067500Y4286250D03*
G04 #@! TO.N,D6*
X38814375Y10318750D03*
G04 #@! TO.N,D5*
X27622500Y10318750D03*
D23*
G04 #@! TO.N,MOSI*
X47863125Y22463125D03*
D24*
X43259375Y16192500D02*
X43259375Y17859375D01*
X47863125Y22463125D02*
X43259375Y17859375D01*
G04 #@! TO.N,SCK*
X45799375Y33178750D02*
X42941875Y36036250D01*
X45799375Y31432500D02*
X45799375Y33178750D01*
X45640625Y39528750D02*
X45561250Y39449375D01*
X42941875Y36036250D02*
X42941875Y38814375D01*
X43576875Y39449375D02*
X45561250Y39449375D01*
X43576875Y39449375D02*
X42941875Y38814375D01*
G04 #@! TO.N,CE*
X45640625Y42068750D02*
X45561250Y41989375D01*
D25*
G04 #@! TO.N,GND*
X43259375Y4286250D03*
D26*
G04 #@! TA.AperFunction,Conductor*
G36*
X300000Y399999D02*
X319500Y340672D01*
X399999Y300000D01*
X5943662Y300000D01*
X5943662Y40141805D01*
X5933302Y40142894D01*
X5759511Y40179835D01*
X5749598Y40183055D01*
X5587291Y40255319D01*
X5578257Y40260535D01*
X5434520Y40364966D01*
X5426776Y40371939D01*
X5307889Y40503976D01*
X5301768Y40512401D01*
X5212927Y40666278D01*
X5208691Y40675793D01*
X5153786Y40844773D01*
X5151619Y40854965D01*
X5133048Y41031661D01*
X5133048Y41042089D01*
X5151619Y41218785D01*
X5153786Y41228977D01*
X5208691Y41397957D01*
X5212927Y41407472D01*
X5301768Y41561349D01*
X5307889Y41569774D01*
X5336431Y41601473D01*
X5336431Y42576875D01*
X5328618Y42577490D01*
X5247569Y42590327D01*
X5232782Y42595131D01*
X5163174Y42630598D01*
X5150601Y42639733D01*
X5095358Y42694976D01*
X5086223Y42707549D01*
X5050756Y42777157D01*
X5045952Y42791944D01*
X5033115Y42872993D01*
X5032500Y42880806D01*
X5032500Y43460857D01*
X5034066Y43465622D01*
X5048513Y43472921D01*
X5048513Y43676880D01*
X5043748Y43678446D01*
X5032500Y43700708D01*
X5032500Y44272944D01*
X5033115Y44280757D01*
X5045952Y44361806D01*
X5050756Y44376593D01*
X5086223Y44446201D01*
X5095358Y44458774D01*
X5150601Y44514017D01*
X5163174Y44523152D01*
X5232782Y44558619D01*
X5247569Y44563423D01*
X5328618Y44576260D01*
X5336431Y44576875D01*
X5430816Y44576875D01*
X5430816Y51020113D01*
X5427199Y51020723D01*
X5425433Y51022135D01*
X5336248Y51126558D01*
X5331645Y51132894D01*
X5204569Y51340263D01*
X5201011Y51347245D01*
X5107940Y51571941D01*
X5105517Y51579397D01*
X5048740Y51815890D01*
X5047516Y51823614D01*
X5028433Y52066087D01*
X5028433Y52073913D01*
X5047516Y52316386D01*
X5048740Y52324110D01*
X5105517Y52560603D01*
X5107940Y52568059D01*
X5201011Y52792755D01*
X5204569Y52799737D01*
X5331645Y53007106D01*
X5336248Y53013442D01*
X5421206Y53112916D01*
X5432799Y53119966D01*
X5436451Y53119641D01*
X5438328Y53118368D01*
X5641670Y52915027D01*
X5632267Y52905624D01*
X5502292Y52720000D01*
X5406525Y52514626D01*
X5347875Y52295743D01*
X5328125Y52070000D01*
X5347875Y51844257D01*
X5406525Y51625374D01*
X5502292Y51420000D01*
X5632267Y51234376D01*
X5641670Y51224974D01*
X5442928Y51026232D01*
X5430816Y51020113D01*
X5430816Y44576875D01*
X5916482Y44576875D01*
X5921247Y44575309D01*
X5932495Y44553047D01*
X5932495Y44276875D01*
X5332500Y44276875D01*
X5332500Y43676880D01*
X5048513Y43676880D01*
X5048513Y43472921D01*
X5056328Y43476870D01*
X5332500Y43476870D01*
X5332500Y42876875D01*
X5932495Y42876875D01*
X5932495Y42592888D01*
X5930929Y42588123D01*
X5908667Y42576875D01*
X5336431Y42576875D01*
X5336431Y41601473D01*
X5426776Y41701811D01*
X5434520Y41708784D01*
X5578257Y41813215D01*
X5587291Y41818431D01*
X5749598Y41890695D01*
X5759511Y41893915D01*
X5933302Y41930856D01*
X5943662Y41931945D01*
X6121338Y41931945D01*
X6131698Y41930856D01*
X6148518Y41927280D01*
X6148518Y42576875D01*
X6143753Y42578441D01*
X6132505Y42600703D01*
X6132505Y42876875D01*
X6732500Y42876875D01*
X6732500Y43476870D01*
X6732500Y43676880D01*
X6732500Y44276875D01*
X6132505Y44276875D01*
X6132505Y44560862D01*
X6134071Y44565627D01*
X6156333Y44576875D01*
X6624212Y44576875D01*
X6624212Y50470308D01*
X6381739Y50489391D01*
X6374015Y50490615D01*
X6137522Y50547392D01*
X6130066Y50549815D01*
X5905370Y50642886D01*
X5898388Y50646444D01*
X5691019Y50773520D01*
X5684683Y50778123D01*
X5585209Y50863081D01*
X5578159Y50874674D01*
X5578484Y50878326D01*
X5579757Y50880203D01*
X5783099Y51083545D01*
X5783099Y53056456D01*
X5584357Y53255197D01*
X5578238Y53267309D01*
X5578848Y53270926D01*
X5580260Y53272692D01*
X5684683Y53361877D01*
X5691019Y53366480D01*
X5898388Y53493556D01*
X5905370Y53497114D01*
X6130066Y53590185D01*
X6137522Y53592608D01*
X6374015Y53649385D01*
X6381739Y53650609D01*
X6624212Y53669692D01*
X6632038Y53669692D01*
X6874511Y53650609D01*
X6882235Y53649385D01*
X7118728Y53592608D01*
X7126184Y53590185D01*
X7350880Y53497114D01*
X7357862Y53493556D01*
X7565231Y53366480D01*
X7571567Y53361877D01*
X7671041Y53276919D01*
X7678091Y53265326D01*
X7677766Y53261674D01*
X7676493Y53259797D01*
X7473152Y53056456D01*
X7463749Y53065858D01*
X7278125Y53195833D01*
X7072751Y53291600D01*
X6853868Y53350250D01*
X6628125Y53370000D01*
X6402382Y53350250D01*
X6183499Y53291600D01*
X5978125Y53195833D01*
X5792501Y53065858D01*
X5783099Y53056456D01*
X5783099Y51083545D01*
X5792501Y51074142D01*
X5978125Y50944167D01*
X6183499Y50848400D01*
X6402382Y50789750D01*
X6628125Y50770000D01*
X6853868Y50789750D01*
X7072751Y50848400D01*
X7278125Y50944167D01*
X7463749Y51074142D01*
X7473152Y51083545D01*
X7671893Y50884803D01*
X7678012Y50872691D01*
X7677402Y50869074D01*
X7675990Y50867308D01*
X7571567Y50778123D01*
X7565231Y50773520D01*
X7357862Y50646444D01*
X7350880Y50642886D01*
X7126184Y50549815D01*
X7118728Y50547392D01*
X6882235Y50490615D01*
X6874511Y50489391D01*
X6632038Y50470308D01*
X6624212Y50470308D01*
X6624212Y44576875D01*
X6728569Y44576875D01*
X6736382Y44576260D01*
X6817431Y44563423D01*
X6832218Y44558619D01*
X6901826Y44523152D01*
X6914399Y44514017D01*
X6969642Y44458774D01*
X6978777Y44446201D01*
X7014244Y44376593D01*
X7019048Y44361806D01*
X7031885Y44280757D01*
X7032500Y44272944D01*
X7032500Y43692893D01*
X7030934Y43688128D01*
X7008672Y43676880D01*
X6732500Y43676880D01*
X6732500Y43476870D01*
X7016487Y43476870D01*
X7021252Y43475304D01*
X7032500Y43453042D01*
X7032500Y42880806D01*
X7031885Y42872993D01*
X7019048Y42791944D01*
X7014244Y42777157D01*
X6978777Y42707549D01*
X6969642Y42694976D01*
X6914399Y42639733D01*
X6901826Y42630598D01*
X6832218Y42595131D01*
X6817431Y42590327D01*
X6736382Y42577490D01*
X6728569Y42576875D01*
X6148518Y42576875D01*
X6148518Y41927280D01*
X6305489Y41893915D01*
X6315402Y41890695D01*
X6477709Y41818431D01*
X6486743Y41813215D01*
X6630480Y41708784D01*
X6638224Y41701811D01*
X6757111Y41569774D01*
X6763232Y41561349D01*
X6852073Y41407472D01*
X6856309Y41397957D01*
X6911214Y41228977D01*
X6913381Y41218785D01*
X6931952Y41042089D01*
X6931952Y41031661D01*
X6913381Y40854965D01*
X6911214Y40844773D01*
X6856309Y40675793D01*
X6852073Y40666278D01*
X6763232Y40512401D01*
X6757111Y40503976D01*
X6638224Y40371939D01*
X6630480Y40364966D01*
X6486743Y40260535D01*
X6477709Y40255319D01*
X6315402Y40183055D01*
X6305489Y40179835D01*
X6131698Y40142894D01*
X6121338Y40141805D01*
X5943662Y40141805D01*
X5943662Y300000D01*
X7597887Y300000D01*
X7597887Y15047406D01*
X7588722Y15048255D01*
X7389208Y15085551D01*
X7380351Y15088072D01*
X7191094Y15161389D01*
X7182842Y15165498D01*
X7010273Y15272348D01*
X7002929Y15277894D01*
X6852937Y15414631D01*
X6846725Y15421444D01*
X6724411Y15583414D01*
X6719563Y15591244D01*
X6629096Y15772927D01*
X6625766Y15781521D01*
X6570221Y15976744D01*
X6568529Y15985793D01*
X6549802Y16187892D01*
X6549802Y16197108D01*
X6568529Y16399207D01*
X6570221Y16408256D01*
X6625766Y16603479D01*
X6629096Y16612073D01*
X6719563Y16793756D01*
X6724411Y16801586D01*
X6846725Y16963556D01*
X6852937Y16970369D01*
X7002929Y17107106D01*
X7010273Y17112652D01*
X7182842Y17219502D01*
X7191094Y17223611D01*
X7380351Y17296928D01*
X7389208Y17299449D01*
X7588722Y17336745D01*
X7597887Y17337594D01*
X7597887Y30287406D01*
X7588722Y30288255D01*
X7389208Y30325551D01*
X7380351Y30328072D01*
X7191094Y30401389D01*
X7182842Y30405498D01*
X7010273Y30512348D01*
X7002929Y30517894D01*
X6852937Y30654631D01*
X6846725Y30661444D01*
X6724411Y30823414D01*
X6719563Y30831244D01*
X6629096Y31012927D01*
X6625766Y31021521D01*
X6570221Y31216744D01*
X6568529Y31225793D01*
X6549802Y31427892D01*
X6549802Y31437108D01*
X6568529Y31639207D01*
X6570221Y31648256D01*
X6625766Y31843479D01*
X6629096Y31852073D01*
X6719563Y32033756D01*
X6724411Y32041586D01*
X6846725Y32203556D01*
X6852937Y32210369D01*
X7002929Y32347106D01*
X7010273Y32352652D01*
X7182842Y32459502D01*
X7191094Y32463611D01*
X7380351Y32536928D01*
X7389208Y32539449D01*
X7588722Y32576745D01*
X7597887Y32577594D01*
X7800863Y32577594D01*
X7810028Y32576745D01*
X7823451Y32574235D01*
X7823451Y51020034D01*
X7819799Y51020359D01*
X7817922Y51021632D01*
X7614581Y51224974D01*
X7623983Y51234376D01*
X7753958Y51420000D01*
X7849725Y51625374D01*
X7908375Y51844257D01*
X7928125Y52070000D01*
X7908375Y52295743D01*
X7849725Y52514626D01*
X7753958Y52720000D01*
X7623983Y52905624D01*
X7614581Y52915027D01*
X7813322Y53113768D01*
X7825434Y53119887D01*
X7829051Y53119277D01*
X7830817Y53117865D01*
X7920002Y53013442D01*
X7924605Y53007106D01*
X8051681Y52799737D01*
X8055239Y52792755D01*
X8148310Y52568059D01*
X8150733Y52560603D01*
X8207510Y52324110D01*
X8208734Y52316386D01*
X8227817Y52073913D01*
X8227817Y52066087D01*
X8208734Y51823614D01*
X8207510Y51815890D01*
X8150733Y51579397D01*
X8148310Y51571941D01*
X8055239Y51347245D01*
X8051681Y51340263D01*
X7924605Y51132894D01*
X7920002Y51126558D01*
X7835044Y51027084D01*
X7823451Y51020034D01*
X7823451Y32574235D01*
X8009542Y32539449D01*
X8018399Y32536928D01*
X8207656Y32463611D01*
X8215908Y32459502D01*
X8388477Y32352652D01*
X8395821Y32347106D01*
X8545813Y32210369D01*
X8552025Y32203556D01*
X8674339Y32041586D01*
X8679187Y32033756D01*
X8769654Y31852073D01*
X8772984Y31843479D01*
X8828529Y31648256D01*
X8830221Y31639207D01*
X8848948Y31437108D01*
X8848948Y31427892D01*
X8830221Y31225793D01*
X8828529Y31216744D01*
X8772984Y31021521D01*
X8769654Y31012927D01*
X8679187Y30831244D01*
X8674339Y30823414D01*
X8552025Y30661444D01*
X8545813Y30654631D01*
X8395821Y30517894D01*
X8388477Y30512348D01*
X8215908Y30405498D01*
X8207656Y30401389D01*
X8018399Y30328072D01*
X8009542Y30325551D01*
X7810028Y30288255D01*
X7800863Y30287406D01*
X7597887Y30287406D01*
X7597887Y17337594D01*
X7800863Y17337594D01*
X7810028Y17336745D01*
X8009542Y17299449D01*
X8018399Y17296928D01*
X8207656Y17223611D01*
X8215908Y17219502D01*
X8388477Y17112652D01*
X8395821Y17107106D01*
X8545813Y16970369D01*
X8552025Y16963556D01*
X8674339Y16801586D01*
X8679187Y16793756D01*
X8769654Y16612073D01*
X8772984Y16603479D01*
X8828529Y16408256D01*
X8830221Y16399207D01*
X8848948Y16197108D01*
X8848948Y16187892D01*
X8830221Y15985793D01*
X8828529Y15976744D01*
X8772984Y15781521D01*
X8769654Y15772927D01*
X8679187Y15591244D01*
X8674339Y15583414D01*
X8552025Y15421444D01*
X8545813Y15414631D01*
X8395821Y15277894D01*
X8388477Y15272348D01*
X8215908Y15165498D01*
X8207656Y15161389D01*
X8018399Y15088072D01*
X8009542Y15085551D01*
X7810028Y15048255D01*
X7800863Y15047406D01*
X7597887Y15047406D01*
X7597887Y300000D01*
X10495806Y300000D01*
X10495806Y3603750D01*
X10487993Y3604365D01*
X10406944Y3617202D01*
X10392157Y3622006D01*
X10322549Y3657473D01*
X10309976Y3666608D01*
X10254733Y3721851D01*
X10245598Y3734424D01*
X10210131Y3804032D01*
X10205327Y3818819D01*
X10192490Y3899868D01*
X10191875Y3907681D01*
X10191875Y4487732D01*
X10193441Y4492497D01*
X10207888Y4499796D01*
X10207888Y4703755D01*
X10203123Y4705321D01*
X10191875Y4727583D01*
X10191875Y5299819D01*
X10192490Y5307632D01*
X10205327Y5388681D01*
X10210131Y5403468D01*
X10234767Y5451818D01*
X10234767Y15142927D01*
X10051043Y15159951D01*
X10041994Y15161643D01*
X9864520Y15212138D01*
X9855926Y15215468D01*
X9690762Y15297710D01*
X9682932Y15302557D01*
X9535689Y15413751D01*
X9528876Y15419963D01*
X9404571Y15556318D01*
X9399025Y15563662D01*
X9301884Y15720551D01*
X9297786Y15728781D01*
X9231130Y15900837D01*
X9228607Y15909705D01*
X9194703Y16091074D01*
X9193854Y16100239D01*
X9193854Y16284761D01*
X9194703Y16293926D01*
X9228607Y16475295D01*
X9231130Y16484163D01*
X9297786Y16656219D01*
X9301884Y16664449D01*
X9399025Y16821338D01*
X9404571Y16828682D01*
X9528876Y16965037D01*
X9535689Y16971249D01*
X9682932Y17082443D01*
X9690762Y17087290D01*
X9855926Y17169532D01*
X9864520Y17172862D01*
X10041994Y17223357D01*
X10051043Y17225049D01*
X10234767Y17242073D01*
X10234767Y30382927D01*
X10051043Y30399951D01*
X10041994Y30401643D01*
X9864520Y30452138D01*
X9855926Y30455468D01*
X9690762Y30537710D01*
X9682932Y30542557D01*
X9535689Y30653751D01*
X9528876Y30659963D01*
X9404571Y30796318D01*
X9399025Y30803662D01*
X9301884Y30960551D01*
X9297786Y30968781D01*
X9231130Y31140837D01*
X9228607Y31149705D01*
X9194703Y31331074D01*
X9193854Y31340239D01*
X9193854Y31524761D01*
X9194703Y31533926D01*
X9228607Y31715295D01*
X9231130Y31724163D01*
X9297786Y31896219D01*
X9301884Y31904449D01*
X9399025Y32061338D01*
X9404571Y32068682D01*
X9528876Y32205037D01*
X9535689Y32211249D01*
X9682932Y32322443D01*
X9690762Y32327290D01*
X9855926Y32409532D01*
X9864520Y32412862D01*
X10041994Y32463357D01*
X10051043Y32465049D01*
X10234767Y32482073D01*
X10243983Y32482073D01*
X10333039Y32473821D01*
X10333039Y50570000D01*
X10323308Y50570958D01*
X10261248Y50583303D01*
X10243398Y50590696D01*
X10194892Y50623108D01*
X10181233Y50636767D01*
X10148821Y50685273D01*
X10141428Y50703123D01*
X10129083Y50765183D01*
X10128125Y50774914D01*
X10128125Y53365086D01*
X10129083Y53374817D01*
X10141428Y53436877D01*
X10148821Y53454727D01*
X10181233Y53503233D01*
X10194892Y53516892D01*
X10243398Y53549304D01*
X10261248Y53556697D01*
X10323308Y53569042D01*
X10333039Y53570000D01*
X12923211Y53570000D01*
X12932942Y53569042D01*
X12995002Y53556697D01*
X13012852Y53549304D01*
X13061358Y53516892D01*
X13075017Y53503233D01*
X13107429Y53454727D01*
X13114822Y53436877D01*
X13127167Y53374817D01*
X13128125Y53365086D01*
X13128125Y50774914D01*
X13127167Y50765183D01*
X13114822Y50703123D01*
X13107429Y50685273D01*
X13075017Y50636767D01*
X13061358Y50623108D01*
X13012852Y50590696D01*
X12995002Y50583303D01*
X12932942Y50570958D01*
X12923211Y50570000D01*
X10333039Y50570000D01*
X10333039Y32473821D01*
X10427707Y32465049D01*
X10436756Y32463357D01*
X10614230Y32412862D01*
X10622824Y32409532D01*
X10787988Y32327290D01*
X10795818Y32322443D01*
X10943061Y32211249D01*
X10949874Y32205037D01*
X11074179Y32068682D01*
X11079725Y32061338D01*
X11176866Y31904449D01*
X11180964Y31896219D01*
X11247620Y31724163D01*
X11250143Y31715295D01*
X11284047Y31533926D01*
X11284896Y31524761D01*
X11284896Y31340239D01*
X11284047Y31331074D01*
X11250143Y31149705D01*
X11247620Y31140837D01*
X11180964Y30968781D01*
X11176866Y30960551D01*
X11079725Y30803662D01*
X11074179Y30796318D01*
X10949874Y30659963D01*
X10943061Y30653751D01*
X10795818Y30542557D01*
X10787988Y30537710D01*
X10622824Y30455468D01*
X10614230Y30452138D01*
X10436756Y30401643D01*
X10427707Y30399951D01*
X10243983Y30382927D01*
X10234767Y30382927D01*
X10234767Y17242073D01*
X10243983Y17242073D01*
X10427707Y17225049D01*
X10436756Y17223357D01*
X10614230Y17172862D01*
X10622824Y17169532D01*
X10787988Y17087290D01*
X10795818Y17082443D01*
X10943061Y16971249D01*
X10949874Y16965037D01*
X11074179Y16828682D01*
X11079725Y16821338D01*
X11176866Y16664449D01*
X11180964Y16656219D01*
X11247620Y16484163D01*
X11250143Y16475295D01*
X11284047Y16293926D01*
X11284896Y16284761D01*
X11284896Y16100239D01*
X11284047Y16091074D01*
X11250143Y15909705D01*
X11247620Y15900837D01*
X11180964Y15728781D01*
X11176866Y15720551D01*
X11079725Y15563662D01*
X11074179Y15556318D01*
X10949874Y15419963D01*
X10943061Y15413751D01*
X10795818Y15302557D01*
X10787988Y15297710D01*
X10622824Y15215468D01*
X10614230Y15212138D01*
X10436756Y15161643D01*
X10427707Y15159951D01*
X10243983Y15142927D01*
X10234767Y15142927D01*
X10234767Y5451818D01*
X10245598Y5473076D01*
X10254733Y5485649D01*
X10309976Y5540892D01*
X10322549Y5550027D01*
X10392157Y5585494D01*
X10406944Y5590298D01*
X10487993Y5603135D01*
X10495806Y5603750D01*
X11075857Y5603750D01*
X11080622Y5602184D01*
X11091870Y5579922D01*
X11091870Y5303750D01*
X10491875Y5303750D01*
X10491875Y4703755D01*
X10207888Y4703755D01*
X10207888Y4499796D01*
X10215703Y4503745D01*
X10491875Y4503745D01*
X10491875Y3903750D01*
X11091870Y3903750D01*
X11091870Y3619763D01*
X11090304Y3614998D01*
X11068042Y3603750D01*
X10495806Y3603750D01*
X10495806Y300000D01*
X11103037Y300000D01*
X11103037Y6248680D01*
X11092677Y6249769D01*
X10918886Y6286710D01*
X10908973Y6289930D01*
X10746666Y6362194D01*
X10737632Y6367410D01*
X10593895Y6471841D01*
X10586151Y6478814D01*
X10467264Y6610851D01*
X10461143Y6619276D01*
X10372302Y6773153D01*
X10368066Y6782668D01*
X10313161Y6951648D01*
X10310994Y6961840D01*
X10292423Y7138536D01*
X10292423Y7148964D01*
X10310994Y7325660D01*
X10313161Y7335852D01*
X10368066Y7504832D01*
X10372302Y7514347D01*
X10461143Y7668224D01*
X10467264Y7676649D01*
X10586151Y7808686D01*
X10593895Y7815659D01*
X10737632Y7920090D01*
X10746666Y7925306D01*
X10908973Y7997570D01*
X10918886Y8000790D01*
X11092677Y8037731D01*
X11103037Y8038820D01*
X11280713Y8038820D01*
X11291073Y8037731D01*
X11464864Y8000790D01*
X11474777Y7997570D01*
X11637084Y7925306D01*
X11646118Y7920090D01*
X11789855Y7815659D01*
X11797599Y7808686D01*
X11916486Y7676649D01*
X11922607Y7668224D01*
X12011448Y7514347D01*
X12015684Y7504832D01*
X12070589Y7335852D01*
X12072756Y7325660D01*
X12091327Y7148964D01*
X12091327Y7138536D01*
X12072756Y6961840D01*
X12070589Y6951648D01*
X12015684Y6782668D01*
X12011448Y6773153D01*
X11922607Y6619276D01*
X11916486Y6610851D01*
X11797599Y6478814D01*
X11789855Y6471841D01*
X11646118Y6367410D01*
X11637084Y6362194D01*
X11474777Y6289930D01*
X11464864Y6286710D01*
X11291073Y6249769D01*
X11280713Y6248680D01*
X11103037Y6248680D01*
X11103037Y300000D01*
X11307893Y300000D01*
X11307893Y3603750D01*
X11303128Y3605316D01*
X11291880Y3627578D01*
X11291880Y3903750D01*
X11891875Y3903750D01*
X11891875Y4503745D01*
X11891875Y4703755D01*
X11891875Y5303750D01*
X11291880Y5303750D01*
X11291880Y5587737D01*
X11293446Y5592502D01*
X11315708Y5603750D01*
X11887944Y5603750D01*
X11895757Y5603135D01*
X11976806Y5590298D01*
X11991593Y5585494D01*
X12061201Y5550027D01*
X12073774Y5540892D01*
X12129017Y5485649D01*
X12138152Y5473076D01*
X12173619Y5403468D01*
X12178423Y5388681D01*
X12191260Y5307632D01*
X12191875Y5299819D01*
X12191875Y4719768D01*
X12190309Y4715003D01*
X12168047Y4703755D01*
X11891875Y4703755D01*
X11891875Y4503745D01*
X12175862Y4503745D01*
X12180627Y4502179D01*
X12191875Y4479917D01*
X12191875Y3907681D01*
X12191260Y3899868D01*
X12178423Y3818819D01*
X12173619Y3804032D01*
X12138152Y3734424D01*
X12129017Y3721851D01*
X12073774Y3666608D01*
X12061201Y3657473D01*
X11991593Y3622006D01*
X11976806Y3617202D01*
X11895757Y3604365D01*
X11887944Y3603750D01*
X11307893Y3603750D01*
X11307893Y300000D01*
X12774767Y300000D01*
X12774767Y15142927D01*
X12591043Y15159951D01*
X12581994Y15161643D01*
X12404520Y15212138D01*
X12395926Y15215468D01*
X12230762Y15297710D01*
X12222932Y15302557D01*
X12075689Y15413751D01*
X12068876Y15419963D01*
X11944571Y15556318D01*
X11939025Y15563662D01*
X11841884Y15720551D01*
X11837786Y15728781D01*
X11771130Y15900837D01*
X11768607Y15909705D01*
X11734703Y16091074D01*
X11733854Y16100239D01*
X11733854Y16284761D01*
X11734703Y16293926D01*
X11768607Y16475295D01*
X11771130Y16484163D01*
X11837786Y16656219D01*
X11841884Y16664449D01*
X11900572Y16759233D01*
X11900572Y30701119D01*
X11896107Y30701873D01*
X11895506Y30702337D01*
X11864769Y30736054D01*
X11859223Y30743398D01*
X11752373Y30915967D01*
X11748264Y30924219D01*
X11674947Y31113476D01*
X11672426Y31122333D01*
X11635130Y31321847D01*
X11634281Y31331012D01*
X11634281Y31533988D01*
X11635130Y31543153D01*
X11663231Y31693478D01*
X11663231Y37547357D01*
X11487682Y37564647D01*
X11478085Y37566556D01*
X11309282Y37617761D01*
X11300238Y37621508D01*
X11144667Y37704662D01*
X11136535Y37710096D01*
X11000172Y37822007D01*
X10993257Y37828922D01*
X10881346Y37965285D01*
X10875912Y37973417D01*
X10792758Y38128988D01*
X10789011Y38138032D01*
X10737806Y38306835D01*
X10735897Y38316432D01*
X10718607Y38491981D01*
X10718607Y38501769D01*
X10735897Y38677318D01*
X10737806Y38686915D01*
X10789011Y38855718D01*
X10792758Y38864762D01*
X10875912Y39020333D01*
X10881346Y39028465D01*
X10923039Y39079267D01*
X10923039Y45166875D01*
X10913308Y45167833D01*
X10851248Y45180178D01*
X10833398Y45187571D01*
X10784892Y45219983D01*
X10771233Y45233642D01*
X10738821Y45282148D01*
X10731428Y45299998D01*
X10719083Y45362058D01*
X10718125Y45371789D01*
X10718125Y46861961D01*
X10719083Y46871692D01*
X10731428Y46933752D01*
X10738821Y46951602D01*
X10771233Y47000108D01*
X10784892Y47013767D01*
X10833398Y47046179D01*
X10851248Y47053572D01*
X10913308Y47065917D01*
X10923039Y47066875D01*
X12413211Y47066875D01*
X12422942Y47065917D01*
X12485002Y47053572D01*
X12502852Y47046179D01*
X12551358Y47013767D01*
X12565017Y47000108D01*
X12597429Y46951602D01*
X12604822Y46933752D01*
X12617167Y46871692D01*
X12618125Y46861961D01*
X12618125Y45371789D01*
X12617167Y45362058D01*
X12604822Y45299998D01*
X12597429Y45282148D01*
X12565017Y45233642D01*
X12551358Y45219983D01*
X12502852Y45187571D01*
X12485002Y45180178D01*
X12422942Y45167833D01*
X12413211Y45166875D01*
X10923039Y45166875D01*
X10923039Y39079267D01*
X10993257Y39164828D01*
X11000172Y39171743D01*
X11136535Y39283654D01*
X11144667Y39289088D01*
X11300238Y39372242D01*
X11309282Y39375989D01*
X11478085Y39427194D01*
X11487682Y39429103D01*
X11663231Y39446393D01*
X11673019Y39446393D01*
X11848568Y39429103D01*
X11858165Y39427194D01*
X12026968Y39375989D01*
X12036012Y39372242D01*
X12191583Y39289088D01*
X12199715Y39283654D01*
X12336078Y39171743D01*
X12342993Y39164828D01*
X12454904Y39028465D01*
X12460338Y39020333D01*
X12543492Y38864762D01*
X12547239Y38855718D01*
X12598444Y38686915D01*
X12600353Y38677318D01*
X12617643Y38501769D01*
X12617643Y38491981D01*
X12600353Y38316432D01*
X12598444Y38306835D01*
X12547239Y38138032D01*
X12543492Y38128988D01*
X12460338Y37973417D01*
X12454904Y37965285D01*
X12342993Y37828922D01*
X12336078Y37822007D01*
X12199715Y37710096D01*
X12191583Y37704662D01*
X12036012Y37621508D01*
X12026968Y37617761D01*
X11858165Y37566556D01*
X11848568Y37564647D01*
X11673019Y37547357D01*
X11663231Y37547357D01*
X11663231Y31693478D01*
X11672426Y31742667D01*
X11674947Y31751524D01*
X11748264Y31940781D01*
X11752373Y31949033D01*
X11859223Y32121602D01*
X11864769Y32128946D01*
X11890573Y32157251D01*
X11902388Y32163922D01*
X11906887Y32163375D01*
X11907504Y32162942D01*
X12114661Y31955785D01*
X12043253Y31857500D01*
X11970977Y31695164D01*
X11934031Y31521349D01*
X11934031Y31343651D01*
X11970977Y31169836D01*
X12043253Y31007500D01*
X12114661Y30909215D01*
X11912684Y30707238D01*
X11900572Y30701119D01*
X11900572Y16759233D01*
X11939025Y16821338D01*
X11944571Y16828682D01*
X12068876Y16965037D01*
X12075689Y16971249D01*
X12222932Y17082443D01*
X12230762Y17087290D01*
X12395926Y17169532D01*
X12404520Y17172862D01*
X12581994Y17223357D01*
X12591043Y17225049D01*
X12774767Y17242073D01*
X12774767Y30282927D01*
X12572668Y30301654D01*
X12563619Y30303346D01*
X12368396Y30358891D01*
X12359802Y30362221D01*
X12178119Y30452688D01*
X12170289Y30457536D01*
X12055187Y30544457D01*
X12047455Y30555604D01*
X12047514Y30557665D01*
X12050204Y30561900D01*
X12255227Y30766923D01*
X12255227Y32098077D01*
X12053733Y32299571D01*
X12047614Y32311683D01*
X12047956Y32313712D01*
X12051207Y32317537D01*
X12170289Y32407464D01*
X12178119Y32412312D01*
X12359802Y32502779D01*
X12368396Y32506109D01*
X12563619Y32561654D01*
X12572668Y32563346D01*
X12774767Y32582073D01*
X12783983Y32582073D01*
X12986082Y32563346D01*
X12995131Y32561654D01*
X13190354Y32506109D01*
X13198948Y32502779D01*
X13380631Y32412312D01*
X13388461Y32407464D01*
X13503563Y32320543D01*
X13511295Y32309396D01*
X13511236Y32307335D01*
X13508546Y32303100D01*
X13303523Y32098077D01*
X13278992Y32120164D01*
X13125101Y32209014D01*
X12956100Y32263925D01*
X12779375Y32282500D01*
X12602650Y32263925D01*
X12433649Y32209014D01*
X12279758Y32120164D01*
X12255227Y32098077D01*
X12255227Y30766923D01*
X12279758Y30744836D01*
X12433649Y30655986D01*
X12602650Y30601075D01*
X12779375Y30582500D01*
X12956100Y30601075D01*
X13125101Y30655986D01*
X13278992Y30744836D01*
X13303523Y30766923D01*
X13505017Y30565429D01*
X13511136Y30553317D01*
X13510794Y30551288D01*
X13507543Y30547463D01*
X13388461Y30457536D01*
X13380631Y30452688D01*
X13198948Y30362221D01*
X13190354Y30358891D01*
X12995131Y30303346D01*
X12986082Y30301654D01*
X12783983Y30282927D01*
X12774767Y30282927D01*
X12774767Y17242073D01*
X12783983Y17242073D01*
X12967707Y17225049D01*
X12976756Y17223357D01*
X13154230Y17172862D01*
X13162824Y17169532D01*
X13327988Y17087290D01*
X13335818Y17082443D01*
X13483061Y16971249D01*
X13489874Y16965037D01*
X13614179Y16828682D01*
X13619725Y16821338D01*
X13656362Y16762166D01*
X13656362Y30701078D01*
X13651863Y30701625D01*
X13651246Y30702058D01*
X13444089Y30909215D01*
X13515497Y31007500D01*
X13587773Y31169836D01*
X13624719Y31343651D01*
X13624719Y31521349D01*
X13587773Y31695164D01*
X13515497Y31857500D01*
X13444089Y31955785D01*
X13646066Y32157762D01*
X13658178Y32163881D01*
X13662643Y32163127D01*
X13663244Y32162663D01*
X13693981Y32128946D01*
X13699527Y32121602D01*
X13806377Y31949033D01*
X13810486Y31940781D01*
X13883803Y31751524D01*
X13886324Y31742667D01*
X13923620Y31543153D01*
X13924469Y31533988D01*
X13924469Y31331012D01*
X13923620Y31321847D01*
X13886324Y31122333D01*
X13883803Y31113476D01*
X13810486Y30924219D01*
X13806377Y30915967D01*
X13699527Y30743398D01*
X13693981Y30736054D01*
X13668177Y30707749D01*
X13656362Y30701078D01*
X13656362Y16762166D01*
X13716866Y16664449D01*
X13720964Y16656219D01*
X13787620Y16484163D01*
X13790143Y16475295D01*
X13824047Y16293926D01*
X13824896Y16284761D01*
X13824896Y16100239D01*
X13824047Y16091074D01*
X13790143Y15909705D01*
X13787620Y15900837D01*
X13720964Y15728781D01*
X13716866Y15720551D01*
X13619725Y15563662D01*
X13614179Y15556318D01*
X13489874Y15419963D01*
X13483061Y15413751D01*
X13335818Y15302557D01*
X13327988Y15297710D01*
X13162824Y15215468D01*
X13154230Y15212138D01*
X12976756Y15161643D01*
X12967707Y15159951D01*
X12783983Y15142927D01*
X12774767Y15142927D01*
X12774767Y300000D01*
X15314767Y300000D01*
X15314767Y15142927D01*
X15131043Y15159951D01*
X15121994Y15161643D01*
X14944520Y15212138D01*
X14935926Y15215468D01*
X14770762Y15297710D01*
X14762932Y15302557D01*
X14615689Y15413751D01*
X14608876Y15419963D01*
X14484571Y15556318D01*
X14479025Y15563662D01*
X14381884Y15720551D01*
X14377786Y15728781D01*
X14311130Y15900837D01*
X14308607Y15909705D01*
X14274703Y16091074D01*
X14273854Y16100239D01*
X14273854Y16284761D01*
X14274703Y16293926D01*
X14308607Y16475295D01*
X14311130Y16484163D01*
X14377786Y16656219D01*
X14381884Y16664449D01*
X14479025Y16821338D01*
X14484571Y16828682D01*
X14608876Y16965037D01*
X14615689Y16971249D01*
X14762932Y17082443D01*
X14770762Y17087290D01*
X14935926Y17169532D01*
X14944520Y17172862D01*
X15121994Y17223357D01*
X15131043Y17225049D01*
X15314767Y17242073D01*
X15314767Y30382927D01*
X15131043Y30399951D01*
X15121994Y30401643D01*
X14944520Y30452138D01*
X14935926Y30455468D01*
X14770762Y30537710D01*
X14762932Y30542557D01*
X14615689Y30653751D01*
X14608876Y30659963D01*
X14484571Y30796318D01*
X14479025Y30803662D01*
X14381884Y30960551D01*
X14377786Y30968781D01*
X14311130Y31140837D01*
X14308607Y31149705D01*
X14274703Y31331074D01*
X14273854Y31340239D01*
X14273854Y31524761D01*
X14274703Y31533926D01*
X14308607Y31715295D01*
X14311130Y31724163D01*
X14377786Y31896219D01*
X14381884Y31904449D01*
X14479025Y32061338D01*
X14484571Y32068682D01*
X14608876Y32205037D01*
X14615689Y32211249D01*
X14762932Y32322443D01*
X14770762Y32327290D01*
X14935926Y32409532D01*
X14944520Y32412862D01*
X15121994Y32463357D01*
X15131043Y32465049D01*
X15314767Y32482073D01*
X15323983Y32482073D01*
X15507707Y32465049D01*
X15516756Y32463357D01*
X15694230Y32412862D01*
X15702824Y32409532D01*
X15867988Y32327290D01*
X15875818Y32322443D01*
X16023061Y32211249D01*
X16029874Y32205037D01*
X16154179Y32068682D01*
X16159725Y32061338D01*
X16256866Y31904449D01*
X16260964Y31896219D01*
X16327620Y31724163D01*
X16330143Y31715295D01*
X16364047Y31533926D01*
X16364896Y31524761D01*
X16364896Y31340239D01*
X16364047Y31331074D01*
X16330143Y31149705D01*
X16327620Y31140837D01*
X16260964Y30968781D01*
X16256866Y30960551D01*
X16159725Y30803662D01*
X16154179Y30796318D01*
X16029874Y30659963D01*
X16023061Y30653751D01*
X15875818Y30542557D01*
X15867988Y30537710D01*
X15702824Y30455468D01*
X15694230Y30452138D01*
X15516756Y30401643D01*
X15507707Y30399951D01*
X15323983Y30382927D01*
X15314767Y30382927D01*
X15314767Y17242073D01*
X15323983Y17242073D01*
X15507707Y17225049D01*
X15516756Y17223357D01*
X15694230Y17172862D01*
X15702824Y17169532D01*
X15867988Y17087290D01*
X15875818Y17082443D01*
X16023061Y16971249D01*
X16029874Y16965037D01*
X16154179Y16828682D01*
X16159725Y16821338D01*
X16256866Y16664449D01*
X16260964Y16656219D01*
X16327620Y16484163D01*
X16330143Y16475295D01*
X16364047Y16293926D01*
X16364896Y16284761D01*
X16364896Y16100239D01*
X16364047Y16091074D01*
X16330143Y15909705D01*
X16327620Y15900837D01*
X16260964Y15728781D01*
X16256866Y15720551D01*
X16159725Y15563662D01*
X16154179Y15556318D01*
X16029874Y15419963D01*
X16023061Y15413751D01*
X15875818Y15302557D01*
X15867988Y15297710D01*
X15702824Y15215468D01*
X15694230Y15212138D01*
X15516756Y15161643D01*
X15507707Y15159951D01*
X15323983Y15142927D01*
X15314767Y15142927D01*
X15314767Y300000D01*
X16980572Y300000D01*
X16980572Y15461119D01*
X16976107Y15461873D01*
X16975506Y15462337D01*
X16944769Y15496054D01*
X16939223Y15503398D01*
X16832373Y15675967D01*
X16828264Y15684219D01*
X16754947Y15873476D01*
X16752426Y15882333D01*
X16715130Y16081847D01*
X16714281Y16091012D01*
X16714281Y16293988D01*
X16715130Y16303153D01*
X16752426Y16502667D01*
X16754947Y16511524D01*
X16828264Y16700781D01*
X16832373Y16709033D01*
X16939223Y16881602D01*
X16944769Y16888946D01*
X16970573Y16917251D01*
X16982388Y16923922D01*
X16986887Y16923375D01*
X16987504Y16922942D01*
X17194661Y16715785D01*
X17123253Y16617500D01*
X17050977Y16455164D01*
X17014031Y16281349D01*
X17014031Y16103651D01*
X17050977Y15929836D01*
X17123253Y15767500D01*
X17194661Y15669215D01*
X16992684Y15467238D01*
X16980572Y15461119D01*
X16980572Y300000D01*
X17854767Y300000D01*
X17854767Y15042927D01*
X17652668Y15061654D01*
X17643619Y15063346D01*
X17448396Y15118891D01*
X17439802Y15122221D01*
X17258119Y15212688D01*
X17250289Y15217536D01*
X17135187Y15304457D01*
X17127455Y15315604D01*
X17127514Y15317665D01*
X17130204Y15321900D01*
X17335227Y15526923D01*
X17335227Y16858077D01*
X17133733Y17059571D01*
X17127614Y17071683D01*
X17127956Y17073712D01*
X17131207Y17077537D01*
X17250289Y17167464D01*
X17258119Y17172312D01*
X17439802Y17262779D01*
X17448396Y17266109D01*
X17643619Y17321654D01*
X17652668Y17323346D01*
X17854767Y17342073D01*
X17854767Y30382927D01*
X17671043Y30399951D01*
X17661994Y30401643D01*
X17484520Y30452138D01*
X17475926Y30455468D01*
X17310762Y30537710D01*
X17302932Y30542557D01*
X17155689Y30653751D01*
X17148876Y30659963D01*
X17024571Y30796318D01*
X17019025Y30803662D01*
X16921884Y30960551D01*
X16917786Y30968781D01*
X16851130Y31140837D01*
X16848607Y31149705D01*
X16814703Y31331074D01*
X16813854Y31340239D01*
X16813854Y31524761D01*
X16814703Y31533926D01*
X16848607Y31715295D01*
X16851130Y31724163D01*
X16917786Y31896219D01*
X16921884Y31904449D01*
X17019025Y32061338D01*
X17024571Y32068682D01*
X17148876Y32205037D01*
X17155689Y32211249D01*
X17302932Y32322443D01*
X17310762Y32327290D01*
X17475926Y32409532D01*
X17484520Y32412862D01*
X17531164Y32426133D01*
X17531164Y44373125D01*
X17521433Y44374083D01*
X17459373Y44386428D01*
X17441523Y44393821D01*
X17393017Y44426233D01*
X17379358Y44439892D01*
X17346946Y44488398D01*
X17339553Y44506248D01*
X17327208Y44568308D01*
X17326250Y44578039D01*
X17326250Y46068211D01*
X17327208Y46077942D01*
X17339553Y46140002D01*
X17346946Y46157852D01*
X17379358Y46206358D01*
X17393017Y46220017D01*
X17441523Y46252429D01*
X17459373Y46259822D01*
X17521433Y46272167D01*
X17531164Y46273125D01*
X19021336Y46273125D01*
X19031067Y46272167D01*
X19093127Y46259822D01*
X19110977Y46252429D01*
X19159483Y46220017D01*
X19173142Y46206358D01*
X19205554Y46157852D01*
X19212947Y46140002D01*
X19225292Y46077942D01*
X19226250Y46068211D01*
X19226250Y44578039D01*
X19225292Y44568308D01*
X19212947Y44506248D01*
X19205554Y44488398D01*
X19173142Y44439892D01*
X19159483Y44426233D01*
X19110977Y44393821D01*
X19093127Y44386428D01*
X19031067Y44374083D01*
X19021336Y44373125D01*
X17531164Y44373125D01*
X17531164Y32426133D01*
X17661994Y32463357D01*
X17671043Y32465049D01*
X17854767Y32482073D01*
X17863983Y32482073D01*
X18047707Y32465049D01*
X18056756Y32463357D01*
X18234230Y32412862D01*
X18242824Y32409532D01*
X18407988Y32327290D01*
X18415818Y32322443D01*
X18563061Y32211249D01*
X18569874Y32205037D01*
X18638556Y32129697D01*
X18638556Y35871603D01*
X18634091Y35872357D01*
X18633491Y35872821D01*
X18612070Y35896319D01*
X18606525Y35903662D01*
X18509384Y36060551D01*
X18505286Y36068781D01*
X18438630Y36240837D01*
X18436107Y36249705D01*
X18402203Y36431074D01*
X18401354Y36440239D01*
X18401354Y36624761D01*
X18402203Y36633926D01*
X18436107Y36815295D01*
X18438630Y36824163D01*
X18505286Y36996219D01*
X18509384Y37004449D01*
X18606525Y37161338D01*
X18612070Y37168681D01*
X18628558Y37186768D01*
X18640372Y37193439D01*
X18644868Y37192892D01*
X18645492Y37192454D01*
X18701789Y37136157D01*
X18701789Y38082500D01*
X18692058Y38083458D01*
X18629998Y38095803D01*
X18612148Y38103196D01*
X18563642Y38135608D01*
X18549983Y38149267D01*
X18517571Y38197773D01*
X18510178Y38215623D01*
X18497833Y38277683D01*
X18496875Y38287414D01*
X18496875Y39777586D01*
X18497833Y39787317D01*
X18510178Y39849377D01*
X18517571Y39867227D01*
X18549983Y39915733D01*
X18563642Y39929392D01*
X18612148Y39961804D01*
X18629998Y39969197D01*
X18692058Y39981542D01*
X18701789Y39982500D01*
X19968158Y39982500D01*
X19968158Y44662455D01*
X19966129Y44662797D01*
X19962304Y44666048D01*
X19886307Y44766682D01*
X19881460Y44774512D01*
X19799218Y44939676D01*
X19795888Y44948270D01*
X19745393Y45125744D01*
X19743701Y45134793D01*
X19726677Y45318517D01*
X19726677Y45327733D01*
X19743701Y45511457D01*
X19745393Y45520506D01*
X19795888Y45697980D01*
X19799218Y45706574D01*
X19881460Y45871738D01*
X19886307Y45879568D01*
X19959298Y45976222D01*
X19970445Y45983954D01*
X19972506Y45983895D01*
X19976741Y45981205D01*
X20181127Y45776819D01*
X20100523Y45648538D01*
X20045054Y45490016D01*
X20026250Y45323125D01*
X20045054Y45156234D01*
X20100523Y44997712D01*
X20181127Y44869431D01*
X19980270Y44668574D01*
X19968158Y44662455D01*
X19968158Y39982500D01*
X20191961Y39982500D01*
X20201692Y39981542D01*
X20263752Y39969197D01*
X20281602Y39961804D01*
X20330108Y39929392D01*
X20343767Y39915733D01*
X20376179Y39867227D01*
X20383572Y39849377D01*
X20395917Y39787317D01*
X20396875Y39777586D01*
X20396875Y38287414D01*
X20395917Y38277683D01*
X20383572Y38215623D01*
X20376179Y38197773D01*
X20343767Y38149267D01*
X20330108Y38135608D01*
X20281602Y38103196D01*
X20263752Y38095803D01*
X20201692Y38083458D01*
X20191961Y38082500D01*
X18701789Y38082500D01*
X18701789Y37136157D01*
X18851752Y36986194D01*
X18771148Y36857913D01*
X18715679Y36699391D01*
X18696875Y36532500D01*
X18715679Y36365609D01*
X18771148Y36207087D01*
X18851752Y36078806D01*
X18650668Y35877722D01*
X18638556Y35871603D01*
X18638556Y32129697D01*
X18694179Y32068682D01*
X18699725Y32061338D01*
X18796866Y31904449D01*
X18800964Y31896219D01*
X18867620Y31724163D01*
X18870143Y31715295D01*
X18904047Y31533926D01*
X18904896Y31524761D01*
X18904896Y31340239D01*
X18904047Y31331074D01*
X18870143Y31149705D01*
X18867620Y31140837D01*
X18800964Y30968781D01*
X18796866Y30960551D01*
X18699725Y30803662D01*
X18694179Y30796318D01*
X18569874Y30659963D01*
X18563061Y30653751D01*
X18415818Y30542557D01*
X18407988Y30537710D01*
X18242824Y30455468D01*
X18234230Y30452138D01*
X18056756Y30401643D01*
X18047707Y30399951D01*
X17863983Y30382927D01*
X17854767Y30382927D01*
X17854767Y17342073D01*
X17863983Y17342073D01*
X18066082Y17323346D01*
X18075131Y17321654D01*
X18270354Y17266109D01*
X18278948Y17262779D01*
X18460631Y17172312D01*
X18468461Y17167464D01*
X18583563Y17080543D01*
X18591295Y17069396D01*
X18591236Y17067335D01*
X18588546Y17063100D01*
X18383523Y16858077D01*
X18358992Y16880164D01*
X18205101Y16969014D01*
X18036100Y17023925D01*
X17859375Y17042500D01*
X17682650Y17023925D01*
X17513649Y16969014D01*
X17359758Y16880164D01*
X17335227Y16858077D01*
X17335227Y15526923D01*
X17359758Y15504836D01*
X17513649Y15415986D01*
X17682650Y15361075D01*
X17859375Y15342500D01*
X18036100Y15361075D01*
X18205101Y15415986D01*
X18358992Y15504836D01*
X18383523Y15526923D01*
X18585017Y15325429D01*
X18591136Y15313317D01*
X18590794Y15311288D01*
X18587543Y15307463D01*
X18468461Y15217536D01*
X18460631Y15212688D01*
X18278948Y15122221D01*
X18270354Y15118891D01*
X18075131Y15063346D01*
X18066082Y15061654D01*
X17863983Y15042927D01*
X17854767Y15042927D01*
X17854767Y300000D01*
X18830181Y300000D01*
X18830181Y3603750D01*
X18822368Y3604365D01*
X18741319Y3617202D01*
X18726532Y3622006D01*
X18656924Y3657473D01*
X18644351Y3666608D01*
X18589108Y3721851D01*
X18579973Y3734424D01*
X18544506Y3804032D01*
X18539702Y3818819D01*
X18526865Y3899868D01*
X18526250Y3907681D01*
X18526250Y4487732D01*
X18527816Y4492497D01*
X18542263Y4499796D01*
X18542263Y4703755D01*
X18537498Y4705321D01*
X18526250Y4727583D01*
X18526250Y5299819D01*
X18526865Y5307632D01*
X18539702Y5388681D01*
X18544506Y5403468D01*
X18579973Y5473076D01*
X18589108Y5485649D01*
X18644351Y5540892D01*
X18656924Y5550027D01*
X18726532Y5585494D01*
X18741319Y5590298D01*
X18822368Y5603135D01*
X18830181Y5603750D01*
X19410232Y5603750D01*
X19414997Y5602184D01*
X19426245Y5579922D01*
X19426245Y5303750D01*
X18826250Y5303750D01*
X18826250Y4703755D01*
X18542263Y4703755D01*
X18542263Y4499796D01*
X18550078Y4503745D01*
X18826250Y4503745D01*
X18826250Y3903750D01*
X19426245Y3903750D01*
X19426245Y3619763D01*
X19424679Y3614998D01*
X19402417Y3603750D01*
X18830181Y3603750D01*
X18830181Y300000D01*
X19437412Y300000D01*
X19437412Y6248680D01*
X19427052Y6249769D01*
X19253261Y6286710D01*
X19243348Y6289930D01*
X19081041Y6362194D01*
X19072007Y6367410D01*
X18928270Y6471841D01*
X18920526Y6478814D01*
X18801639Y6610851D01*
X18795518Y6619276D01*
X18706677Y6773153D01*
X18702441Y6782668D01*
X18647536Y6951648D01*
X18645369Y6961840D01*
X18626798Y7138536D01*
X18626798Y7148964D01*
X18645369Y7325660D01*
X18647536Y7335852D01*
X18702441Y7504832D01*
X18706677Y7514347D01*
X18736362Y7565762D01*
X18736362Y15461078D01*
X18731863Y15461625D01*
X18731246Y15462058D01*
X18524089Y15669215D01*
X18595497Y15767500D01*
X18667773Y15929836D01*
X18704719Y16103651D01*
X18704719Y16281349D01*
X18667773Y16455164D01*
X18595497Y16617500D01*
X18524089Y16715785D01*
X18726066Y16917762D01*
X18738178Y16923881D01*
X18742643Y16923127D01*
X18743244Y16922663D01*
X18773981Y16888946D01*
X18779527Y16881602D01*
X18886377Y16709033D01*
X18890486Y16700781D01*
X18963803Y16511524D01*
X18966324Y16502667D01*
X19003620Y16303153D01*
X19004469Y16293988D01*
X19004469Y16091012D01*
X19003620Y16081847D01*
X18966324Y15882333D01*
X18963803Y15873476D01*
X18890486Y15684219D01*
X18886377Y15675967D01*
X18779527Y15503398D01*
X18773981Y15496054D01*
X18748177Y15467749D01*
X18736362Y15461078D01*
X18736362Y7565762D01*
X18795518Y7668224D01*
X18801639Y7676649D01*
X18920526Y7808686D01*
X18928270Y7815659D01*
X19072007Y7920090D01*
X19081041Y7925306D01*
X19243348Y7997570D01*
X19253261Y8000790D01*
X19427052Y8037731D01*
X19437412Y8038820D01*
X19615088Y8038820D01*
X19625448Y8037731D01*
X19799239Y8000790D01*
X19809152Y7997570D01*
X19971459Y7925306D01*
X19980493Y7920090D01*
X20124230Y7815659D01*
X20131974Y7808686D01*
X20250861Y7676649D01*
X20256982Y7668224D01*
X20345823Y7514347D01*
X20350059Y7504832D01*
X20394767Y7367235D01*
X20394767Y15142927D01*
X20211043Y15159951D01*
X20201994Y15161643D01*
X20024520Y15212138D01*
X20015926Y15215468D01*
X19850762Y15297710D01*
X19842932Y15302557D01*
X19695689Y15413751D01*
X19688876Y15419963D01*
X19564571Y15556318D01*
X19559025Y15563662D01*
X19461884Y15720551D01*
X19457786Y15728781D01*
X19391130Y15900837D01*
X19388607Y15909705D01*
X19354703Y16091074D01*
X19353854Y16100239D01*
X19353854Y16284761D01*
X19354703Y16293926D01*
X19388607Y16475295D01*
X19391130Y16484163D01*
X19457786Y16656219D01*
X19461884Y16664449D01*
X19559025Y16821338D01*
X19564571Y16828682D01*
X19688876Y16965037D01*
X19695689Y16971249D01*
X19842932Y17082443D01*
X19850762Y17087290D01*
X20015926Y17169532D01*
X20024520Y17172862D01*
X20201994Y17223357D01*
X20211043Y17225049D01*
X20394767Y17242073D01*
X20394767Y30382927D01*
X20211043Y30399951D01*
X20201994Y30401643D01*
X20024520Y30452138D01*
X20015926Y30455468D01*
X19850762Y30537710D01*
X19842932Y30542557D01*
X19695689Y30653751D01*
X19688876Y30659963D01*
X19564571Y30796318D01*
X19559025Y30803662D01*
X19461884Y30960551D01*
X19457786Y30968781D01*
X19391130Y31140837D01*
X19388607Y31149705D01*
X19354703Y31331074D01*
X19353854Y31340239D01*
X19353854Y31524761D01*
X19354703Y31533926D01*
X19388607Y31715295D01*
X19391130Y31724163D01*
X19442267Y31856160D01*
X19442267Y35482927D01*
X19258543Y35499951D01*
X19249494Y35501643D01*
X19072020Y35552138D01*
X19063426Y35555468D01*
X18898262Y35637710D01*
X18890432Y35642557D01*
X18793778Y35715548D01*
X18786046Y35726695D01*
X18786105Y35728756D01*
X18788795Y35732991D01*
X18993181Y35937377D01*
X18993181Y37127623D01*
X18792324Y37328480D01*
X18786205Y37340592D01*
X18786547Y37342621D01*
X18789798Y37346446D01*
X18890432Y37422443D01*
X18898262Y37427290D01*
X19063426Y37509532D01*
X19072020Y37512862D01*
X19249494Y37563357D01*
X19258543Y37565049D01*
X19442267Y37582073D01*
X19451483Y37582073D01*
X19635207Y37565049D01*
X19644256Y37563357D01*
X19821730Y37512862D01*
X19830324Y37509532D01*
X19995488Y37427290D01*
X20003318Y37422443D01*
X20099972Y37349452D01*
X20107704Y37338305D01*
X20107645Y37336244D01*
X20104955Y37332009D01*
X19900569Y37127623D01*
X19772288Y37208227D01*
X19613766Y37263696D01*
X19446875Y37282500D01*
X19279984Y37263696D01*
X19121462Y37208227D01*
X18993181Y37127623D01*
X18993181Y35937377D01*
X19121462Y35856773D01*
X19279984Y35801304D01*
X19446875Y35782500D01*
X19613766Y35801304D01*
X19772288Y35856773D01*
X19900569Y35937377D01*
X20101426Y35736520D01*
X20107545Y35724408D01*
X20107203Y35722379D01*
X20103952Y35718554D01*
X20003318Y35642557D01*
X19995488Y35637710D01*
X19830324Y35555468D01*
X19821730Y35552138D01*
X19644256Y35501643D01*
X19635207Y35499951D01*
X19451483Y35482927D01*
X19442267Y35482927D01*
X19442267Y31856160D01*
X19457786Y31896219D01*
X19461884Y31904449D01*
X19559025Y32061338D01*
X19564571Y32068682D01*
X19688876Y32205037D01*
X19695689Y32211249D01*
X19842932Y32322443D01*
X19850762Y32327290D01*
X20015926Y32409532D01*
X20024520Y32412862D01*
X20201994Y32463357D01*
X20211043Y32465049D01*
X20253378Y32468971D01*
X20253378Y35871561D01*
X20248882Y35872108D01*
X20248258Y35872546D01*
X20041998Y36078806D01*
X20122602Y36207087D01*
X20178071Y36365609D01*
X20196875Y36532500D01*
X20178071Y36699391D01*
X20122602Y36857913D01*
X20041998Y36986194D01*
X20243082Y37187278D01*
X20255194Y37193397D01*
X20259659Y37192643D01*
X20260259Y37192179D01*
X20281680Y37168681D01*
X20287225Y37161338D01*
X20384366Y37004449D01*
X20388464Y36996219D01*
X20455120Y36824163D01*
X20457643Y36815295D01*
X20491547Y36633926D01*
X20492396Y36624761D01*
X20492396Y36440239D01*
X20491547Y36431074D01*
X20457643Y36249705D01*
X20455120Y36240837D01*
X20388464Y36068781D01*
X20384366Y36060551D01*
X20287225Y35903662D01*
X20281680Y35896319D01*
X20265192Y35878232D01*
X20253378Y35871561D01*
X20253378Y32468971D01*
X20394767Y32482073D01*
X20403983Y32482073D01*
X20587707Y32465049D01*
X20596756Y32463357D01*
X20683989Y32438537D01*
X20683989Y44277604D01*
X20674824Y44278453D01*
X20493455Y44312357D01*
X20484587Y44314880D01*
X20312531Y44381536D01*
X20304301Y44385634D01*
X20147412Y44482775D01*
X20140069Y44488320D01*
X20121982Y44504808D01*
X20115311Y44516622D01*
X20115858Y44521118D01*
X20116296Y44521742D01*
X20322556Y44728002D01*
X20322556Y45918248D01*
X20121472Y46119332D01*
X20115353Y46131444D01*
X20116107Y46135909D01*
X20116571Y46136509D01*
X20140069Y46157930D01*
X20147412Y46163475D01*
X20304301Y46260616D01*
X20312531Y46264714D01*
X20484587Y46331370D01*
X20493455Y46333893D01*
X20674824Y46367797D01*
X20683989Y46368646D01*
X20868511Y46368646D01*
X20877676Y46367797D01*
X21059045Y46333893D01*
X21067913Y46331370D01*
X21239969Y46264714D01*
X21248199Y46260616D01*
X21405088Y46163475D01*
X21412431Y46157930D01*
X21430518Y46141442D01*
X21437189Y46129628D01*
X21436642Y46125132D01*
X21436204Y46124508D01*
X21229944Y45918248D01*
X21101663Y45998852D01*
X20943141Y46054321D01*
X20776250Y46073125D01*
X20609359Y46054321D01*
X20450837Y45998852D01*
X20322556Y45918248D01*
X20322556Y44728002D01*
X20450837Y44647398D01*
X20609359Y44591929D01*
X20776250Y44573125D01*
X20943141Y44591929D01*
X21101663Y44647398D01*
X21229944Y44728002D01*
X21431028Y44526918D01*
X21437147Y44514806D01*
X21436393Y44510341D01*
X21435929Y44509741D01*
X21412431Y44488320D01*
X21405088Y44482775D01*
X21248199Y44385634D01*
X21239969Y44381536D01*
X21067913Y44314880D01*
X21059045Y44312357D01*
X20877676Y44278453D01*
X20868511Y44277604D01*
X20683989Y44277604D01*
X20683989Y32438537D01*
X20774230Y32412862D01*
X20782824Y32409532D01*
X20947988Y32327290D01*
X20955818Y32322443D01*
X21103061Y32211249D01*
X21109874Y32205037D01*
X21234179Y32068682D01*
X21239725Y32061338D01*
X21336866Y31904449D01*
X21340964Y31896219D01*
X21407620Y31724163D01*
X21410143Y31715295D01*
X21444047Y31533926D01*
X21444896Y31524761D01*
X21444896Y31340239D01*
X21444047Y31331074D01*
X21410143Y31149705D01*
X21407620Y31140837D01*
X21340964Y30968781D01*
X21336866Y30960551D01*
X21239725Y30803662D01*
X21234179Y30796318D01*
X21109874Y30659963D01*
X21103061Y30653751D01*
X20955818Y30542557D01*
X20947988Y30537710D01*
X20782824Y30455468D01*
X20774230Y30452138D01*
X20596756Y30401643D01*
X20587707Y30399951D01*
X20403983Y30382927D01*
X20394767Y30382927D01*
X20394767Y17242073D01*
X20403983Y17242073D01*
X20587707Y17225049D01*
X20596756Y17223357D01*
X20774230Y17172862D01*
X20782824Y17169532D01*
X20947988Y17087290D01*
X20955818Y17082443D01*
X21103061Y16971249D01*
X21109874Y16965037D01*
X21234179Y16828682D01*
X21239725Y16821338D01*
X21336866Y16664449D01*
X21340964Y16656219D01*
X21407620Y16484163D01*
X21410143Y16475295D01*
X21444047Y16293926D01*
X21444896Y16284761D01*
X21444896Y16100239D01*
X21444047Y16091074D01*
X21410143Y15909705D01*
X21407620Y15900837D01*
X21340964Y15728781D01*
X21336866Y15720551D01*
X21239725Y15563662D01*
X21234179Y15556318D01*
X21109874Y15419963D01*
X21103061Y15413751D01*
X20955818Y15302557D01*
X20947988Y15297710D01*
X20782824Y15215468D01*
X20774230Y15212138D01*
X20596756Y15161643D01*
X20587707Y15159951D01*
X20403983Y15142927D01*
X20394767Y15142927D01*
X20394767Y7367235D01*
X20404964Y7335852D01*
X20407131Y7325660D01*
X20425702Y7148964D01*
X20425702Y7138536D01*
X20407131Y6961840D01*
X20404964Y6951648D01*
X20350059Y6782668D01*
X20345823Y6773153D01*
X20256982Y6619276D01*
X20250861Y6610851D01*
X20131974Y6478814D01*
X20124230Y6471841D01*
X19980493Y6367410D01*
X19971459Y6362194D01*
X19809152Y6289930D01*
X19799239Y6286710D01*
X19625448Y6249769D01*
X19615088Y6248680D01*
X19437412Y6248680D01*
X19437412Y300000D01*
X19642268Y300000D01*
X19642268Y3603750D01*
X19637503Y3605316D01*
X19626255Y3627578D01*
X19626255Y3903750D01*
X20226250Y3903750D01*
X20226250Y4503745D01*
X20226250Y4703755D01*
X20226250Y5303750D01*
X19626255Y5303750D01*
X19626255Y5587737D01*
X19627821Y5592502D01*
X19650083Y5603750D01*
X20222319Y5603750D01*
X20230132Y5603135D01*
X20311181Y5590298D01*
X20325968Y5585494D01*
X20395576Y5550027D01*
X20408149Y5540892D01*
X20463392Y5485649D01*
X20472527Y5473076D01*
X20507994Y5403468D01*
X20512798Y5388681D01*
X20525635Y5307632D01*
X20526250Y5299819D01*
X20526250Y4719768D01*
X20524684Y4715003D01*
X20502422Y4703755D01*
X20226250Y4703755D01*
X20226250Y4503745D01*
X20510237Y4503745D01*
X20515002Y4502179D01*
X20526250Y4479917D01*
X20526250Y3907681D01*
X20525635Y3899868D01*
X20512798Y3818819D01*
X20507994Y3804032D01*
X20472527Y3734424D01*
X20463392Y3721851D01*
X20408149Y3666608D01*
X20395576Y3657473D01*
X20325968Y3622006D01*
X20311181Y3617202D01*
X20230132Y3604365D01*
X20222319Y3603750D01*
X19642268Y3603750D01*
X19642268Y300000D01*
X21582055Y300000D01*
X21582055Y44662296D01*
X21579994Y44662355D01*
X21575759Y44665045D01*
X21371373Y44869431D01*
X21451977Y44997712D01*
X21507446Y45156234D01*
X21526250Y45323125D01*
X21507446Y45490016D01*
X21451977Y45648538D01*
X21371373Y45776819D01*
X21572230Y45977676D01*
X21584342Y45983795D01*
X21586371Y45983453D01*
X21590196Y45980202D01*
X21666193Y45879568D01*
X21671040Y45871738D01*
X21753282Y45706574D01*
X21756612Y45697980D01*
X21807107Y45520506D01*
X21808799Y45511457D01*
X21825823Y45327733D01*
X21825823Y45318517D01*
X21808799Y45134793D01*
X21807107Y45125744D01*
X21756612Y44948270D01*
X21753282Y44939676D01*
X21671040Y44774512D01*
X21666193Y44766682D01*
X21593202Y44670028D01*
X21582055Y44662296D01*
X21582055Y300000D01*
X22934767Y300000D01*
X22934767Y15142927D01*
X22751043Y15159951D01*
X22741994Y15161643D01*
X22564520Y15212138D01*
X22555926Y15215468D01*
X22390762Y15297710D01*
X22382932Y15302557D01*
X22235689Y15413751D01*
X22228876Y15419963D01*
X22104571Y15556318D01*
X22099025Y15563662D01*
X22001884Y15720551D01*
X21997786Y15728781D01*
X21931130Y15900837D01*
X21928607Y15909705D01*
X21894703Y16091074D01*
X21893854Y16100239D01*
X21893854Y16284761D01*
X21894703Y16293926D01*
X21928607Y16475295D01*
X21931130Y16484163D01*
X21997786Y16656219D01*
X22001884Y16664449D01*
X22099025Y16821338D01*
X22104571Y16828682D01*
X22228876Y16965037D01*
X22235689Y16971249D01*
X22382932Y17082443D01*
X22390762Y17087290D01*
X22555926Y17169532D01*
X22564520Y17172862D01*
X22741994Y17223357D01*
X22751043Y17225049D01*
X22934767Y17242073D01*
X22934767Y30382927D01*
X22751043Y30399951D01*
X22741994Y30401643D01*
X22564520Y30452138D01*
X22555926Y30455468D01*
X22390762Y30537710D01*
X22382932Y30542557D01*
X22235689Y30653751D01*
X22228876Y30659963D01*
X22104571Y30796318D01*
X22099025Y30803662D01*
X22001884Y30960551D01*
X21997786Y30968781D01*
X21931130Y31140837D01*
X21928607Y31149705D01*
X21894703Y31331074D01*
X21893854Y31340239D01*
X21893854Y31524761D01*
X21894703Y31533926D01*
X21928607Y31715295D01*
X21931130Y31724163D01*
X21997786Y31896219D01*
X22001884Y31904449D01*
X22099025Y32061338D01*
X22104571Y32068682D01*
X22228876Y32205037D01*
X22235689Y32211249D01*
X22382932Y32322443D01*
X22390762Y32327290D01*
X22555926Y32409532D01*
X22564520Y32412862D01*
X22741994Y32463357D01*
X22751043Y32465049D01*
X22934767Y32482073D01*
X22943983Y32482073D01*
X23127707Y32465049D01*
X23136756Y32463357D01*
X23314230Y32412862D01*
X23322824Y32409532D01*
X23487988Y32327290D01*
X23495818Y32322443D01*
X23643061Y32211249D01*
X23649874Y32205037D01*
X23774179Y32068682D01*
X23779725Y32061338D01*
X23876866Y31904449D01*
X23880964Y31896219D01*
X23947620Y31724163D01*
X23950143Y31715295D01*
X23984047Y31533926D01*
X23984896Y31524761D01*
X23984896Y31340239D01*
X23984047Y31331074D01*
X23950143Y31149705D01*
X23947620Y31140837D01*
X23880964Y30968781D01*
X23876866Y30960551D01*
X23779725Y30803662D01*
X23774179Y30796318D01*
X23649874Y30659963D01*
X23643061Y30653751D01*
X23495818Y30542557D01*
X23487988Y30537710D01*
X23322824Y30455468D01*
X23314230Y30452138D01*
X23136756Y30401643D01*
X23127707Y30399951D01*
X22943983Y30382927D01*
X22934767Y30382927D01*
X22934767Y17242073D01*
X22943983Y17242073D01*
X23127707Y17225049D01*
X23136756Y17223357D01*
X23314230Y17172862D01*
X23322824Y17169532D01*
X23487988Y17087290D01*
X23495818Y17082443D01*
X23643061Y16971249D01*
X23649874Y16965037D01*
X23774179Y16828682D01*
X23779725Y16821338D01*
X23876866Y16664449D01*
X23880964Y16656219D01*
X23947620Y16484163D01*
X23950143Y16475295D01*
X23984047Y16293926D01*
X23984896Y16284761D01*
X23984896Y16100239D01*
X23984047Y16091074D01*
X23950143Y15909705D01*
X23947620Y15900837D01*
X23880964Y15728781D01*
X23876866Y15720551D01*
X23779725Y15563662D01*
X23774179Y15556318D01*
X23649874Y15419963D01*
X23643061Y15413751D01*
X23495818Y15302557D01*
X23487988Y15297710D01*
X23322824Y15215468D01*
X23314230Y15212138D01*
X23136756Y15161643D01*
X23127707Y15159951D01*
X22943983Y15142927D01*
X22934767Y15142927D01*
X22934767Y300000D01*
X25474767Y300000D01*
X25474767Y15142927D01*
X25291043Y15159951D01*
X25281994Y15161643D01*
X25104520Y15212138D01*
X25095926Y15215468D01*
X24930762Y15297710D01*
X24922932Y15302557D01*
X24775689Y15413751D01*
X24768876Y15419963D01*
X24644571Y15556318D01*
X24639025Y15563662D01*
X24541884Y15720551D01*
X24537786Y15728781D01*
X24471130Y15900837D01*
X24468607Y15909705D01*
X24434703Y16091074D01*
X24433854Y16100239D01*
X24433854Y16284761D01*
X24434703Y16293926D01*
X24468607Y16475295D01*
X24471130Y16484163D01*
X24537786Y16656219D01*
X24541884Y16664449D01*
X24639025Y16821338D01*
X24644571Y16828682D01*
X24768876Y16965037D01*
X24775689Y16971249D01*
X24922932Y17082443D01*
X24930762Y17087290D01*
X25095926Y17169532D01*
X25104520Y17172862D01*
X25281994Y17223357D01*
X25291043Y17225049D01*
X25474767Y17242073D01*
X25474767Y30382927D01*
X25291043Y30399951D01*
X25281994Y30401643D01*
X25104520Y30452138D01*
X25095926Y30455468D01*
X24930762Y30537710D01*
X24922932Y30542557D01*
X24775689Y30653751D01*
X24768876Y30659963D01*
X24644571Y30796318D01*
X24639025Y30803662D01*
X24541884Y30960551D01*
X24537786Y30968781D01*
X24471130Y31140837D01*
X24468607Y31149705D01*
X24434703Y31331074D01*
X24433854Y31340239D01*
X24433854Y31524761D01*
X24434703Y31533926D01*
X24468607Y31715295D01*
X24471130Y31724163D01*
X24537786Y31896219D01*
X24541884Y31904449D01*
X24639025Y32061338D01*
X24644571Y32068682D01*
X24768876Y32205037D01*
X24775689Y32211249D01*
X24922932Y32322443D01*
X24930762Y32327290D01*
X25095926Y32409532D01*
X25104520Y32412862D01*
X25281994Y32463357D01*
X25291043Y32465049D01*
X25474767Y32482073D01*
X25483983Y32482073D01*
X25667707Y32465049D01*
X25676756Y32463357D01*
X25854230Y32412862D01*
X25862824Y32409532D01*
X26027988Y32327290D01*
X26035818Y32322443D01*
X26183061Y32211249D01*
X26189874Y32205037D01*
X26314179Y32068682D01*
X26319725Y32061338D01*
X26416866Y31904449D01*
X26420964Y31896219D01*
X26487620Y31724163D01*
X26490143Y31715295D01*
X26524047Y31533926D01*
X26524896Y31524761D01*
X26524896Y31340239D01*
X26524047Y31331074D01*
X26490143Y31149705D01*
X26487620Y31140837D01*
X26420964Y30968781D01*
X26416866Y30960551D01*
X26319725Y30803662D01*
X26314179Y30796318D01*
X26189874Y30659963D01*
X26183061Y30653751D01*
X26035818Y30542557D01*
X26027988Y30537710D01*
X25862824Y30455468D01*
X25854230Y30452138D01*
X25676756Y30401643D01*
X25667707Y30399951D01*
X25483983Y30382927D01*
X25474767Y30382927D01*
X25474767Y17242073D01*
X25483983Y17242073D01*
X25667707Y17225049D01*
X25676756Y17223357D01*
X25854230Y17172862D01*
X25862824Y17169532D01*
X26027988Y17087290D01*
X26035818Y17082443D01*
X26183061Y16971249D01*
X26189874Y16965037D01*
X26314179Y16828682D01*
X26319725Y16821338D01*
X26416866Y16664449D01*
X26420964Y16656219D01*
X26487620Y16484163D01*
X26490143Y16475295D01*
X26524047Y16293926D01*
X26524896Y16284761D01*
X26524896Y16100239D01*
X26524047Y16091074D01*
X26490143Y15909705D01*
X26487620Y15900837D01*
X26420964Y15728781D01*
X26416866Y15720551D01*
X26319725Y15563662D01*
X26314179Y15556318D01*
X26189874Y15419963D01*
X26183061Y15413751D01*
X26035818Y15302557D01*
X26027988Y15297710D01*
X25862824Y15215468D01*
X25854230Y15212138D01*
X25676756Y15161643D01*
X25667707Y15159951D01*
X25483983Y15142927D01*
X25474767Y15142927D01*
X25474767Y300000D01*
X27617606Y300000D01*
X27617606Y9369232D01*
X27442057Y9386522D01*
X27432460Y9388431D01*
X27263657Y9439636D01*
X27254613Y9443383D01*
X27099042Y9526537D01*
X27090910Y9531971D01*
X26954547Y9643882D01*
X26947632Y9650797D01*
X26835721Y9787160D01*
X26830287Y9795292D01*
X26747133Y9950863D01*
X26743386Y9959907D01*
X26692181Y10128710D01*
X26690272Y10138307D01*
X26672982Y10313856D01*
X26672982Y10323644D01*
X26690272Y10499193D01*
X26692181Y10508790D01*
X26743386Y10677593D01*
X26747133Y10686637D01*
X26830287Y10842208D01*
X26835721Y10850340D01*
X26947632Y10986703D01*
X26954547Y10993618D01*
X27090910Y11105529D01*
X27099042Y11110963D01*
X27254613Y11194117D01*
X27263657Y11197864D01*
X27432460Y11249069D01*
X27442057Y11250978D01*
X27617606Y11268268D01*
X27627394Y11268268D01*
X27802943Y11250978D01*
X27812540Y11249069D01*
X27981343Y11197864D01*
X27990387Y11194117D01*
X28014767Y11181085D01*
X28014767Y15142927D01*
X27831043Y15159951D01*
X27821994Y15161643D01*
X27644520Y15212138D01*
X27635926Y15215468D01*
X27470762Y15297710D01*
X27462932Y15302557D01*
X27315689Y15413751D01*
X27308876Y15419963D01*
X27184571Y15556318D01*
X27179025Y15563662D01*
X27081884Y15720551D01*
X27077786Y15728781D01*
X27011130Y15900837D01*
X27008607Y15909705D01*
X26974703Y16091074D01*
X26973854Y16100239D01*
X26973854Y16284761D01*
X26974703Y16293926D01*
X27008607Y16475295D01*
X27011130Y16484163D01*
X27077786Y16656219D01*
X27081884Y16664449D01*
X27179025Y16821338D01*
X27184571Y16828682D01*
X27308876Y16965037D01*
X27315689Y16971249D01*
X27462932Y17082443D01*
X27470762Y17087290D01*
X27635926Y17169532D01*
X27644520Y17172862D01*
X27821994Y17223357D01*
X27831043Y17225049D01*
X28014767Y17242073D01*
X28014767Y30382927D01*
X27831043Y30399951D01*
X27821994Y30401643D01*
X27644520Y30452138D01*
X27635926Y30455468D01*
X27470762Y30537710D01*
X27462932Y30542557D01*
X27315689Y30653751D01*
X27308876Y30659963D01*
X27184571Y30796318D01*
X27179025Y30803662D01*
X27081884Y30960551D01*
X27077786Y30968781D01*
X27011130Y31140837D01*
X27008607Y31149705D01*
X26974703Y31331074D01*
X26973854Y31340239D01*
X26973854Y31524761D01*
X26974703Y31533926D01*
X27008607Y31715295D01*
X27011130Y31724163D01*
X27077786Y31896219D01*
X27081884Y31904449D01*
X27179025Y32061338D01*
X27184571Y32068682D01*
X27308876Y32205037D01*
X27315689Y32211249D01*
X27353664Y32239926D01*
X27353664Y50187500D01*
X27343933Y50188458D01*
X27281873Y50200803D01*
X27264023Y50208196D01*
X27215517Y50240608D01*
X27201858Y50254267D01*
X27169446Y50302773D01*
X27162053Y50320623D01*
X27149708Y50382683D01*
X27148750Y50392414D01*
X27148750Y51882586D01*
X27149708Y51892317D01*
X27162053Y51954377D01*
X27169446Y51972227D01*
X27201858Y52020733D01*
X27215517Y52034392D01*
X27264023Y52066804D01*
X27281873Y52074197D01*
X27290431Y52075899D01*
X27290431Y52976603D01*
X27285966Y52977357D01*
X27285366Y52977821D01*
X27263945Y53001319D01*
X27258404Y53008656D01*
X27161259Y53165551D01*
X27157161Y53173781D01*
X27090505Y53345837D01*
X27087982Y53354705D01*
X27054078Y53536074D01*
X27053229Y53545239D01*
X27053229Y53729761D01*
X27054078Y53738926D01*
X27087982Y53920295D01*
X27090505Y53929163D01*
X27157161Y54101219D01*
X27161259Y54109449D01*
X27258400Y54266338D01*
X27263945Y54273681D01*
X27280433Y54291768D01*
X27292247Y54298439D01*
X27296743Y54297892D01*
X27297367Y54297454D01*
X27503627Y54091194D01*
X27423023Y53962913D01*
X27367554Y53804391D01*
X27348750Y53637500D01*
X27367554Y53470609D01*
X27423023Y53312087D01*
X27503627Y53183806D01*
X27302543Y52982722D01*
X27290431Y52976603D01*
X27290431Y52075899D01*
X27343933Y52086542D01*
X27353664Y52087500D01*
X28094142Y52087500D01*
X28094142Y52587927D01*
X27910418Y52604951D01*
X27901369Y52606643D01*
X27723895Y52657138D01*
X27715301Y52660468D01*
X27550137Y52742710D01*
X27542307Y52747557D01*
X27445653Y52820548D01*
X27437921Y52831695D01*
X27437980Y52833756D01*
X27440670Y52837991D01*
X27645056Y53042377D01*
X27645056Y54232623D01*
X27444199Y54433480D01*
X27438080Y54445592D01*
X27438422Y54447621D01*
X27441673Y54451446D01*
X27542307Y54527443D01*
X27550137Y54532290D01*
X27715301Y54614532D01*
X27723895Y54617862D01*
X27901369Y54668357D01*
X27910418Y54670049D01*
X28094142Y54687073D01*
X28103358Y54687073D01*
X28287082Y54670049D01*
X28296131Y54668357D01*
X28473605Y54617862D01*
X28482199Y54614532D01*
X28647363Y54532290D01*
X28655193Y54527443D01*
X28751847Y54454452D01*
X28759579Y54443305D01*
X28759520Y54441244D01*
X28756830Y54437009D01*
X28552444Y54232623D01*
X28424163Y54313227D01*
X28265641Y54368696D01*
X28098750Y54387500D01*
X27931859Y54368696D01*
X27773337Y54313227D01*
X27645056Y54232623D01*
X27645056Y53042377D01*
X27773337Y52961773D01*
X27931859Y52906304D01*
X28098750Y52887500D01*
X28265641Y52906304D01*
X28424163Y52961773D01*
X28552444Y53042377D01*
X28753301Y52841520D01*
X28759420Y52829408D01*
X28759078Y52827379D01*
X28755827Y52823554D01*
X28655193Y52747557D01*
X28647363Y52742710D01*
X28482199Y52660468D01*
X28473605Y52657138D01*
X28296131Y52606643D01*
X28287082Y52604951D01*
X28103358Y52587927D01*
X28094142Y52587927D01*
X28094142Y52087500D01*
X28843836Y52087500D01*
X28853567Y52086542D01*
X28905253Y52076260D01*
X28905253Y52976561D01*
X28900757Y52977108D01*
X28900133Y52977546D01*
X28693873Y53183806D01*
X28774477Y53312087D01*
X28829946Y53470609D01*
X28848750Y53637500D01*
X28829946Y53804391D01*
X28774477Y53962913D01*
X28693873Y54091194D01*
X28894957Y54292278D01*
X28907069Y54298397D01*
X28911534Y54297643D01*
X28912134Y54297179D01*
X28933555Y54273681D01*
X28939100Y54266338D01*
X29036241Y54109449D01*
X29040339Y54101219D01*
X29106995Y53929163D01*
X29109518Y53920295D01*
X29143422Y53738926D01*
X29144271Y53729761D01*
X29144271Y53545239D01*
X29143422Y53536074D01*
X29109518Y53354705D01*
X29106995Y53345837D01*
X29040339Y53173781D01*
X29036241Y53165551D01*
X28939096Y53008656D01*
X28933555Y53001319D01*
X28917067Y52983232D01*
X28905253Y52976561D01*
X28905253Y52076260D01*
X28915627Y52074197D01*
X28933477Y52066804D01*
X28981983Y52034392D01*
X28995642Y52020733D01*
X29028054Y51972227D01*
X29035447Y51954377D01*
X29047792Y51892317D01*
X29048750Y51882586D01*
X29048750Y50392414D01*
X29047792Y50382683D01*
X29035447Y50320623D01*
X29028054Y50302773D01*
X28995642Y50254267D01*
X28981983Y50240608D01*
X28933477Y50208196D01*
X28915627Y50200803D01*
X28853567Y50188458D01*
X28843836Y50187500D01*
X27353664Y50187500D01*
X27353664Y32239926D01*
X27462932Y32322443D01*
X27470762Y32327290D01*
X27635926Y32409532D01*
X27644520Y32412862D01*
X27821994Y32463357D01*
X27831043Y32465049D01*
X28014767Y32482073D01*
X28023983Y32482073D01*
X28207707Y32465049D01*
X28216756Y32463357D01*
X28394230Y32412862D01*
X28402824Y32409532D01*
X28567988Y32327290D01*
X28575818Y32322443D01*
X28723061Y32211249D01*
X28729874Y32205037D01*
X28854179Y32068682D01*
X28859725Y32061338D01*
X28956866Y31904449D01*
X28960964Y31896219D01*
X29027620Y31724163D01*
X29030143Y31715295D01*
X29064047Y31533926D01*
X29064896Y31524761D01*
X29064896Y31340239D01*
X29064047Y31331074D01*
X29030143Y31149705D01*
X29027620Y31140837D01*
X28960964Y30968781D01*
X28956866Y30960551D01*
X28859725Y30803662D01*
X28854179Y30796318D01*
X28729874Y30659963D01*
X28723061Y30653751D01*
X28575818Y30542557D01*
X28567988Y30537710D01*
X28402824Y30455468D01*
X28394230Y30452138D01*
X28216756Y30401643D01*
X28207707Y30399951D01*
X28023983Y30382927D01*
X28014767Y30382927D01*
X28014767Y17242073D01*
X28023983Y17242073D01*
X28207707Y17225049D01*
X28216756Y17223357D01*
X28394230Y17172862D01*
X28402824Y17169532D01*
X28567988Y17087290D01*
X28575818Y17082443D01*
X28723061Y16971249D01*
X28729874Y16965037D01*
X28854179Y16828682D01*
X28859725Y16821338D01*
X28956866Y16664449D01*
X28960964Y16656219D01*
X29027620Y16484163D01*
X29030143Y16475295D01*
X29064047Y16293926D01*
X29064896Y16284761D01*
X29064896Y16100239D01*
X29064047Y16091074D01*
X29030143Y15909705D01*
X29027620Y15900837D01*
X28960964Y15728781D01*
X28956866Y15720551D01*
X28859725Y15563662D01*
X28854179Y15556318D01*
X28729874Y15419963D01*
X28723061Y15413751D01*
X28575818Y15302557D01*
X28567988Y15297710D01*
X28402824Y15215468D01*
X28394230Y15212138D01*
X28216756Y15161643D01*
X28207707Y15159951D01*
X28023983Y15142927D01*
X28014767Y15142927D01*
X28014767Y11181085D01*
X28145958Y11110963D01*
X28154090Y11105529D01*
X28290453Y10993618D01*
X28297368Y10986703D01*
X28409279Y10850340D01*
X28414713Y10842208D01*
X28497867Y10686637D01*
X28501614Y10677593D01*
X28552819Y10508790D01*
X28554728Y10499193D01*
X28572018Y10323644D01*
X28572018Y10313856D01*
X28554728Y10138307D01*
X28552819Y10128710D01*
X28501614Y9959907D01*
X28497867Y9950863D01*
X28414713Y9795292D01*
X28409279Y9787160D01*
X28297368Y9650797D01*
X28290453Y9643882D01*
X28154090Y9531971D01*
X28145958Y9526537D01*
X27990387Y9443383D01*
X27981343Y9439636D01*
X27812540Y9388431D01*
X27802943Y9386522D01*
X27627394Y9369232D01*
X27617606Y9369232D01*
X27617606Y300000D01*
X30554767Y300000D01*
X30554767Y15142927D01*
X30371043Y15159951D01*
X30361994Y15161643D01*
X30184520Y15212138D01*
X30175926Y15215468D01*
X30010762Y15297710D01*
X30002932Y15302557D01*
X29855689Y15413751D01*
X29848876Y15419963D01*
X29724571Y15556318D01*
X29719025Y15563662D01*
X29621884Y15720551D01*
X29617786Y15728781D01*
X29551130Y15900837D01*
X29548607Y15909705D01*
X29514703Y16091074D01*
X29513854Y16100239D01*
X29513854Y16284761D01*
X29514703Y16293926D01*
X29548607Y16475295D01*
X29551130Y16484163D01*
X29617786Y16656219D01*
X29621884Y16664449D01*
X29719025Y16821338D01*
X29724571Y16828682D01*
X29848876Y16965037D01*
X29855689Y16971249D01*
X30002932Y17082443D01*
X30010762Y17087290D01*
X30175926Y17169532D01*
X30184520Y17172862D01*
X30361994Y17223357D01*
X30371043Y17225049D01*
X30554767Y17242073D01*
X30554767Y30382927D01*
X30371043Y30399951D01*
X30361994Y30401643D01*
X30184520Y30452138D01*
X30175926Y30455468D01*
X30010762Y30537710D01*
X30002932Y30542557D01*
X29855689Y30653751D01*
X29848876Y30659963D01*
X29724571Y30796318D01*
X29719025Y30803662D01*
X29621884Y30960551D01*
X29617786Y30968781D01*
X29551130Y31140837D01*
X29548607Y31149705D01*
X29514703Y31331074D01*
X29513854Y31340239D01*
X29513854Y31524761D01*
X29514703Y31533926D01*
X29548607Y31715295D01*
X29551130Y31724163D01*
X29617786Y31896219D01*
X29621884Y31904449D01*
X29719025Y32061338D01*
X29724571Y32068682D01*
X29848876Y32205037D01*
X29855689Y32211249D01*
X30002932Y32322443D01*
X30010762Y32327290D01*
X30175926Y32409532D01*
X30184520Y32412862D01*
X30361994Y32463357D01*
X30371043Y32465049D01*
X30554767Y32482073D01*
X30563983Y32482073D01*
X30747707Y32465049D01*
X30756756Y32463357D01*
X30934230Y32412862D01*
X30942824Y32409532D01*
X31107988Y32327290D01*
X31115818Y32322443D01*
X31263061Y32211249D01*
X31269874Y32205037D01*
X31394179Y32068682D01*
X31399725Y32061338D01*
X31496866Y31904449D01*
X31500964Y31896219D01*
X31567620Y31724163D01*
X31570143Y31715295D01*
X31604047Y31533926D01*
X31604896Y31524761D01*
X31604896Y31340239D01*
X31604047Y31331074D01*
X31570143Y31149705D01*
X31567620Y31140837D01*
X31500964Y30968781D01*
X31496866Y30960551D01*
X31399725Y30803662D01*
X31394179Y30796318D01*
X31269874Y30659963D01*
X31263061Y30653751D01*
X31115818Y30542557D01*
X31107988Y30537710D01*
X30942824Y30455468D01*
X30934230Y30452138D01*
X30756756Y30401643D01*
X30747707Y30399951D01*
X30563983Y30382927D01*
X30554767Y30382927D01*
X30554767Y17242073D01*
X30563983Y17242073D01*
X30747707Y17225049D01*
X30756756Y17223357D01*
X30934230Y17172862D01*
X30942824Y17169532D01*
X31107988Y17087290D01*
X31115818Y17082443D01*
X31263061Y16971249D01*
X31269874Y16965037D01*
X31394179Y16828682D01*
X31399725Y16821338D01*
X31496866Y16664449D01*
X31500964Y16656219D01*
X31567620Y16484163D01*
X31570143Y16475295D01*
X31604047Y16293926D01*
X31604896Y16284761D01*
X31604896Y16100239D01*
X31604047Y16091074D01*
X31570143Y15909705D01*
X31567620Y15900837D01*
X31500964Y15728781D01*
X31496866Y15720551D01*
X31399725Y15563662D01*
X31394179Y15556318D01*
X31269874Y15419963D01*
X31263061Y15413751D01*
X31115818Y15302557D01*
X31107988Y15297710D01*
X30942824Y15215468D01*
X30934230Y15212138D01*
X30756756Y15161643D01*
X30747707Y15159951D01*
X30563983Y15142927D01*
X30554767Y15142927D01*
X30554767Y300000D01*
X33094767Y300000D01*
X33094767Y15142927D01*
X32911043Y15159951D01*
X32901994Y15161643D01*
X32724520Y15212138D01*
X32715926Y15215468D01*
X32550762Y15297710D01*
X32542932Y15302557D01*
X32395689Y15413751D01*
X32388876Y15419963D01*
X32264571Y15556318D01*
X32259025Y15563662D01*
X32161884Y15720551D01*
X32157786Y15728781D01*
X32091130Y15900837D01*
X32088607Y15909705D01*
X32054703Y16091074D01*
X32053854Y16100239D01*
X32053854Y16284761D01*
X32054703Y16293926D01*
X32088607Y16475295D01*
X32091130Y16484163D01*
X32157786Y16656219D01*
X32161884Y16664449D01*
X32259025Y16821338D01*
X32264571Y16828682D01*
X32388876Y16965037D01*
X32395689Y16971249D01*
X32542932Y17082443D01*
X32550762Y17087290D01*
X32715926Y17169532D01*
X32724520Y17172862D01*
X32901994Y17223357D01*
X32911043Y17225049D01*
X33094767Y17242073D01*
X33094767Y30382927D01*
X32911043Y30399951D01*
X32901994Y30401643D01*
X32724520Y30452138D01*
X32715926Y30455468D01*
X32550762Y30537710D01*
X32542932Y30542557D01*
X32395689Y30653751D01*
X32388876Y30659963D01*
X32264571Y30796318D01*
X32259025Y30803662D01*
X32161884Y30960551D01*
X32157786Y30968781D01*
X32091130Y31140837D01*
X32088607Y31149705D01*
X32054703Y31331074D01*
X32053854Y31340239D01*
X32053854Y31524761D01*
X32054703Y31533926D01*
X32088607Y31715295D01*
X32091130Y31724163D01*
X32157786Y31896219D01*
X32161884Y31904449D01*
X32259025Y32061338D01*
X32264571Y32068682D01*
X32388876Y32205037D01*
X32395689Y32211249D01*
X32542932Y32322443D01*
X32550762Y32327290D01*
X32693037Y32398134D01*
X32693037Y34664930D01*
X32682677Y34666019D01*
X32508886Y34702960D01*
X32498973Y34706180D01*
X32336666Y34778444D01*
X32327632Y34783660D01*
X32183895Y34888091D01*
X32176151Y34895064D01*
X32057264Y35027101D01*
X32051143Y35035526D01*
X31962302Y35189403D01*
X31958066Y35198918D01*
X31903161Y35367898D01*
X31900994Y35378090D01*
X31882423Y35554786D01*
X31882423Y35565214D01*
X31900994Y35741910D01*
X31903161Y35752102D01*
X31958066Y35921082D01*
X31962302Y35930597D01*
X32051143Y36084474D01*
X32057264Y36092899D01*
X32086789Y36125689D01*
X32086789Y37200000D01*
X32077058Y37200958D01*
X32014998Y37213303D01*
X31997148Y37220696D01*
X31948642Y37253108D01*
X31934983Y37266767D01*
X31902571Y37315273D01*
X31895178Y37333123D01*
X31882833Y37395183D01*
X31881875Y37404914D01*
X31881875Y38795086D01*
X31882833Y38804817D01*
X31895178Y38866877D01*
X31902571Y38884727D01*
X31934983Y38933233D01*
X31948642Y38946892D01*
X31997148Y38979304D01*
X32014998Y38986697D01*
X32077058Y38999042D01*
X32086789Y39000000D01*
X33476961Y39000000D01*
X33486692Y38999042D01*
X33548752Y38986697D01*
X33566602Y38979304D01*
X33615108Y38946892D01*
X33628767Y38933233D01*
X33661179Y38884727D01*
X33668572Y38866877D01*
X33680917Y38804817D01*
X33681875Y38795086D01*
X33681875Y37404914D01*
X33680917Y37395183D01*
X33668572Y37333123D01*
X33661179Y37315273D01*
X33628767Y37266767D01*
X33615108Y37253108D01*
X33566602Y37220696D01*
X33548752Y37213303D01*
X33486692Y37200958D01*
X33476961Y37200000D01*
X32086789Y37200000D01*
X32086789Y36125689D01*
X32176151Y36224936D01*
X32183895Y36231909D01*
X32327632Y36336340D01*
X32336666Y36341556D01*
X32498973Y36413820D01*
X32508886Y36417040D01*
X32682677Y36453981D01*
X32693037Y36455070D01*
X32870713Y36455070D01*
X32881073Y36453981D01*
X33054864Y36417040D01*
X33064777Y36413820D01*
X33227084Y36341556D01*
X33236118Y36336340D01*
X33379855Y36231909D01*
X33387599Y36224936D01*
X33506486Y36092899D01*
X33512607Y36084474D01*
X33601448Y35930597D01*
X33605684Y35921082D01*
X33660589Y35752102D01*
X33662756Y35741910D01*
X33681327Y35565214D01*
X33681327Y35554786D01*
X33662756Y35378090D01*
X33660589Y35367898D01*
X33605684Y35198918D01*
X33601448Y35189403D01*
X33512607Y35035526D01*
X33506486Y35027101D01*
X33387599Y34895064D01*
X33379855Y34888091D01*
X33236118Y34783660D01*
X33227084Y34778444D01*
X33064777Y34706180D01*
X33054864Y34702960D01*
X32881073Y34666019D01*
X32870713Y34664930D01*
X32693037Y34664930D01*
X32693037Y32398134D01*
X32715926Y32409532D01*
X32724520Y32412862D01*
X32901994Y32463357D01*
X32911043Y32465049D01*
X33094767Y32482073D01*
X33103983Y32482073D01*
X33287707Y32465049D01*
X33296756Y32463357D01*
X33474230Y32412862D01*
X33482824Y32409532D01*
X33647988Y32327290D01*
X33655818Y32322443D01*
X33803061Y32211249D01*
X33809874Y32205037D01*
X33934179Y32068682D01*
X33939725Y32061338D01*
X34036866Y31904449D01*
X34040964Y31896219D01*
X34107620Y31724163D01*
X34110143Y31715295D01*
X34144047Y31533926D01*
X34144896Y31524761D01*
X34144896Y31340239D01*
X34144047Y31331074D01*
X34110143Y31149705D01*
X34107620Y31140837D01*
X34040964Y30968781D01*
X34036866Y30960551D01*
X33939725Y30803662D01*
X33934179Y30796318D01*
X33809874Y30659963D01*
X33803061Y30653751D01*
X33655818Y30542557D01*
X33647988Y30537710D01*
X33482824Y30455468D01*
X33474230Y30452138D01*
X33296756Y30401643D01*
X33287707Y30399951D01*
X33103983Y30382927D01*
X33094767Y30382927D01*
X33094767Y17242073D01*
X33103983Y17242073D01*
X33287707Y17225049D01*
X33296756Y17223357D01*
X33474230Y17172862D01*
X33482824Y17169532D01*
X33647988Y17087290D01*
X33655818Y17082443D01*
X33803061Y16971249D01*
X33809874Y16965037D01*
X33934179Y16828682D01*
X33939725Y16821338D01*
X34036866Y16664449D01*
X34040964Y16656219D01*
X34107620Y16484163D01*
X34110143Y16475295D01*
X34144047Y16293926D01*
X34144896Y16284761D01*
X34144896Y16100239D01*
X34144047Y16091074D01*
X34110143Y15909705D01*
X34107620Y15900837D01*
X34040964Y15728781D01*
X34036866Y15720551D01*
X33939725Y15563662D01*
X33934179Y15556318D01*
X33809874Y15419963D01*
X33803061Y15413751D01*
X33655818Y15302557D01*
X33647988Y15297710D01*
X33482824Y15215468D01*
X33474230Y15212138D01*
X33296756Y15161643D01*
X33287707Y15159951D01*
X33103983Y15142927D01*
X33094767Y15142927D01*
X33094767Y300000D01*
X35634767Y300000D01*
X35634767Y15142927D01*
X35451043Y15159951D01*
X35441994Y15161643D01*
X35264520Y15212138D01*
X35255926Y15215468D01*
X35090762Y15297710D01*
X35082932Y15302557D01*
X34935689Y15413751D01*
X34928876Y15419963D01*
X34804571Y15556318D01*
X34799025Y15563662D01*
X34701884Y15720551D01*
X34697786Y15728781D01*
X34631130Y15900837D01*
X34628607Y15909705D01*
X34594703Y16091074D01*
X34593854Y16100239D01*
X34593854Y16284761D01*
X34594703Y16293926D01*
X34628607Y16475295D01*
X34631130Y16484163D01*
X34697786Y16656219D01*
X34701884Y16664449D01*
X34799025Y16821338D01*
X34804571Y16828682D01*
X34928876Y16965037D01*
X34935689Y16971249D01*
X35082932Y17082443D01*
X35090762Y17087290D01*
X35255926Y17169532D01*
X35264520Y17172862D01*
X35441994Y17223357D01*
X35451043Y17225049D01*
X35634767Y17242073D01*
X35634767Y30382927D01*
X35451043Y30399951D01*
X35441994Y30401643D01*
X35264520Y30452138D01*
X35255926Y30455468D01*
X35090762Y30537710D01*
X35082932Y30542557D01*
X34935689Y30653751D01*
X34928876Y30659963D01*
X34804571Y30796318D01*
X34799025Y30803662D01*
X34701884Y30960551D01*
X34697786Y30968781D01*
X34631130Y31140837D01*
X34628607Y31149705D01*
X34594703Y31331074D01*
X34593854Y31340239D01*
X34593854Y31524761D01*
X34594703Y31533926D01*
X34628607Y31715295D01*
X34631130Y31724163D01*
X34697786Y31896219D01*
X34701884Y31904449D01*
X34799025Y32061338D01*
X34804571Y32068682D01*
X34928876Y32205037D01*
X34935689Y32211249D01*
X35082932Y32322443D01*
X35090762Y32327290D01*
X35132414Y32348030D01*
X35132414Y40186250D01*
X35122683Y40187208D01*
X35060623Y40199553D01*
X35042773Y40206946D01*
X34994267Y40239358D01*
X34980608Y40253017D01*
X34948196Y40301523D01*
X34940803Y40319373D01*
X34928458Y40381433D01*
X34927500Y40391164D01*
X34927500Y41881336D01*
X34928458Y41891067D01*
X34940803Y41953127D01*
X34948196Y41970977D01*
X34980608Y42019483D01*
X34994267Y42033142D01*
X35042773Y42065554D01*
X35060623Y42072947D01*
X35069181Y42074649D01*
X35069181Y42975353D01*
X35064716Y42976107D01*
X35064116Y42976571D01*
X35042695Y43000069D01*
X35037150Y43007412D01*
X34940009Y43164301D01*
X34935911Y43172531D01*
X34869255Y43344587D01*
X34866732Y43353455D01*
X34832828Y43534824D01*
X34831979Y43543989D01*
X34831979Y43728511D01*
X34832828Y43737676D01*
X34866732Y43919045D01*
X34869255Y43927913D01*
X34935911Y44099969D01*
X34940009Y44108199D01*
X35037150Y44265088D01*
X35042695Y44272431D01*
X35059183Y44290518D01*
X35070997Y44297189D01*
X35075493Y44296642D01*
X35076117Y44296204D01*
X35282377Y44089944D01*
X35201773Y43961663D01*
X35146304Y43803141D01*
X35127500Y43636250D01*
X35146304Y43469359D01*
X35201773Y43310837D01*
X35282377Y43182556D01*
X35081293Y42981472D01*
X35069181Y42975353D01*
X35069181Y42074649D01*
X35122683Y42085292D01*
X35132414Y42086250D01*
X35872892Y42086250D01*
X35872892Y42586677D01*
X35689168Y42603701D01*
X35680119Y42605393D01*
X35502645Y42655888D01*
X35494051Y42659218D01*
X35328887Y42741460D01*
X35321057Y42746307D01*
X35224403Y42819298D01*
X35216671Y42830445D01*
X35216730Y42832506D01*
X35219420Y42836741D01*
X35423806Y43041127D01*
X35423806Y44231373D01*
X35222949Y44432230D01*
X35216830Y44444342D01*
X35217172Y44446371D01*
X35220423Y44450196D01*
X35321057Y44526193D01*
X35328887Y44531040D01*
X35494051Y44613282D01*
X35502645Y44616612D01*
X35555645Y44631691D01*
X35555645Y48822381D01*
X35353200Y48840093D01*
X35344625Y48841604D01*
X35148312Y48894206D01*
X35140153Y48897177D01*
X34955960Y48983066D01*
X34948419Y48987420D01*
X34781945Y49103986D01*
X34775285Y49109575D01*
X34631575Y49253285D01*
X34625986Y49259945D01*
X34509420Y49426419D01*
X34505066Y49433960D01*
X34419177Y49618153D01*
X34416206Y49626312D01*
X34363604Y49822625D01*
X34362093Y49831200D01*
X34344381Y50033645D01*
X34344381Y50042355D01*
X34362093Y50244800D01*
X34363604Y50253375D01*
X34416206Y50449688D01*
X34419177Y50457847D01*
X34505066Y50642040D01*
X34509420Y50649581D01*
X34562760Y50725758D01*
X34562760Y51982182D01*
X34560344Y51982590D01*
X34557004Y51985386D01*
X34460835Y52108945D01*
X34456315Y52115864D01*
X34356811Y52299731D01*
X34353501Y52307276D01*
X34285612Y52505030D01*
X34283588Y52513023D01*
X34249175Y52719249D01*
X34248495Y52727458D01*
X34248495Y52936542D01*
X34249175Y52944751D01*
X34283588Y53150977D01*
X34285612Y53158970D01*
X34353501Y53356724D01*
X34356811Y53364269D01*
X34456315Y53548136D01*
X34460835Y53555055D01*
X34553715Y53674387D01*
X34564974Y53681956D01*
X34567425Y53681850D01*
X34571081Y53679490D01*
X34777830Y53472741D01*
X34715227Y53396459D01*
X34621338Y53220806D01*
X34563522Y53030212D01*
X34544000Y52832000D01*
X34563522Y52633788D01*
X34621338Y52443194D01*
X34715227Y52267541D01*
X34777830Y52191259D01*
X34574872Y51988301D01*
X34562760Y51982182D01*
X34562760Y50725758D01*
X34625986Y50816055D01*
X34631575Y50822715D01*
X34775285Y50966425D01*
X34781945Y50972014D01*
X34948419Y51088580D01*
X34955960Y51092934D01*
X35140153Y51178823D01*
X35148312Y51181794D01*
X35344625Y51234396D01*
X35353200Y51235907D01*
X35555645Y51253619D01*
X35555873Y51253619D01*
X35555873Y51516342D01*
X35347514Y51533608D01*
X35339388Y51534963D01*
X35136705Y51586290D01*
X35128907Y51588967D01*
X34937447Y51672949D01*
X34930187Y51676877D01*
X34755159Y51791229D01*
X34748653Y51796293D01*
X34717255Y51825196D01*
X34710639Y51837046D01*
X34711224Y51841668D01*
X34711529Y51842100D01*
X34919259Y52049830D01*
X34919259Y53614170D01*
X34716795Y53816634D01*
X34710676Y53828746D01*
X34711451Y53833338D01*
X34711776Y53833760D01*
X34748653Y53867707D01*
X34755159Y53872771D01*
X34930187Y53987123D01*
X34937447Y53991051D01*
X35128907Y54075033D01*
X35136704Y54077710D01*
X35339388Y54129037D01*
X35347514Y54130392D01*
X35555873Y54147658D01*
X35564127Y54147658D01*
X35772486Y54130392D01*
X35780612Y54129037D01*
X35983295Y54077710D01*
X35991093Y54075033D01*
X36182553Y53991051D01*
X36189813Y53987123D01*
X36364841Y53872771D01*
X36371347Y53867707D01*
X36402745Y53838804D01*
X36409361Y53826954D01*
X36408776Y53822332D01*
X36408471Y53821900D01*
X36200741Y53614170D01*
X36124459Y53676773D01*
X35948806Y53770662D01*
X35758212Y53828478D01*
X35560000Y53848000D01*
X35361788Y53828478D01*
X35171194Y53770662D01*
X34995541Y53676773D01*
X34919259Y53614170D01*
X34919259Y52049830D01*
X34995541Y51987227D01*
X35171194Y51893338D01*
X35361788Y51835522D01*
X35560000Y51816000D01*
X35758212Y51835522D01*
X35948806Y51893338D01*
X36124459Y51987227D01*
X36200741Y52049830D01*
X36403205Y51847366D01*
X36409324Y51835254D01*
X36408549Y51830662D01*
X36408224Y51830240D01*
X36371347Y51796293D01*
X36364841Y51791229D01*
X36189813Y51676877D01*
X36182553Y51672949D01*
X35991093Y51588967D01*
X35983296Y51586290D01*
X35780612Y51534963D01*
X35772486Y51533608D01*
X35564127Y51516342D01*
X35555873Y51516342D01*
X35555873Y51253619D01*
X35564355Y51253619D01*
X35766800Y51235907D01*
X35775375Y51234396D01*
X35971688Y51181794D01*
X35979847Y51178823D01*
X36164040Y51092934D01*
X36171581Y51088580D01*
X36338055Y50972014D01*
X36344715Y50966425D01*
X36488425Y50822715D01*
X36494014Y50816055D01*
X36555026Y50728920D01*
X36555026Y51982044D01*
X36552575Y51982150D01*
X36548919Y51984510D01*
X36342170Y52191259D01*
X36404773Y52267541D01*
X36498662Y52443194D01*
X36556478Y52633788D01*
X36576000Y52832000D01*
X36556478Y53030212D01*
X36498662Y53220806D01*
X36404773Y53396459D01*
X36342170Y53472741D01*
X36545128Y53675699D01*
X36557240Y53681818D01*
X36559656Y53681410D01*
X36562996Y53678614D01*
X36659165Y53555055D01*
X36663685Y53548136D01*
X36763189Y53364269D01*
X36766499Y53356724D01*
X36834388Y53158970D01*
X36836412Y53150977D01*
X36870825Y52944751D01*
X36871505Y52936542D01*
X36871505Y52727458D01*
X36870825Y52719249D01*
X36836412Y52513023D01*
X36834388Y52505030D01*
X36766499Y52307276D01*
X36763189Y52299731D01*
X36663685Y52115864D01*
X36659165Y52108945D01*
X36566285Y51989613D01*
X36555026Y51982044D01*
X36555026Y50728920D01*
X36610580Y50649581D01*
X36614934Y50642040D01*
X36700823Y50457847D01*
X36703794Y50449688D01*
X36756396Y50253375D01*
X36757907Y50244800D01*
X36775619Y50042355D01*
X36775619Y50033645D01*
X36757907Y49831200D01*
X36756396Y49822625D01*
X36703794Y49626312D01*
X36700823Y49618153D01*
X36614934Y49433960D01*
X36610580Y49426419D01*
X36494014Y49259945D01*
X36488425Y49253285D01*
X36344715Y49109575D01*
X36338055Y49103986D01*
X36171581Y48987420D01*
X36164040Y48983066D01*
X35979847Y48897177D01*
X35971688Y48894206D01*
X35775375Y48841604D01*
X35766800Y48840093D01*
X35564355Y48822381D01*
X35555645Y48822381D01*
X35555645Y44631691D01*
X35680119Y44667107D01*
X35689168Y44668799D01*
X35872892Y44685823D01*
X35882108Y44685823D01*
X36065832Y44668799D01*
X36074881Y44667107D01*
X36252355Y44616612D01*
X36260949Y44613282D01*
X36426113Y44531040D01*
X36433943Y44526193D01*
X36530597Y44453202D01*
X36538329Y44442055D01*
X36538270Y44439994D01*
X36535580Y44435759D01*
X36331194Y44231373D01*
X36202913Y44311977D01*
X36044391Y44367446D01*
X35877500Y44386250D01*
X35710609Y44367446D01*
X35552087Y44311977D01*
X35423806Y44231373D01*
X35423806Y43041127D01*
X35552087Y42960523D01*
X35710609Y42905054D01*
X35877500Y42886250D01*
X36044391Y42905054D01*
X36202913Y42960523D01*
X36331194Y43041127D01*
X36532051Y42840270D01*
X36538170Y42828158D01*
X36537828Y42826129D01*
X36534577Y42822304D01*
X36433943Y42746307D01*
X36426113Y42741460D01*
X36260949Y42659218D01*
X36252355Y42655888D01*
X36074881Y42605393D01*
X36065832Y42603701D01*
X35882108Y42586677D01*
X35872892Y42586677D01*
X35872892Y42086250D01*
X36622586Y42086250D01*
X36632317Y42085292D01*
X36684003Y42075010D01*
X36684003Y42975311D01*
X36679507Y42975858D01*
X36678883Y42976296D01*
X36472623Y43182556D01*
X36553227Y43310837D01*
X36608696Y43469359D01*
X36627500Y43636250D01*
X36608696Y43803141D01*
X36553227Y43961663D01*
X36472623Y44089944D01*
X36673707Y44291028D01*
X36685819Y44297147D01*
X36690284Y44296393D01*
X36690884Y44295929D01*
X36712305Y44272431D01*
X36717850Y44265088D01*
X36814991Y44108199D01*
X36819089Y44099969D01*
X36885745Y43927913D01*
X36888268Y43919045D01*
X36922172Y43737676D01*
X36923021Y43728511D01*
X36923021Y43543989D01*
X36922172Y43534824D01*
X36888268Y43353455D01*
X36885745Y43344587D01*
X36819089Y43172531D01*
X36814991Y43164301D01*
X36717850Y43007412D01*
X36712305Y43000069D01*
X36695817Y42981982D01*
X36684003Y42975311D01*
X36684003Y42075010D01*
X36694377Y42072947D01*
X36712227Y42065554D01*
X36760733Y42033142D01*
X36774392Y42019483D01*
X36806804Y41970977D01*
X36814197Y41953127D01*
X36826542Y41891067D01*
X36827500Y41881336D01*
X36827500Y40391164D01*
X36826542Y40381433D01*
X36814197Y40319373D01*
X36806804Y40301523D01*
X36774392Y40253017D01*
X36760733Y40239358D01*
X36712227Y40206946D01*
X36694377Y40199553D01*
X36632317Y40187208D01*
X36622586Y40186250D01*
X35132414Y40186250D01*
X35132414Y32348030D01*
X35255926Y32409532D01*
X35264520Y32412862D01*
X35441994Y32463357D01*
X35451043Y32465049D01*
X35634767Y32482073D01*
X35643983Y32482073D01*
X35827707Y32465049D01*
X35836756Y32463357D01*
X36014230Y32412862D01*
X36022824Y32409532D01*
X36187988Y32327290D01*
X36195818Y32322443D01*
X36343061Y32211249D01*
X36349874Y32205037D01*
X36474179Y32068682D01*
X36479725Y32061338D01*
X36576866Y31904449D01*
X36580964Y31896219D01*
X36647620Y31724163D01*
X36650143Y31715295D01*
X36684047Y31533926D01*
X36684896Y31524761D01*
X36684896Y31340239D01*
X36684047Y31331074D01*
X36650143Y31149705D01*
X36647620Y31140837D01*
X36580964Y30968781D01*
X36576866Y30960551D01*
X36479725Y30803662D01*
X36474179Y30796318D01*
X36349874Y30659963D01*
X36343061Y30653751D01*
X36195818Y30542557D01*
X36187988Y30537710D01*
X36022824Y30455468D01*
X36014230Y30452138D01*
X35836756Y30401643D01*
X35827707Y30399951D01*
X35643983Y30382927D01*
X35634767Y30382927D01*
X35634767Y17242073D01*
X35643983Y17242073D01*
X35827707Y17225049D01*
X35836756Y17223357D01*
X36014230Y17172862D01*
X36022824Y17169532D01*
X36187988Y17087290D01*
X36195818Y17082443D01*
X36343061Y16971249D01*
X36349874Y16965037D01*
X36474179Y16828682D01*
X36479725Y16821338D01*
X36576866Y16664449D01*
X36580964Y16656219D01*
X36647620Y16484163D01*
X36650143Y16475295D01*
X36684047Y16293926D01*
X36684896Y16284761D01*
X36684896Y16100239D01*
X36684047Y16091074D01*
X36650143Y15909705D01*
X36647620Y15900837D01*
X36580964Y15728781D01*
X36576866Y15720551D01*
X36479725Y15563662D01*
X36474179Y15556318D01*
X36349874Y15419963D01*
X36343061Y15413751D01*
X36195818Y15302557D01*
X36187988Y15297710D01*
X36022824Y15215468D01*
X36014230Y15212138D01*
X35836756Y15161643D01*
X35827707Y15159951D01*
X35643983Y15142927D01*
X35634767Y15142927D01*
X35634767Y300000D01*
X38809481Y300000D01*
X38809481Y9369232D01*
X38633932Y9386522D01*
X38624335Y9388431D01*
X38455532Y9439636D01*
X38446488Y9443383D01*
X38290917Y9526537D01*
X38282785Y9531971D01*
X38146422Y9643882D01*
X38139507Y9650797D01*
X38027596Y9787160D01*
X38022162Y9795292D01*
X37939008Y9950863D01*
X37935261Y9959907D01*
X37884056Y10128710D01*
X37882147Y10138307D01*
X37864857Y10313856D01*
X37864857Y10323644D01*
X37882147Y10499193D01*
X37884056Y10508790D01*
X37935261Y10677593D01*
X37939008Y10686637D01*
X38022162Y10842208D01*
X38027596Y10850340D01*
X38139507Y10986703D01*
X38146422Y10993618D01*
X38174767Y11016880D01*
X38174767Y15142927D01*
X37991043Y15159951D01*
X37981994Y15161643D01*
X37804520Y15212138D01*
X37795926Y15215468D01*
X37630762Y15297710D01*
X37622932Y15302557D01*
X37475689Y15413751D01*
X37468876Y15419963D01*
X37344571Y15556318D01*
X37339025Y15563662D01*
X37241884Y15720551D01*
X37237786Y15728781D01*
X37171130Y15900837D01*
X37168607Y15909705D01*
X37134703Y16091074D01*
X37133854Y16100239D01*
X37133854Y16284761D01*
X37134703Y16293926D01*
X37168607Y16475295D01*
X37171130Y16484163D01*
X37237786Y16656219D01*
X37241884Y16664449D01*
X37339025Y16821338D01*
X37344571Y16828682D01*
X37468876Y16965037D01*
X37475689Y16971249D01*
X37622932Y17082443D01*
X37630762Y17087290D01*
X37795926Y17169532D01*
X37804520Y17172862D01*
X37981994Y17223357D01*
X37991043Y17225049D01*
X38174767Y17242073D01*
X38183983Y17242073D01*
X38367707Y17225049D01*
X38376756Y17223357D01*
X38554230Y17172862D01*
X38562824Y17169532D01*
X38570667Y17165626D01*
X38570667Y27320004D01*
X38426070Y27336296D01*
X38415180Y27338781D01*
X38277829Y27386843D01*
X38267781Y27391681D01*
X38144559Y27469107D01*
X38135837Y27476063D01*
X38032938Y27578962D01*
X38025982Y27587684D01*
X37948556Y27710906D01*
X37943718Y27720954D01*
X37895656Y27858305D01*
X37893171Y27869195D01*
X37876879Y28013792D01*
X37876879Y28024958D01*
X37893171Y28169555D01*
X37895656Y28180445D01*
X37943718Y28317796D01*
X37948556Y28327844D01*
X38025982Y28451066D01*
X38032938Y28459788D01*
X38135837Y28562687D01*
X38144559Y28569643D01*
X38174767Y28588624D01*
X38174767Y30382927D01*
X37991043Y30399951D01*
X37981994Y30401643D01*
X37804520Y30452138D01*
X37795926Y30455468D01*
X37630762Y30537710D01*
X37622932Y30542557D01*
X37475689Y30653751D01*
X37468876Y30659963D01*
X37344571Y30796318D01*
X37339025Y30803662D01*
X37241884Y30960551D01*
X37237786Y30968781D01*
X37171130Y31140837D01*
X37168607Y31149705D01*
X37134703Y31331074D01*
X37133854Y31340239D01*
X37133854Y31524761D01*
X37134703Y31533926D01*
X37168607Y31715295D01*
X37171130Y31724163D01*
X37237786Y31896219D01*
X37241884Y31904449D01*
X37339025Y32061338D01*
X37344571Y32068682D01*
X37468876Y32205037D01*
X37475689Y32211249D01*
X37622932Y32322443D01*
X37630762Y32327290D01*
X37773037Y32398134D01*
X37773037Y34585555D01*
X37762677Y34586644D01*
X37588886Y34623585D01*
X37578973Y34626805D01*
X37416666Y34699069D01*
X37407632Y34704285D01*
X37263895Y34808716D01*
X37256151Y34815689D01*
X37137264Y34947726D01*
X37131143Y34956151D01*
X37042302Y35110028D01*
X37038066Y35119543D01*
X36983161Y35288523D01*
X36980994Y35298715D01*
X36962423Y35475411D01*
X36962423Y35485839D01*
X36980994Y35662535D01*
X36983161Y35672727D01*
X37038066Y35841707D01*
X37042302Y35851222D01*
X37131143Y36005099D01*
X37137264Y36013524D01*
X37166789Y36046314D01*
X37166789Y37120625D01*
X37157058Y37121583D01*
X37094998Y37133928D01*
X37077148Y37141321D01*
X37028642Y37173733D01*
X37014983Y37187392D01*
X36982571Y37235898D01*
X36975178Y37253748D01*
X36962833Y37315808D01*
X36961875Y37325539D01*
X36961875Y38715711D01*
X36962833Y38725442D01*
X36975178Y38787502D01*
X36982571Y38805352D01*
X37014983Y38853858D01*
X37028642Y38867517D01*
X37077148Y38899929D01*
X37094998Y38907322D01*
X37157058Y38919667D01*
X37166789Y38920625D01*
X38556961Y38920625D01*
X38566692Y38919667D01*
X38628752Y38907322D01*
X38646602Y38899929D01*
X38695108Y38867517D01*
X38708767Y38853858D01*
X38741179Y38805352D01*
X38748572Y38787502D01*
X38760917Y38725442D01*
X38761875Y38715711D01*
X38761875Y37325539D01*
X38760917Y37315808D01*
X38748572Y37253748D01*
X38741179Y37235898D01*
X38708767Y37187392D01*
X38695108Y37173733D01*
X38646602Y37141321D01*
X38628752Y37133928D01*
X38566692Y37121583D01*
X38556961Y37120625D01*
X37166789Y37120625D01*
X37166789Y36046314D01*
X37256151Y36145561D01*
X37263895Y36152534D01*
X37407632Y36256965D01*
X37416666Y36262181D01*
X37578973Y36334445D01*
X37588886Y36337665D01*
X37762677Y36374606D01*
X37773037Y36375695D01*
X37950713Y36375695D01*
X37961073Y36374606D01*
X38134864Y36337665D01*
X38144777Y36334445D01*
X38307084Y36262181D01*
X38316118Y36256965D01*
X38459855Y36152534D01*
X38467599Y36145561D01*
X38586486Y36013524D01*
X38592607Y36005099D01*
X38681448Y35851222D01*
X38685684Y35841707D01*
X38740589Y35672727D01*
X38742756Y35662535D01*
X38761327Y35485839D01*
X38761327Y35475411D01*
X38742756Y35298715D01*
X38740589Y35288523D01*
X38685684Y35119543D01*
X38681448Y35110028D01*
X38592607Y34956151D01*
X38586486Y34947726D01*
X38467599Y34815689D01*
X38459855Y34808716D01*
X38316118Y34704285D01*
X38307084Y34699069D01*
X38144777Y34626805D01*
X38134864Y34623585D01*
X37961073Y34586644D01*
X37950713Y34585555D01*
X37773037Y34585555D01*
X37773037Y32398134D01*
X37795926Y32409532D01*
X37804520Y32412862D01*
X37981994Y32463357D01*
X37991043Y32465049D01*
X38174767Y32482073D01*
X38183983Y32482073D01*
X38367707Y32465049D01*
X38376756Y32463357D01*
X38554230Y32412862D01*
X38562824Y32409532D01*
X38727988Y32327290D01*
X38735818Y32322443D01*
X38883061Y32211249D01*
X38889874Y32205037D01*
X39014179Y32068682D01*
X39019725Y32061338D01*
X39116866Y31904449D01*
X39120964Y31896219D01*
X39187620Y31724163D01*
X39190143Y31715295D01*
X39224047Y31533926D01*
X39224896Y31524761D01*
X39224896Y31340239D01*
X39224047Y31331074D01*
X39190143Y31149705D01*
X39187620Y31140837D01*
X39120964Y30968781D01*
X39116866Y30960551D01*
X39019725Y30803662D01*
X39014179Y30796318D01*
X38889874Y30659963D01*
X38883061Y30653751D01*
X38735818Y30542557D01*
X38727988Y30537710D01*
X38562824Y30455468D01*
X38554230Y30452138D01*
X38376756Y30401643D01*
X38367707Y30399951D01*
X38183983Y30382927D01*
X38174767Y30382927D01*
X38174767Y28588624D01*
X38267781Y28647069D01*
X38277829Y28651907D01*
X38415180Y28699969D01*
X38426070Y28702454D01*
X38570667Y28718746D01*
X38581829Y28718746D01*
X38585556Y28718326D01*
X38586756Y28718746D01*
X38587447Y28718746D01*
X38587447Y28718988D01*
X38667465Y28746986D01*
X39366772Y29446293D01*
X39372167Y29450968D01*
X39404981Y29475531D01*
X39410542Y29480012D01*
X39438806Y29504504D01*
X39455134Y29514997D01*
X39461494Y29518772D01*
X39478540Y29528080D01*
X39513592Y29541154D01*
X39520186Y29543885D01*
X39554216Y29559426D01*
X39572845Y29564895D01*
X39579991Y29566719D01*
X39598986Y29570852D01*
X39636286Y29573519D01*
X39643385Y29574282D01*
X39683966Y29580117D01*
X39691070Y29580625D01*
X40714767Y29580625D01*
X40714767Y30382927D01*
X40531043Y30399951D01*
X40521994Y30401643D01*
X40344520Y30452138D01*
X40335926Y30455468D01*
X40170762Y30537710D01*
X40162932Y30542557D01*
X40015689Y30653751D01*
X40008876Y30659963D01*
X39884571Y30796318D01*
X39879025Y30803662D01*
X39781884Y30960551D01*
X39777786Y30968781D01*
X39711130Y31140837D01*
X39708607Y31149705D01*
X39674703Y31331074D01*
X39673854Y31340239D01*
X39673854Y31524761D01*
X39674703Y31533926D01*
X39708607Y31715295D01*
X39711130Y31724163D01*
X39777786Y31896219D01*
X39781884Y31904449D01*
X39879025Y32061338D01*
X39884571Y32068682D01*
X40008876Y32205037D01*
X40015689Y32211249D01*
X40162932Y32322443D01*
X40170762Y32327290D01*
X40335926Y32409532D01*
X40344520Y32412862D01*
X40521994Y32463357D01*
X40531043Y32465049D01*
X40714767Y32482073D01*
X40723983Y32482073D01*
X40907707Y32465049D01*
X40916756Y32463357D01*
X41094230Y32412862D01*
X41102824Y32409532D01*
X41267988Y32327290D01*
X41275818Y32322443D01*
X41423061Y32211249D01*
X41429874Y32205037D01*
X41554179Y32068682D01*
X41559725Y32061338D01*
X41656866Y31904449D01*
X41660964Y31896219D01*
X41670539Y31871503D01*
X41670539Y50534375D01*
X41660808Y50535333D01*
X41598748Y50547678D01*
X41580898Y50555071D01*
X41532392Y50587483D01*
X41518733Y50601142D01*
X41486321Y50649648D01*
X41478928Y50667498D01*
X41466583Y50729558D01*
X41465625Y50739289D01*
X41465625Y52329461D01*
X41466583Y52339192D01*
X41478928Y52401252D01*
X41486321Y52419102D01*
X41518733Y52467608D01*
X41532392Y52481267D01*
X41580898Y52513679D01*
X41598748Y52521072D01*
X41622064Y52525710D01*
X41622064Y53338236D01*
X41617599Y53338990D01*
X41616999Y53339454D01*
X41590920Y53368061D01*
X41585374Y53375405D01*
X41483375Y53540139D01*
X41479277Y53548369D01*
X41409290Y53729029D01*
X41406766Y53737897D01*
X41371166Y53928336D01*
X41370317Y53937501D01*
X41370317Y54131249D01*
X41371166Y54140414D01*
X41406766Y54330853D01*
X41409290Y54339721D01*
X41479277Y54520381D01*
X41483375Y54528611D01*
X41585374Y54693345D01*
X41590920Y54700689D01*
X41612065Y54723884D01*
X41623881Y54730556D01*
X41628377Y54730009D01*
X41628998Y54729573D01*
X41836511Y54522060D01*
X41772805Y54434375D01*
X41704780Y54281589D01*
X41670007Y54117998D01*
X41670007Y53950752D01*
X41704780Y53787161D01*
X41772805Y53634375D01*
X41836511Y53546690D01*
X41634176Y53344355D01*
X41622064Y53338236D01*
X41622064Y52525710D01*
X41660808Y52533417D01*
X41670539Y52534375D01*
X42461017Y52534375D01*
X42461017Y52934802D01*
X42268106Y52952678D01*
X42259057Y52954370D01*
X42072708Y53007390D01*
X42064114Y53010720D01*
X41890691Y53097074D01*
X41882861Y53101922D01*
X41776983Y53181876D01*
X41769251Y53193025D01*
X41769310Y53195086D01*
X41771999Y53199320D01*
X41976687Y53404008D01*
X41976687Y54664742D01*
X41775528Y54865901D01*
X41769409Y54878013D01*
X41769751Y54880042D01*
X41773002Y54883867D01*
X41882861Y54966828D01*
X41890691Y54971676D01*
X42064114Y55058030D01*
X42072708Y55061360D01*
X42259057Y55114380D01*
X42268106Y55116072D01*
X42461017Y55133948D01*
X42470233Y55133948D01*
X42663144Y55116072D01*
X42672193Y55114380D01*
X42858542Y55061360D01*
X42867136Y55058030D01*
X43040559Y54971676D01*
X43048389Y54966828D01*
X43154267Y54886874D01*
X43161999Y54875725D01*
X43161940Y54873664D01*
X43159251Y54869430D01*
X42954563Y54664742D01*
X42935853Y54681589D01*
X42791014Y54765211D01*
X42631954Y54816893D01*
X42465625Y54834375D01*
X42299296Y54816893D01*
X42140236Y54765211D01*
X41995397Y54681589D01*
X41976687Y54664742D01*
X41976687Y53404008D01*
X41995397Y53387161D01*
X42140236Y53303539D01*
X42299296Y53251857D01*
X42465625Y53234375D01*
X42631954Y53251857D01*
X42791014Y53303539D01*
X42935853Y53387161D01*
X42954563Y53404008D01*
X43155722Y53202849D01*
X43161841Y53190737D01*
X43161499Y53188708D01*
X43158248Y53184883D01*
X43048389Y53101922D01*
X43040559Y53097074D01*
X42867136Y53010720D01*
X42858542Y53007390D01*
X42672193Y52954370D01*
X42663144Y52952678D01*
X42470233Y52934802D01*
X42461017Y52934802D01*
X42461017Y52534375D01*
X43260711Y52534375D01*
X43270442Y52533417D01*
X43307369Y52526071D01*
X43307369Y53338194D01*
X43302873Y53338741D01*
X43302252Y53339177D01*
X43094739Y53546690D01*
X43158445Y53634375D01*
X43226470Y53787161D01*
X43261243Y53950752D01*
X43261243Y54117998D01*
X43226470Y54281589D01*
X43158445Y54434375D01*
X43094739Y54522060D01*
X43297074Y54724395D01*
X43309186Y54730514D01*
X43313651Y54729760D01*
X43314251Y54729296D01*
X43340330Y54700689D01*
X43345876Y54693345D01*
X43447875Y54528611D01*
X43451973Y54520381D01*
X43521960Y54339721D01*
X43524484Y54330853D01*
X43560084Y54140414D01*
X43560933Y54131249D01*
X43560933Y53937501D01*
X43560084Y53928336D01*
X43524484Y53737897D01*
X43521960Y53729029D01*
X43451973Y53548369D01*
X43447875Y53540139D01*
X43345876Y53375405D01*
X43340330Y53368061D01*
X43319185Y53344866D01*
X43307369Y53338194D01*
X43307369Y52526071D01*
X43332502Y52521072D01*
X43350352Y52513679D01*
X43398858Y52481267D01*
X43412517Y52467608D01*
X43444929Y52419102D01*
X43452322Y52401252D01*
X43464667Y52339192D01*
X43465625Y52329461D01*
X43465625Y50739289D01*
X43464667Y50729558D01*
X43452322Y50667498D01*
X43444929Y50649648D01*
X43412517Y50601142D01*
X43398858Y50587483D01*
X43350352Y50555071D01*
X43332502Y50547678D01*
X43270442Y50535333D01*
X43260711Y50534375D01*
X41670539Y50534375D01*
X41670539Y31871503D01*
X41727620Y31724163D01*
X41730143Y31715295D01*
X41764047Y31533926D01*
X41764896Y31524761D01*
X41764896Y31340239D01*
X41764047Y31331074D01*
X41730143Y31149705D01*
X41727620Y31140837D01*
X41660964Y30968781D01*
X41656866Y30960551D01*
X41559725Y30803662D01*
X41554179Y30796318D01*
X41429874Y30659963D01*
X41423061Y30653751D01*
X41275818Y30542557D01*
X41267988Y30537710D01*
X41102824Y30455468D01*
X41094230Y30452138D01*
X40916756Y30401643D01*
X40907707Y30399951D01*
X40723983Y30382927D01*
X40714767Y30382927D01*
X40714767Y29580625D01*
X43254767Y29580625D01*
X43254767Y30382927D01*
X43071043Y30399951D01*
X43061994Y30401643D01*
X42884520Y30452138D01*
X42875926Y30455468D01*
X42710762Y30537710D01*
X42702932Y30542557D01*
X42555689Y30653751D01*
X42548876Y30659963D01*
X42424571Y30796318D01*
X42419025Y30803662D01*
X42321884Y30960551D01*
X42317786Y30968781D01*
X42251130Y31140837D01*
X42248607Y31149705D01*
X42214703Y31331074D01*
X42213854Y31340239D01*
X42213854Y31524761D01*
X42214703Y31533926D01*
X42248607Y31715295D01*
X42251130Y31724163D01*
X42317786Y31896219D01*
X42321884Y31904449D01*
X42419025Y32061338D01*
X42424571Y32068682D01*
X42548876Y32205037D01*
X42555689Y32211249D01*
X42702932Y32322443D01*
X42710762Y32327290D01*
X42875926Y32409532D01*
X42884520Y32412862D01*
X43061994Y32463357D01*
X43071043Y32465049D01*
X43254767Y32482073D01*
X43263983Y32482073D01*
X43447707Y32465049D01*
X43456756Y32463357D01*
X43634230Y32412862D01*
X43642824Y32409532D01*
X43807988Y32327290D01*
X43815818Y32322443D01*
X43963061Y32211249D01*
X43969874Y32205037D01*
X44094179Y32068682D01*
X44099725Y32061338D01*
X44196866Y31904449D01*
X44200964Y31896219D01*
X44267620Y31724163D01*
X44270143Y31715295D01*
X44304047Y31533926D01*
X44304896Y31524761D01*
X44304896Y31340239D01*
X44304047Y31331074D01*
X44270143Y31149705D01*
X44267620Y31140837D01*
X44200964Y30968781D01*
X44196866Y30960551D01*
X44099725Y30803662D01*
X44094179Y30796318D01*
X43969874Y30659963D01*
X43963061Y30653751D01*
X43815818Y30542557D01*
X43807988Y30537710D01*
X43642824Y30455468D01*
X43634230Y30452138D01*
X43456756Y30401643D01*
X43447707Y30399951D01*
X43263983Y30382927D01*
X43254767Y30382927D01*
X43254767Y29580625D01*
X44954289Y29580625D01*
X44954289Y30382500D01*
X44944558Y30383458D01*
X44882498Y30395803D01*
X44864648Y30403196D01*
X44816142Y30435608D01*
X44802483Y30449267D01*
X44770071Y30497773D01*
X44762678Y30515623D01*
X44750333Y30577683D01*
X44749375Y30587414D01*
X44749375Y32277586D01*
X44750333Y32287317D01*
X44762678Y32349377D01*
X44770071Y32367227D01*
X44802483Y32415733D01*
X44816142Y32429392D01*
X44864648Y32461804D01*
X44882498Y32469197D01*
X44944558Y32481542D01*
X44954289Y32482500D01*
X45249376Y32482500D01*
X45308703Y32502000D01*
X45349375Y32582499D01*
X45349375Y32950933D01*
X45320086Y33021643D01*
X42626207Y35715522D01*
X42621532Y35720917D01*
X42596969Y35753731D01*
X42592488Y35759292D01*
X42567996Y35787556D01*
X42557503Y35803884D01*
X42553728Y35810244D01*
X42544420Y35827290D01*
X42531346Y35862342D01*
X42528615Y35868936D01*
X42513074Y35902966D01*
X42507605Y35921595D01*
X42505781Y35928741D01*
X42501648Y35947736D01*
X42498981Y35985036D01*
X42498218Y35992135D01*
X42492383Y36032716D01*
X42491875Y36039820D01*
X42491875Y38810802D01*
X42492383Y38817909D01*
X42498219Y38858497D01*
X42498982Y38865594D01*
X42501650Y38902897D01*
X42505781Y38921887D01*
X42507609Y38929049D01*
X42513074Y38947659D01*
X42528620Y38981700D01*
X42531352Y38988296D01*
X42544421Y39023334D01*
X42553731Y39040384D01*
X42557507Y39046749D01*
X42567995Y39063069D01*
X42592485Y39091331D01*
X42596966Y39096891D01*
X42621534Y39129711D01*
X42626203Y39135099D01*
X43256150Y39765046D01*
X43261532Y39769709D01*
X43294349Y39794276D01*
X43299908Y39798756D01*
X43328183Y39823257D01*
X43344496Y39833739D01*
X43350875Y39837524D01*
X43367916Y39846829D01*
X43402949Y39859896D01*
X43409545Y39862628D01*
X43443590Y39878176D01*
X43462174Y39883633D01*
X43469374Y39885471D01*
X43488357Y39889600D01*
X43525648Y39892267D01*
X43532747Y39893030D01*
X43573341Y39898867D01*
X43580445Y39899375D01*
X44356198Y39899375D01*
X44415525Y39918875D01*
X44444389Y39952235D01*
X44510743Y40076374D01*
X44516180Y40084510D01*
X44633493Y40227458D01*
X44640417Y40234382D01*
X44783365Y40351695D01*
X44791501Y40357132D01*
X44954591Y40444305D01*
X44963635Y40448052D01*
X45140599Y40501733D01*
X45150196Y40503642D01*
X45336682Y40522009D01*
X45341575Y40522250D01*
X45939675Y40522250D01*
X45944568Y40522009D01*
X46131054Y40503642D01*
X46140651Y40501733D01*
X46317615Y40448052D01*
X46326659Y40444305D01*
X46489749Y40357132D01*
X46497885Y40351695D01*
X46640833Y40234382D01*
X46647757Y40227458D01*
X46765070Y40084510D01*
X46770507Y40076374D01*
X46822434Y39979225D01*
X46867598Y39936095D01*
X46929542Y39928171D01*
X46998816Y39979225D01*
X47050743Y40076374D01*
X47056180Y40084510D01*
X47173493Y40227458D01*
X47180417Y40234382D01*
X47323365Y40351695D01*
X47331501Y40357132D01*
X47494591Y40444305D01*
X47503635Y40448052D01*
X47680599Y40501733D01*
X47690196Y40503642D01*
X47876682Y40522009D01*
X47881575Y40522250D01*
X48479675Y40522250D01*
X48484568Y40522009D01*
X48671054Y40503642D01*
X48680651Y40501733D01*
X48857615Y40448052D01*
X48866659Y40444305D01*
X49029749Y40357132D01*
X49037885Y40351695D01*
X49180833Y40234382D01*
X49187757Y40227458D01*
X49305070Y40084510D01*
X49310507Y40076374D01*
X49397680Y39913284D01*
X49401427Y39904240D01*
X49455108Y39727276D01*
X49457017Y39717679D01*
X49475143Y39533644D01*
X49475143Y39523856D01*
X49457017Y39339821D01*
X49455108Y39330224D01*
X49401427Y39153260D01*
X49397680Y39144216D01*
X49310507Y38981126D01*
X49305070Y38972990D01*
X49187757Y38830042D01*
X49180833Y38823118D01*
X49037885Y38705805D01*
X49029749Y38700368D01*
X48866659Y38613195D01*
X48857615Y38609448D01*
X48680651Y38555767D01*
X48671054Y38553858D01*
X48484568Y38535491D01*
X48479675Y38535250D01*
X47881575Y38535250D01*
X47876682Y38535491D01*
X47690196Y38553858D01*
X47680599Y38555767D01*
X47503635Y38609448D01*
X47494591Y38613195D01*
X47331501Y38700368D01*
X47323365Y38705805D01*
X47180417Y38823118D01*
X47173493Y38830042D01*
X47056180Y38972990D01*
X47050743Y38981126D01*
X46998816Y39078275D01*
X46953652Y39121405D01*
X46891708Y39129329D01*
X46822434Y39078275D01*
X46770507Y38981126D01*
X46765070Y38972990D01*
X46647757Y38830042D01*
X46640833Y38823118D01*
X46497885Y38705805D01*
X46489749Y38700368D01*
X46326659Y38613195D01*
X46317615Y38609448D01*
X46140651Y38555767D01*
X46131054Y38553858D01*
X45944568Y38535491D01*
X45939675Y38535250D01*
X45341575Y38535250D01*
X45336682Y38535491D01*
X45150196Y38553858D01*
X45140599Y38555767D01*
X44963635Y38609448D01*
X44954591Y38613195D01*
X44791501Y38700368D01*
X44783365Y38705805D01*
X44640417Y38823118D01*
X44633499Y38830036D01*
X44524532Y38962814D01*
X44447231Y38999375D01*
X43804692Y38999375D01*
X43733982Y38970086D01*
X43421164Y38657268D01*
X43391875Y38586558D01*
X43391875Y36264067D01*
X43421164Y36193357D01*
X45341575Y34272946D01*
X45341575Y35995250D01*
X45336682Y35995491D01*
X45150196Y36013858D01*
X45140599Y36015767D01*
X44963635Y36069448D01*
X44954591Y36073195D01*
X44791501Y36160368D01*
X44783365Y36165805D01*
X44640417Y36283118D01*
X44633493Y36290042D01*
X44516180Y36432990D01*
X44510743Y36441126D01*
X44423570Y36604216D01*
X44419823Y36613260D01*
X44366142Y36790224D01*
X44364233Y36799821D01*
X44346107Y36983856D01*
X44346107Y36993644D01*
X44364233Y37177679D01*
X44366142Y37187276D01*
X44419823Y37364240D01*
X44423570Y37373284D01*
X44510743Y37536374D01*
X44516180Y37544510D01*
X44633493Y37687458D01*
X44640417Y37694382D01*
X44783365Y37811695D01*
X44791501Y37817132D01*
X44954591Y37904305D01*
X44963635Y37908052D01*
X45140599Y37961733D01*
X45150196Y37963642D01*
X45336682Y37982009D01*
X45341575Y37982250D01*
X45939675Y37982250D01*
X45944568Y37982009D01*
X46131054Y37963642D01*
X46140651Y37961733D01*
X46317615Y37908052D01*
X46326659Y37904305D01*
X46489749Y37817132D01*
X46497885Y37811695D01*
X46640833Y37694382D01*
X46647757Y37687458D01*
X46765070Y37544510D01*
X46770507Y37536374D01*
X46822434Y37439225D01*
X46867598Y37396095D01*
X46929542Y37388171D01*
X46998816Y37439225D01*
X47050743Y37536374D01*
X47056180Y37544510D01*
X47173493Y37687458D01*
X47180417Y37694382D01*
X47323365Y37811695D01*
X47331501Y37817132D01*
X47494591Y37904305D01*
X47503635Y37908052D01*
X47680599Y37961733D01*
X47690196Y37963642D01*
X47876682Y37982009D01*
X47881575Y37982250D01*
X48479675Y37982250D01*
X48484568Y37982009D01*
X48671054Y37963642D01*
X48680651Y37961733D01*
X48857615Y37908052D01*
X48866659Y37904305D01*
X49029749Y37817132D01*
X49037885Y37811695D01*
X49180833Y37694382D01*
X49187757Y37687458D01*
X49305070Y37544510D01*
X49310507Y37536374D01*
X49397680Y37373284D01*
X49401427Y37364240D01*
X49455108Y37187276D01*
X49457017Y37177679D01*
X49475143Y36993644D01*
X49475143Y36983856D01*
X49457017Y36799821D01*
X49455108Y36790224D01*
X49401427Y36613260D01*
X49397680Y36604216D01*
X49310507Y36441126D01*
X49305070Y36432990D01*
X49187757Y36290042D01*
X49180833Y36283118D01*
X49037885Y36165805D01*
X49029749Y36160368D01*
X48866659Y36073195D01*
X48857615Y36069448D01*
X48680651Y36015767D01*
X48671054Y36013858D01*
X48484568Y35995491D01*
X48479675Y35995250D01*
X47881575Y35995250D01*
X47876682Y35995491D01*
X47690196Y36013858D01*
X47680599Y36015767D01*
X47503635Y36069448D01*
X47494591Y36073195D01*
X47331501Y36160368D01*
X47323365Y36165805D01*
X47180417Y36283118D01*
X47173493Y36290042D01*
X47056180Y36432990D01*
X47050743Y36441126D01*
X46998816Y36538275D01*
X46953652Y36581405D01*
X46891708Y36589329D01*
X46822434Y36538275D01*
X46770507Y36441126D01*
X46765070Y36432990D01*
X46647757Y36290042D01*
X46640833Y36283118D01*
X46497885Y36165805D01*
X46489749Y36160368D01*
X46326659Y36073195D01*
X46317615Y36069448D01*
X46140651Y36015767D01*
X46131054Y36013858D01*
X45944568Y35995491D01*
X45939675Y35995250D01*
X45341575Y35995250D01*
X45341575Y34272946D01*
X46115043Y33499478D01*
X46119718Y33494083D01*
X46144281Y33461269D01*
X46148762Y33455708D01*
X46173254Y33427444D01*
X46183747Y33411116D01*
X46187522Y33404756D01*
X46196830Y33387710D01*
X46209904Y33352658D01*
X46212635Y33346064D01*
X46228176Y33312034D01*
X46233645Y33293405D01*
X46235469Y33286259D01*
X46239602Y33267264D01*
X46242269Y33229964D01*
X46243032Y33222865D01*
X46248867Y33182284D01*
X46249375Y33175180D01*
X46249375Y32582499D01*
X46268875Y32523172D01*
X46349374Y32482500D01*
X46644461Y32482500D01*
X46654192Y32481542D01*
X46716252Y32469197D01*
X46734102Y32461804D01*
X46782608Y32429392D01*
X46796267Y32415733D01*
X46828679Y32367227D01*
X46836072Y32349377D01*
X46848417Y32287317D01*
X46849375Y32277586D01*
X46849375Y30587414D01*
X46848417Y30577683D01*
X46836072Y30515623D01*
X46828679Y30497773D01*
X46796267Y30449267D01*
X46782608Y30435608D01*
X46734102Y30403196D01*
X46716252Y30395803D01*
X46654192Y30383458D01*
X46644461Y30382500D01*
X44954289Y30382500D01*
X44954289Y29580625D01*
X48237887Y29580625D01*
X48237887Y30287406D01*
X48228722Y30288255D01*
X48029208Y30325551D01*
X48020351Y30328072D01*
X47831094Y30401389D01*
X47822842Y30405498D01*
X47650273Y30512348D01*
X47642929Y30517894D01*
X47492937Y30654631D01*
X47486725Y30661444D01*
X47364411Y30823414D01*
X47359563Y30831244D01*
X47269096Y31012927D01*
X47265766Y31021521D01*
X47210221Y31216744D01*
X47208529Y31225793D01*
X47189802Y31427892D01*
X47189802Y31437108D01*
X47208529Y31639207D01*
X47210221Y31648256D01*
X47265766Y31843479D01*
X47269096Y31852073D01*
X47359563Y32033756D01*
X47364411Y32041586D01*
X47486725Y32203556D01*
X47492937Y32210369D01*
X47642929Y32347106D01*
X47650273Y32352652D01*
X47822842Y32459502D01*
X47831094Y32463611D01*
X48020351Y32536928D01*
X48029208Y32539449D01*
X48228722Y32576745D01*
X48237887Y32577594D01*
X48440863Y32577594D01*
X48450028Y32576745D01*
X48649542Y32539449D01*
X48658399Y32536928D01*
X48847656Y32463611D01*
X48855908Y32459502D01*
X49028477Y32352652D01*
X49035821Y32347106D01*
X49185813Y32210369D01*
X49192025Y32203556D01*
X49314339Y32041586D01*
X49319187Y32033756D01*
X49409654Y31852073D01*
X49412984Y31843479D01*
X49468529Y31648256D01*
X49470221Y31639207D01*
X49488948Y31437108D01*
X49488948Y31427892D01*
X49470221Y31225793D01*
X49468529Y31216744D01*
X49412984Y31021521D01*
X49409654Y31012927D01*
X49319187Y30831244D01*
X49314339Y30823414D01*
X49192025Y30661444D01*
X49185813Y30654631D01*
X49035821Y30517894D01*
X49028477Y30512348D01*
X48855908Y30405498D01*
X48847656Y30401389D01*
X48658399Y30328072D01*
X48649542Y30325551D01*
X48450028Y30288255D01*
X48440863Y30287406D01*
X48237887Y30287406D01*
X48237887Y29580625D01*
X50329376Y29580625D01*
X50388703Y29600125D01*
X50429375Y29680624D01*
X50429375Y40253433D01*
X50400086Y40324143D01*
X49340792Y41383437D01*
X49285053Y41411599D01*
X49223475Y41401201D01*
X49192778Y41376162D01*
X49187748Y41370032D01*
X49180834Y41363119D01*
X49037885Y41245805D01*
X49029749Y41240368D01*
X48866659Y41153195D01*
X48857615Y41149448D01*
X48680651Y41095767D01*
X48671054Y41093858D01*
X48484568Y41075491D01*
X48479675Y41075250D01*
X47881575Y41075250D01*
X47876682Y41075491D01*
X47690196Y41093858D01*
X47680599Y41095767D01*
X47503635Y41149448D01*
X47494591Y41153195D01*
X47331501Y41240368D01*
X47323365Y41245805D01*
X47180417Y41363118D01*
X47173493Y41370042D01*
X47056180Y41512990D01*
X47050743Y41521126D01*
X46998816Y41618275D01*
X46953652Y41661405D01*
X46891708Y41669329D01*
X46822434Y41618275D01*
X46770507Y41521126D01*
X46765070Y41512990D01*
X46647757Y41370042D01*
X46640833Y41363118D01*
X46497885Y41245805D01*
X46489749Y41240368D01*
X46326659Y41153195D01*
X46317615Y41149448D01*
X46140651Y41095767D01*
X46131054Y41093858D01*
X45944568Y41075491D01*
X45939675Y41075250D01*
X45341575Y41075250D01*
X45336682Y41075491D01*
X45150196Y41093858D01*
X45140599Y41095767D01*
X44963635Y41149448D01*
X44954591Y41153195D01*
X44791501Y41240368D01*
X44783365Y41245805D01*
X44640417Y41363118D01*
X44633493Y41370042D01*
X44516180Y41512990D01*
X44510743Y41521126D01*
X44423570Y41684216D01*
X44419823Y41693260D01*
X44366142Y41870224D01*
X44364233Y41879821D01*
X44346107Y42063856D01*
X44346107Y42073644D01*
X44364233Y42257679D01*
X44366142Y42267276D01*
X44419823Y42444240D01*
X44423570Y42453284D01*
X44510743Y42616374D01*
X44516180Y42624510D01*
X44549556Y42665179D01*
X44549556Y43515250D01*
X44541743Y43515865D01*
X44460694Y43528702D01*
X44445907Y43533506D01*
X44376299Y43568973D01*
X44363726Y43578108D01*
X44308483Y43633351D01*
X44299348Y43645924D01*
X44263881Y43715532D01*
X44259077Y43730319D01*
X44246240Y43811368D01*
X44245625Y43819181D01*
X44245625Y44492732D01*
X44247191Y44497497D01*
X44261638Y44504796D01*
X44261638Y44708755D01*
X44256873Y44710321D01*
X44245625Y44732583D01*
X44245625Y45398319D01*
X44246240Y45406132D01*
X44259077Y45487181D01*
X44263881Y45501968D01*
X44299348Y45571576D01*
X44308483Y45584149D01*
X44363726Y45639392D01*
X44376299Y45648527D01*
X44445907Y45683994D01*
X44460694Y45688798D01*
X44541743Y45701635D01*
X44549556Y45702250D01*
X45524607Y45702250D01*
X45529372Y45700684D01*
X45540620Y45678422D01*
X45540620Y45402250D01*
X44545625Y45402250D01*
X44545625Y44708755D01*
X44261638Y44708755D01*
X44261638Y44504796D01*
X44269453Y44508745D01*
X44545625Y44508745D01*
X44545625Y43815250D01*
X45540620Y43815250D01*
X45540620Y43531263D01*
X45539054Y43526498D01*
X45516792Y43515250D01*
X44549556Y43515250D01*
X44549556Y42665179D01*
X44633493Y42767458D01*
X44640417Y42774382D01*
X44783365Y42891695D01*
X44791501Y42897132D01*
X44954591Y42984305D01*
X44963635Y42988052D01*
X45140599Y43041733D01*
X45150196Y43043642D01*
X45336682Y43062009D01*
X45341575Y43062250D01*
X45756643Y43062250D01*
X45756643Y43515250D01*
X45751878Y43516816D01*
X45740630Y43539078D01*
X45740630Y43815250D01*
X46735625Y43815250D01*
X46735625Y45402250D01*
X45740630Y45402250D01*
X45740630Y45686237D01*
X45742196Y45691002D01*
X45764458Y45702250D01*
X46731694Y45702250D01*
X46739507Y45701635D01*
X46820556Y45688798D01*
X46835343Y45683994D01*
X46904951Y45648527D01*
X46917524Y45639392D01*
X46972767Y45584149D01*
X46981902Y45571576D01*
X47017369Y45501968D01*
X47022173Y45487181D01*
X47035010Y45406131D01*
X47035583Y45398852D01*
X47059677Y45341237D01*
X47113253Y45309152D01*
X47198713Y45329396D01*
X47323370Y45431699D01*
X47331501Y45437132D01*
X47494591Y45524305D01*
X47503635Y45528052D01*
X47680599Y45581733D01*
X47690196Y45583642D01*
X47876682Y45602009D01*
X47881575Y45602250D01*
X48479675Y45602250D01*
X48484568Y45602009D01*
X48671054Y45583642D01*
X48680651Y45581733D01*
X48857615Y45528052D01*
X48866659Y45524305D01*
X49029749Y45437132D01*
X49037885Y45431695D01*
X49180833Y45314382D01*
X49187757Y45307458D01*
X49305070Y45164510D01*
X49310507Y45156374D01*
X49397680Y44993284D01*
X49401427Y44984240D01*
X49455108Y44807276D01*
X49457017Y44797679D01*
X49475143Y44613644D01*
X49475143Y44603856D01*
X49457017Y44419821D01*
X49455108Y44410224D01*
X49401427Y44233260D01*
X49397680Y44224216D01*
X49310507Y44061126D01*
X49305070Y44052990D01*
X49187757Y43910042D01*
X49180833Y43903118D01*
X49037885Y43785805D01*
X49029749Y43780368D01*
X48866659Y43693195D01*
X48857615Y43689448D01*
X48680651Y43635767D01*
X48671054Y43633858D01*
X48484568Y43615491D01*
X48479675Y43615250D01*
X47881575Y43615250D01*
X47876682Y43615491D01*
X47690196Y43633858D01*
X47680599Y43635767D01*
X47503635Y43689448D01*
X47494591Y43693195D01*
X47331501Y43780368D01*
X47323370Y43785801D01*
X47198713Y43888104D01*
X47140481Y43910667D01*
X47080219Y43894283D01*
X47035583Y43818648D01*
X47035010Y43811369D01*
X47022173Y43730319D01*
X47017369Y43715532D01*
X46981902Y43645924D01*
X46972767Y43633351D01*
X46917524Y43578108D01*
X46904951Y43568973D01*
X46835343Y43533506D01*
X46820556Y43528702D01*
X46739507Y43515865D01*
X46731694Y43515250D01*
X45756643Y43515250D01*
X45756643Y43062250D01*
X45939675Y43062250D01*
X45944568Y43062009D01*
X46131054Y43043642D01*
X46140651Y43041733D01*
X46317615Y42988052D01*
X46326659Y42984305D01*
X46489749Y42897132D01*
X46497885Y42891695D01*
X46640833Y42774382D01*
X46647757Y42767458D01*
X46765070Y42624510D01*
X46770507Y42616374D01*
X46822434Y42519225D01*
X46867598Y42476095D01*
X46929542Y42468171D01*
X46998816Y42519225D01*
X47050743Y42616374D01*
X47056180Y42624510D01*
X47173493Y42767458D01*
X47180417Y42774382D01*
X47323365Y42891695D01*
X47331501Y42897132D01*
X47494591Y42984305D01*
X47503635Y42988052D01*
X47680599Y43041733D01*
X47690196Y43043642D01*
X47876682Y43062009D01*
X47881575Y43062250D01*
X48479675Y43062250D01*
X48484568Y43062009D01*
X48671054Y43043642D01*
X48680651Y43041733D01*
X48857615Y42988052D01*
X48866659Y42984305D01*
X49029749Y42897132D01*
X49037885Y42891695D01*
X49180833Y42774382D01*
X49187757Y42767458D01*
X49305070Y42624510D01*
X49310507Y42616374D01*
X49344726Y42552355D01*
X49404743Y42503546D01*
X49425156Y42497552D01*
X49459189Y42482010D01*
X49465783Y42479279D01*
X49500835Y42466205D01*
X49517881Y42456897D01*
X49524241Y42453122D01*
X49540569Y42442629D01*
X49568833Y42418137D01*
X49574394Y42413656D01*
X49607208Y42389093D01*
X49612603Y42384418D01*
X51195048Y40801973D01*
X51199711Y40796591D01*
X51224286Y40763763D01*
X51228766Y40758204D01*
X51253255Y40729942D01*
X51263741Y40713625D01*
X51267549Y40707208D01*
X51276828Y40690215D01*
X51289906Y40655152D01*
X51292638Y40648558D01*
X51308176Y40614535D01*
X51313638Y40595934D01*
X51315478Y40588725D01*
X51319601Y40569769D01*
X51322269Y40532462D01*
X51323032Y40525363D01*
X51328867Y40484783D01*
X51329375Y40477679D01*
X51329375Y29451695D01*
X51328867Y29444591D01*
X51323032Y29404010D01*
X51322269Y29396911D01*
X51319602Y29359611D01*
X51315469Y29340616D01*
X51313645Y29333470D01*
X51308176Y29314841D01*
X51292635Y29280811D01*
X51289904Y29274217D01*
X51276830Y29239165D01*
X51267522Y29222119D01*
X51263747Y29215759D01*
X51253254Y29199431D01*
X51228762Y29171167D01*
X51224281Y29165606D01*
X51199718Y29132792D01*
X51195043Y29127397D01*
X50882598Y28814952D01*
X50877216Y28810289D01*
X50844388Y28785714D01*
X50838829Y28781234D01*
X50810567Y28756745D01*
X50794250Y28746259D01*
X50787833Y28742451D01*
X50770840Y28733172D01*
X50735777Y28720094D01*
X50729183Y28717362D01*
X50695160Y28701824D01*
X50676559Y28696362D01*
X50669350Y28694522D01*
X50650394Y28690399D01*
X50613087Y28687731D01*
X50605988Y28686968D01*
X50565408Y28681133D01*
X50558304Y28680625D01*
X39915317Y28680625D01*
X39844607Y28651336D01*
X39303861Y28110590D01*
X39275863Y28030572D01*
X39275621Y28030572D01*
X39275621Y28029881D01*
X39275201Y28028681D01*
X39275621Y28024954D01*
X39275621Y28013792D01*
X39259329Y27869195D01*
X39256844Y27858305D01*
X39208782Y27720954D01*
X39203944Y27710906D01*
X39126518Y27587684D01*
X39119562Y27578962D01*
X39016663Y27476063D01*
X39007941Y27469107D01*
X38884719Y27391681D01*
X38874671Y27386843D01*
X38737320Y27338781D01*
X38726430Y27336296D01*
X38581833Y27320004D01*
X38570667Y27320004D01*
X38570667Y17165626D01*
X38727988Y17087290D01*
X38735818Y17082443D01*
X38883061Y16971249D01*
X38889874Y16965037D01*
X39014179Y16828682D01*
X39019725Y16821338D01*
X39116866Y16664449D01*
X39120964Y16656219D01*
X39187620Y16484163D01*
X39190143Y16475295D01*
X39224047Y16293926D01*
X39224896Y16284761D01*
X39224896Y16100239D01*
X39224047Y16091074D01*
X39190143Y15909705D01*
X39187620Y15900837D01*
X39120964Y15728781D01*
X39116866Y15720551D01*
X39019725Y15563662D01*
X39014179Y15556318D01*
X38889874Y15419963D01*
X38883061Y15413751D01*
X38735818Y15302557D01*
X38727988Y15297710D01*
X38562824Y15215468D01*
X38554230Y15212138D01*
X38376756Y15161643D01*
X38367707Y15159951D01*
X38183983Y15142927D01*
X38174767Y15142927D01*
X38174767Y11016880D01*
X38282785Y11105529D01*
X38290917Y11110963D01*
X38446488Y11194117D01*
X38455532Y11197864D01*
X38624335Y11249069D01*
X38633932Y11250978D01*
X38809481Y11268268D01*
X38819269Y11268268D01*
X38994818Y11250978D01*
X39004415Y11249069D01*
X39173218Y11197864D01*
X39182262Y11194117D01*
X39337833Y11110963D01*
X39345965Y11105529D01*
X39482328Y10993618D01*
X39489243Y10986703D01*
X39601154Y10850340D01*
X39606588Y10842208D01*
X39689742Y10686637D01*
X39693489Y10677593D01*
X39744694Y10508790D01*
X39746603Y10499193D01*
X39763893Y10323644D01*
X39763893Y10313856D01*
X39746603Y10138307D01*
X39744694Y10128710D01*
X39693489Y9959907D01*
X39689742Y9950863D01*
X39606588Y9795292D01*
X39601154Y9787160D01*
X39489243Y9650797D01*
X39482328Y9643882D01*
X39345965Y9531971D01*
X39337833Y9526537D01*
X39182262Y9443383D01*
X39173218Y9439636D01*
X39004415Y9388431D01*
X38994818Y9386522D01*
X38819269Y9369232D01*
X38809481Y9369232D01*
X38809481Y300000D01*
X40714767Y300000D01*
X40714767Y15142927D01*
X40531043Y15159951D01*
X40521994Y15161643D01*
X40344520Y15212138D01*
X40335926Y15215468D01*
X40170762Y15297710D01*
X40162932Y15302557D01*
X40015689Y15413751D01*
X40008876Y15419963D01*
X39884571Y15556318D01*
X39879025Y15563662D01*
X39781884Y15720551D01*
X39777786Y15728781D01*
X39711130Y15900837D01*
X39708607Y15909705D01*
X39674703Y16091074D01*
X39673854Y16100239D01*
X39673854Y16284761D01*
X39674703Y16293926D01*
X39708607Y16475295D01*
X39711130Y16484163D01*
X39777786Y16656219D01*
X39781884Y16664449D01*
X39879025Y16821338D01*
X39884571Y16828682D01*
X40008876Y16965037D01*
X40015689Y16971249D01*
X40162932Y17082443D01*
X40170762Y17087290D01*
X40335926Y17169532D01*
X40344520Y17172862D01*
X40521994Y17223357D01*
X40531043Y17225049D01*
X40714767Y17242073D01*
X40723983Y17242073D01*
X40907707Y17225049D01*
X40916756Y17223357D01*
X41094230Y17172862D01*
X41102824Y17169532D01*
X41267988Y17087290D01*
X41275818Y17082443D01*
X41423061Y16971249D01*
X41429874Y16965037D01*
X41554179Y16828682D01*
X41559725Y16821338D01*
X41656866Y16664449D01*
X41660964Y16656219D01*
X41727620Y16484163D01*
X41730143Y16475295D01*
X41764047Y16293926D01*
X41764896Y16284761D01*
X41764896Y16100239D01*
X41764047Y16091074D01*
X41730143Y15909705D01*
X41727620Y15900837D01*
X41660964Y15728781D01*
X41656866Y15720551D01*
X41559725Y15563662D01*
X41554179Y15556318D01*
X41429874Y15419963D01*
X41423061Y15413751D01*
X41275818Y15302557D01*
X41267988Y15297710D01*
X41102824Y15215468D01*
X41094230Y15212138D01*
X40916756Y15161643D01*
X40907707Y15159951D01*
X40723983Y15142927D01*
X40714767Y15142927D01*
X40714767Y300000D01*
X43254767Y300000D01*
X43254767Y15142927D01*
X43071043Y15159951D01*
X43061994Y15161643D01*
X42884520Y15212138D01*
X42875926Y15215468D01*
X42710762Y15297710D01*
X42702932Y15302557D01*
X42555689Y15413751D01*
X42548876Y15419963D01*
X42424571Y15556318D01*
X42419025Y15563662D01*
X42321884Y15720551D01*
X42317786Y15728781D01*
X42251130Y15900837D01*
X42248607Y15909705D01*
X42214703Y16091074D01*
X42213854Y16100239D01*
X42213854Y16284761D01*
X42214703Y16293926D01*
X42248607Y16475295D01*
X42251130Y16484163D01*
X42317786Y16656219D01*
X42321884Y16664449D01*
X42419025Y16821338D01*
X42424571Y16828682D01*
X42548876Y16965037D01*
X42555689Y16971249D01*
X42702935Y17082444D01*
X42710761Y17087290D01*
X42753949Y17108795D01*
X42798365Y17152695D01*
X42809375Y17198310D01*
X42809375Y17855802D01*
X42809883Y17862909D01*
X42815719Y17903497D01*
X42816482Y17910594D01*
X42819150Y17947897D01*
X42823281Y17966887D01*
X42825109Y17974049D01*
X42830574Y17992659D01*
X42846120Y18026700D01*
X42848852Y18033296D01*
X42861921Y18068334D01*
X42871231Y18085384D01*
X42875007Y18091749D01*
X42885495Y18108069D01*
X42909985Y18136331D01*
X42914466Y18141891D01*
X42939034Y18174711D01*
X42943703Y18180099D01*
X47135514Y22371910D01*
X47163512Y22451928D01*
X47163754Y22451928D01*
X47163754Y22452619D01*
X47164174Y22453819D01*
X47163754Y22457546D01*
X47163754Y22468708D01*
X47180046Y22613305D01*
X47182531Y22624195D01*
X47230593Y22761546D01*
X47235431Y22771594D01*
X47312857Y22894816D01*
X47319813Y22903538D01*
X47422712Y23006437D01*
X47431434Y23013393D01*
X47554656Y23090819D01*
X47564704Y23095657D01*
X47702055Y23143719D01*
X47712945Y23146204D01*
X47857542Y23162496D01*
X47868708Y23162496D01*
X48013305Y23146204D01*
X48024195Y23143719D01*
X48161546Y23095657D01*
X48171594Y23090819D01*
X48294816Y23013393D01*
X48303538Y23006437D01*
X48406437Y22903538D01*
X48413393Y22894816D01*
X48490819Y22771594D01*
X48495657Y22761546D01*
X48543719Y22624195D01*
X48546204Y22613305D01*
X48562496Y22468708D01*
X48562496Y22457542D01*
X48546204Y22312945D01*
X48543719Y22302055D01*
X48495657Y22164704D01*
X48490819Y22154656D01*
X48413393Y22031434D01*
X48406437Y22022712D01*
X48303538Y21919813D01*
X48294816Y21912857D01*
X48171594Y21835431D01*
X48161546Y21830593D01*
X48024195Y21782531D01*
X48013305Y21780046D01*
X47868708Y21763754D01*
X47857546Y21763754D01*
X47853819Y21764174D01*
X47852619Y21763754D01*
X47851928Y21763754D01*
X47851928Y21763512D01*
X47771910Y21735514D01*
X43738664Y17702268D01*
X43709375Y17631558D01*
X43709375Y17198310D01*
X43728875Y17138983D01*
X43764801Y17108795D01*
X43807989Y17087290D01*
X43815815Y17082444D01*
X43963061Y16971249D01*
X43969874Y16965037D01*
X44094179Y16828682D01*
X44099725Y16821338D01*
X44196866Y16664449D01*
X44200964Y16656219D01*
X44267620Y16484163D01*
X44270143Y16475295D01*
X44304047Y16293926D01*
X44304896Y16284761D01*
X44304896Y16100239D01*
X44304047Y16091074D01*
X44270143Y15909705D01*
X44267620Y15900837D01*
X44200964Y15728781D01*
X44196866Y15720551D01*
X44099725Y15563662D01*
X44094179Y15556318D01*
X43969874Y15419963D01*
X43963061Y15413751D01*
X43815818Y15302557D01*
X43807988Y15297710D01*
X43642824Y15215468D01*
X43634230Y15212138D01*
X43456756Y15161643D01*
X43447707Y15159951D01*
X43263983Y15142927D01*
X43254767Y15142927D01*
X43254767Y300000D01*
X45794767Y300000D01*
X45794767Y15142927D01*
X45611043Y15159951D01*
X45601994Y15161643D01*
X45424520Y15212138D01*
X45415926Y15215468D01*
X45250762Y15297710D01*
X45242932Y15302557D01*
X45095689Y15413751D01*
X45088876Y15419963D01*
X44964571Y15556318D01*
X44959025Y15563662D01*
X44861884Y15720551D01*
X44857786Y15728781D01*
X44791130Y15900837D01*
X44788607Y15909705D01*
X44754703Y16091074D01*
X44753854Y16100239D01*
X44753854Y16284761D01*
X44754703Y16293926D01*
X44788607Y16475295D01*
X44791130Y16484163D01*
X44857786Y16656219D01*
X44861884Y16664449D01*
X44959025Y16821338D01*
X44964571Y16828682D01*
X45088876Y16965037D01*
X45095689Y16971249D01*
X45242932Y17082443D01*
X45250762Y17087290D01*
X45415926Y17169532D01*
X45424520Y17172862D01*
X45601994Y17223357D01*
X45611043Y17225049D01*
X45794767Y17242073D01*
X45803983Y17242073D01*
X45987707Y17225049D01*
X45996756Y17223357D01*
X46174230Y17172862D01*
X46182824Y17169532D01*
X46347988Y17087290D01*
X46355818Y17082443D01*
X46503061Y16971249D01*
X46509874Y16965037D01*
X46634179Y16828682D01*
X46639725Y16821338D01*
X46736866Y16664449D01*
X46740964Y16656219D01*
X46807620Y16484163D01*
X46810143Y16475295D01*
X46844047Y16293926D01*
X46844896Y16284761D01*
X46844896Y16100239D01*
X46844047Y16091074D01*
X46810143Y15909705D01*
X46807620Y15900837D01*
X46740964Y15728781D01*
X46736866Y15720551D01*
X46639725Y15563662D01*
X46634179Y15556318D01*
X46509874Y15419963D01*
X46503061Y15413751D01*
X46355818Y15302557D01*
X46347988Y15297710D01*
X46182824Y15215468D01*
X46174230Y15212138D01*
X45996756Y15161643D01*
X45987707Y15159951D01*
X45803983Y15142927D01*
X45794767Y15142927D01*
X45794767Y300000D01*
X48237887Y300000D01*
X48237887Y15047406D01*
X48228722Y15048255D01*
X48029208Y15085551D01*
X48020351Y15088072D01*
X47831094Y15161389D01*
X47822842Y15165498D01*
X47650273Y15272348D01*
X47642929Y15277894D01*
X47492937Y15414631D01*
X47486725Y15421444D01*
X47364411Y15583414D01*
X47359563Y15591244D01*
X47269096Y15772927D01*
X47265766Y15781521D01*
X47210221Y15976744D01*
X47208529Y15985793D01*
X47189802Y16187892D01*
X47189802Y16197108D01*
X47208529Y16399207D01*
X47210221Y16408256D01*
X47265766Y16603479D01*
X47269096Y16612073D01*
X47359563Y16793756D01*
X47364411Y16801586D01*
X47486725Y16963556D01*
X47492937Y16970369D01*
X47642929Y17107106D01*
X47650273Y17112652D01*
X47822842Y17219502D01*
X47831094Y17223611D01*
X48020351Y17296928D01*
X48029208Y17299449D01*
X48228722Y17336745D01*
X48237887Y17337594D01*
X48440863Y17337594D01*
X48450028Y17336745D01*
X48649542Y17299449D01*
X48658399Y17296928D01*
X48847656Y17223611D01*
X48855908Y17219502D01*
X49028477Y17112652D01*
X49035821Y17107106D01*
X49185813Y16970369D01*
X49192025Y16963556D01*
X49314339Y16801586D01*
X49319187Y16793756D01*
X49409654Y16612073D01*
X49412984Y16603479D01*
X49468529Y16408256D01*
X49470221Y16399207D01*
X49488948Y16197108D01*
X49488948Y16187892D01*
X49470221Y15985793D01*
X49468529Y15976744D01*
X49412984Y15781521D01*
X49409654Y15772927D01*
X49319187Y15591244D01*
X49314339Y15583414D01*
X49192025Y15421444D01*
X49185813Y15414631D01*
X49035821Y15277894D01*
X49028477Y15272348D01*
X48855908Y15165498D01*
X48847656Y15161389D01*
X48658399Y15088072D01*
X48649542Y15085551D01*
X48450028Y15048255D01*
X48440863Y15047406D01*
X48237887Y15047406D01*
X48237887Y300000D01*
X55480001Y300000D01*
X55539328Y319500D01*
X55580000Y399999D01*
X55580000Y59925001D01*
X55560500Y59984328D01*
X55480001Y60025000D01*
X399999Y60025000D01*
X340672Y60005500D01*
X300000Y59925001D01*
X300000Y399999D01*
G37*
G04 --- BOARD END --- *
G04 #@! TF.MD5,33be6352252d15169eccbfff89f4d62f*
M02*
