G04 --- HEADER BEGIN --- *
G04 #@! TF.GenerationSoftware,LibrePCB,LibrePCB,2.1.1*
G04 #@! TF.CreationDate,2026-06-23T09:12:53*
G04 #@! TF.ProjectId,nrf24l01_pa_lna_transceiver_test,2a96fcbf-9cc4-48e7-bb54-b4758b16b972,v1*
G04 #@! TF.Part,Single*
G04 #@! TF.SameCoordinates*
G04 #@! TF.FileFunction,Soldermask,Top*
G04 #@! TF.FilePolarity,Negative*
%FSLAX66Y66*%
%MOMM*%
G01*
G75*
G04 --- HEADER END --- *
G04 --- APERTURE LIST BEGIN --- *
%AMROUNDEDRECT10*20,1,1.6,-0.7,0.0,0.7,0.0,0.0*20,1,1.4,-0.8,0.0,0.8,0.0,0.0*1,1,0.2,-0.7,0.7*1,1,0.2,0.7,0.7*1,1,0.2,0.7,-0.7*1,1,0.2,-0.7,-0.7*%
%ADD10ROUNDEDRECT10*%
%ADD11C,1.6*%
%ADD12C,1.7*%
%AMROUNDEDRECT13*20,1,1.7,-0.75,0.0,0.75,0.0,0.0*20,1,1.5,-0.85,0.0,0.85,0.0,0.0*1,1,0.2,-0.75,0.75*1,1,0.2,0.75,0.75*1,1,0.2,0.75,-0.75*1,1,0.2,-0.75,-0.75*%
%ADD13ROUNDEDRECT13*%
%AMROUNDEDRECT14*20,1,1.25,-0.8,0.0,0.8,0.0,90.0*20,1,1.05,-0.9,0.0,0.9,0.0,90.0*1,1,0.2,-0.525,-0.8*1,1,0.2,-0.525,0.8*1,1,0.2,0.525,0.8*1,1,0.2,0.525,-0.8*%
%ADD14ROUNDEDRECT14*%
%ADD15C,0.127*%
%ADD16C,0.01*%
%AMROUNDEDRECT17*20,1,1.25,-0.8,0.0,0.8,0.0,0.0*20,1,1.05,-0.9,0.0,0.9,0.0,0.0*1,1,0.2,-0.8,0.525*1,1,0.2,0.8,0.525*1,1,0.2,0.8,-0.525*1,1,0.2,-0.8,-0.525*%
%ADD17ROUNDEDRECT17*%
%AMROUNDEDRECT18*20,1,1.5,-0.75,0.0,0.75,0.0,90.0*20,1,1.3,-0.85,0.0,0.85,0.0,90.0*1,1,0.2,-0.65,-0.75*1,1,0.2,-0.65,0.75*1,1,0.2,0.65,0.75*1,1,0.2,0.65,-0.75*%
%ADD18ROUNDEDRECT18*%
%AMROUNDEDRECT19*20,1,2.35,-1.625,0.0,1.625,0.0,0.0*20,1,2.15,-1.725,0.0,1.725,0.0,0.0*1,1,0.2,-1.625,1.075*1,1,0.2,1.625,1.075*1,1,0.2,1.625,-1.075*1,1,0.2,-1.625,-1.075*%
%ADD19ROUNDEDRECT19*%
%AMROUNDEDRECT20*20,1,1.15,-0.8375,0.0,0.8375,0.0,90.0*20,1,0.475,-1.175,0.0,1.175,0.0,90.0*1,1,0.675,-0.2375,-0.8375*1,1,0.675,-0.2375,0.8375*1,1,0.675,0.2375,0.8375*1,1,0.675,0.2375,-0.8375*%
%ADD20ROUNDEDRECT20*%
%AMROUNDEDRECT21*20,1,2.8,-1.3,0.0,1.3,0.0,0.0*20,1,2.6,-1.4,0.0,1.4,0.0,0.0*1,1,0.2,-1.3,1.3*1,1,0.2,1.3,1.3*1,1,0.2,1.3,-1.3*1,1,0.2,-1.3,-1.3*%
%ADD21ROUNDEDRECT21*%
%ADD22C,2.8*%
%ADD23O,2.39X1.787*%
%AMROUNDEDRECT24*20,1,1.787,-1.095,0.0,1.095,0.0,0.0*20,1,1.587,-1.195,0.0,1.195,0.0,0.0*1,1,0.2,-1.095,0.7935*1,1,0.2,1.095,0.7935*1,1,0.2,1.095,-0.7935*1,1,0.2,-1.095,-0.7935*%
%ADD24ROUNDEDRECT24*%
%AMROUNDEDRECT25*20,1,1.8,-0.8,0.0,0.8,0.0,0.0*20,1,1.6,-0.9,0.0,0.9,0.0,0.0*1,1,0.2,-0.8,0.8*1,1,0.2,0.8,0.8*1,1,0.2,0.8,-0.8*1,1,0.2,-0.8,-0.8*%
%ADD25ROUNDEDRECT25*%
%ADD26C,1.8*%
%ADD27C,1.9*%
%AMROUNDEDRECT28*20,1,1.9,-0.85,0.0,0.85,0.0,0.0*20,1,1.7,-0.95,0.0,0.95,0.0,0.0*1,1,0.2,-0.85,0.85*1,1,0.2,0.85,0.85*1,1,0.2,0.85,-0.85*1,1,0.2,-0.85,-0.85*%
%ADD28ROUNDEDRECT28*%
%ADD29C,2.0*%
G04 --- APERTURE LIST END --- *
G04 --- BOARD BEGIN --- *
D10*
G04 #@! TO.C,LED1*
X6032500Y43576875D03*
D11*
X6032500Y41036875D03*
D12*
G04 #@! TO.C,C4*
X28098750Y53637500D03*
D13*
X28098750Y51137500D03*
D14*
G04 #@! TO.C,R1*
X13013750Y35639375D03*
X10163750Y35639375D03*
D10*
G04 #@! TO.C,LED2*
X37861875Y38020625D03*
D11*
X37861875Y35480625D03*
D10*
G04 #@! TO.C,LED3*
X32781875Y38100000D03*
D11*
X32781875Y35560000D03*
D12*
G04 #@! TO.C,C2*
X35877500Y43636250D03*
D13*
X35877500Y41136250D03*
D15*
G04 #@! TO.C,C7*
X35120500Y50040500D02*
G02*
X35544700Y50485000I434300J10198D01*
G01*
G02*
X36012000Y50040500I11400J-455900D01*
G01*
G02*
X35554900Y49598600I-449500J7600D01*
G01*
G02*
X35120500Y50040500I3700J438101D01*
G01*
D16*
G36*
X35120500Y50040500D02*
G02*
X35544700Y50485000I434300J10198D01*
G01*
G02*
X36012000Y50040500I11400J-455900D01*
G01*
G02*
X35554900Y49598600I-449500J7600D01*
G01*
G02*
X35120500Y50040500I3700J438101D01*
G01*
G37*
D15*
X35120500Y52839600D02*
G02*
X35544700Y53284100I434300J10198D01*
G01*
G02*
X36012000Y52839600I11400J-455900D01*
G01*
G02*
X35554900Y52397700I-449500J7600D01*
G01*
G02*
X35120500Y52839600I3700J438101D01*
G01*
D16*
G36*
X35120500Y52839600D02*
G02*
X35544700Y53284100I434300J10198D01*
G01*
G02*
X36012000Y52839600I11400J-455900D01*
G01*
G02*
X35554900Y52397700I-449500J7600D01*
G01*
G02*
X35120500Y52839600I3700J438101D01*
G01*
G37*
D17*
G04 #@! TO.C,R3*
X19526250Y8893750D03*
X19526250Y11743750D03*
D13*
G04 #@! TO.C,S3*
X11668125Y46116875D03*
D12*
X11668125Y38496875D03*
D18*
G04 #@! TO.C,S1*
X32095000Y4302500D03*
X27595000Y4302500D03*
X32095000Y10302500D03*
X27595000Y10302500D03*
G04 #@! TO.C,S2*
X43286875Y4302500D03*
X38786875Y4302500D03*
X43286875Y10302500D03*
X38786875Y10302500D03*
D19*
G04 #@! TO.C,U2*
X20558125Y55843125D03*
D20*
X18258125Y50043125D03*
X20558125Y50043125D03*
X22858125Y50043125D03*
D19*
G04 #@! TO.C,U1*
X27781250Y46873750D03*
D20*
X25481250Y41073750D03*
X27781250Y41073750D03*
X30081250Y41073750D03*
D21*
G04 #@! TO.C,J1*
X11628125Y52070000D03*
D22*
X6628125Y52070000D03*
D23*
G04 #@! TO.C,M1*
X48180625Y39528750D03*
X48180625Y36988750D03*
D24*
X45640625Y44608750D03*
D23*
X48180625Y44608750D03*
X45640625Y39528750D03*
X45640625Y42068750D03*
X45640625Y36988750D03*
X48180625Y42068750D03*
D10*
G04 #@! TO.C,LED4*
X11191875Y4603750D03*
D11*
X11191875Y7143750D03*
D25*
G04 #@! TO.C,C5*
X42465625Y51534375D03*
D26*
X42465625Y54034375D03*
D12*
G04 #@! TO.C,C1*
X19446875Y36532500D03*
D13*
X19446875Y39032500D03*
D17*
G04 #@! TO.C,R4*
X11191875Y8893750D03*
X11191875Y11743750D03*
D14*
G04 #@! TO.C,R2*
X28650625Y35560000D03*
X25800625Y35560000D03*
D27*
G04 #@! TO.C,U3*
X43259375Y31432500D03*
X22939375Y16192500D03*
X33099375Y16192500D03*
X35639375Y16192500D03*
X30559375Y16192500D03*
X25479375Y16192500D03*
X25479375Y31432500D03*
X30559375Y31432500D03*
X43259375Y16192500D03*
X35639375Y31432500D03*
X12779375Y31432500D03*
D28*
X45799375Y31432500D03*
D27*
X28019375Y31432500D03*
X17859375Y31432500D03*
X15319375Y31432500D03*
X40719375Y31432500D03*
X45799375Y16192500D03*
X20399375Y16192500D03*
X22939375Y31432500D03*
X33099375Y31432500D03*
X28019375Y16192500D03*
X38179375Y16192500D03*
X40719375Y16192500D03*
X15319375Y16192500D03*
X10239375Y31432500D03*
X17859375Y16192500D03*
X38179375Y31432500D03*
X20399375Y31432500D03*
X10239375Y16192500D03*
X12779375Y16192500D03*
D29*
G04 #@! TD*
X48339375Y31432500D03*
X48339375Y16192500D03*
X7699375Y31432500D03*
X7699375Y16192500D03*
D10*
G04 #@! TO.C,LED5*
X19526250Y4603750D03*
D11*
X19526250Y7143750D03*
D12*
G04 #@! TO.C,C3*
X20776250Y45323125D03*
D13*
X18276250Y45323125D03*
G04 --- BOARD END --- *
G04 #@! TF.MD5,b967b0d2bb3a1a2a43f5220381d777dc*
M02*
