G04 --- HEADER BEGIN --- *
G04 #@! TF.GenerationSoftware,LibrePCB,LibrePCB,2.1.1*
G04 #@! TF.CreationDate,2026-06-23T09:12:53*
G04 #@! TF.ProjectId,nrf24l01_pa_lna_transceiver_test,2a96fcbf-9cc4-48e7-bb54-b4758b16b972,v1*
G04 #@! TF.Part,Single*
G04 #@! TF.SameCoordinates*
G04 #@! TF.FileFunction,Legend,Bot*
G04 #@! TF.FilePolarity,Positive*
%FSLAX66Y66*%
%MOMM*%
G01*
G75*
G04 --- HEADER END --- *
G04 --- APERTURE LIST BEGIN --- *
%AMROUNDEDRECT10*20,1,1.6,-0.7,0.0,0.7,0.0,0.0*20,1,1.4,-0.8,0.0,0.8,0.0,0.0*1,1,0.2,-0.7,0.7*1,1,0.2,0.7,0.7*1,1,0.2,0.7,-0.7*1,1,0.2,-0.7,-0.7*%
%ADD10ROUNDEDRECT10*%
%ADD11C,1.6*%
%ADD12C,1.7*%
%AMROUNDEDRECT13*20,1,1.7,-0.75,0.0,0.75,0.0,0.0*20,1,1.5,-0.85,0.0,0.85,0.0,0.0*1,1,0.2,-0.75,0.75*1,1,0.2,0.75,0.75*1,1,0.2,0.75,-0.75*1,1,0.2,-0.75,-0.75*%
%ADD13ROUNDEDRECT13*%
%ADD14C,0.127*%
%ADD15C,0.01*%
%AMROUNDEDRECT16*20,1,2.8,-1.3,0.0,1.3,0.0,0.0*20,1,2.6,-1.4,0.0,1.4,0.0,0.0*1,1,0.2,-1.3,1.3*1,1,0.2,1.3,1.3*1,1,0.2,1.3,-1.3*1,1,0.2,-1.3,-1.3*%
%ADD16ROUNDEDRECT16*%
%ADD17C,2.8*%
%ADD18O,2.39X1.787*%
%AMROUNDEDRECT19*20,1,1.787,-1.095,0.0,1.095,0.0,0.0*20,1,1.587,-1.195,0.0,1.195,0.0,0.0*1,1,0.2,-1.095,0.7935*1,1,0.2,1.095,0.7935*1,1,0.2,1.095,-0.7935*1,1,0.2,-1.095,-0.7935*%
%ADD19ROUNDEDRECT19*%
%AMROUNDEDRECT20*20,1,1.8,-0.8,0.0,0.8,0.0,0.0*20,1,1.6,-0.9,0.0,0.9,0.0,0.0*1,1,0.2,-0.8,0.8*1,1,0.2,0.8,0.8*1,1,0.2,0.8,-0.8*1,1,0.2,-0.8,-0.8*%
%ADD20ROUNDEDRECT20*%
%ADD21C,1.8*%
%ADD22C,1.9*%
%AMROUNDEDRECT23*20,1,1.9,-0.85,0.0,0.85,0.0,0.0*20,1,1.7,-0.95,0.0,0.95,0.0,0.0*1,1,0.2,-0.85,0.85*1,1,0.2,0.85,0.85*1,1,0.2,0.85,-0.85*1,1,0.2,-0.85,-0.85*%
%ADD23ROUNDEDRECT23*%
%ADD24C,2.0*%
G04 --- APERTURE LIST END --- *
G04 --- BOARD BEGIN --- *
%LPC*%
D10*
G04 #@! TO.C,LED1*
X6032500Y43576875D03*
D11*
X6032500Y41036875D03*
D12*
G04 #@! TO.C,C4*
X28098750Y53637500D03*
D13*
X28098750Y51137500D03*
D10*
G04 #@! TO.C,LED2*
X37861875Y38020625D03*
D11*
X37861875Y35480625D03*
D10*
G04 #@! TO.C,LED3*
X32781875Y38100000D03*
D11*
X32781875Y35560000D03*
D12*
G04 #@! TO.C,C2*
X35877500Y43636250D03*
D13*
X35877500Y41136250D03*
D14*
G04 #@! TO.C,C7*
X34612500Y50038000D02*
G02*
X35542200Y50992900I942300J12600D01*
G01*
G02*
X36517600Y50040500I11598J-963800D01*
G01*
G02*
X35539600Y49090500I-964000J14000D01*
G01*
G02*
X34612500Y50038000I10000J937104D01*
G01*
D15*
G36*
X34612500Y50038000D02*
G02*
X35542200Y50992900I942300J12600D01*
G01*
G02*
X36517600Y50040500I11598J-963800D01*
G01*
G02*
X35539600Y49090500I-964000J14000D01*
G01*
G02*
X34612500Y50038000I10000J937104D01*
G01*
G37*
D14*
X34612500Y52837100D02*
G02*
X35542200Y53792000I942300J12600D01*
G01*
G02*
X36517600Y52839600I11598J-963800D01*
G01*
G02*
X35539600Y51889600I-964000J14000D01*
G01*
G02*
X34612500Y52837100I10000J937104D01*
G01*
D15*
G36*
X34612500Y52837100D02*
G02*
X35542200Y53792000I942300J12600D01*
G01*
G02*
X36517600Y52839600I11598J-963800D01*
G01*
G02*
X35539600Y51889600I-964000J14000D01*
G01*
G02*
X34612500Y52837100I10000J937104D01*
G01*
G37*
D13*
G04 #@! TO.C,S3*
X11668125Y46116875D03*
D12*
X11668125Y38496875D03*
D16*
G04 #@! TO.C,J1*
X11628125Y52070000D03*
D17*
X6628125Y52070000D03*
D18*
G04 #@! TO.C,M1*
X48180625Y39528750D03*
X48180625Y36988750D03*
D19*
X45640625Y44608750D03*
D18*
X48180625Y44608750D03*
X45640625Y39528750D03*
X45640625Y42068750D03*
X45640625Y36988750D03*
X48180625Y42068750D03*
D10*
G04 #@! TO.C,LED4*
X11191875Y4603750D03*
D11*
X11191875Y7143750D03*
D20*
G04 #@! TO.C,C5*
X42465625Y51534375D03*
D21*
X42465625Y54034375D03*
D12*
G04 #@! TO.C,C1*
X19446875Y36532500D03*
D13*
X19446875Y39032500D03*
D22*
G04 #@! TO.C,U3*
X43259375Y31432500D03*
X22939375Y16192500D03*
X33099375Y16192500D03*
X35639375Y16192500D03*
X30559375Y16192500D03*
X25479375Y16192500D03*
X25479375Y31432500D03*
X30559375Y31432500D03*
X43259375Y16192500D03*
X35639375Y31432500D03*
X12779375Y31432500D03*
D23*
X45799375Y31432500D03*
D22*
X28019375Y31432500D03*
X17859375Y31432500D03*
X15319375Y31432500D03*
X40719375Y31432500D03*
X45799375Y16192500D03*
X20399375Y16192500D03*
X22939375Y31432500D03*
X33099375Y31432500D03*
X28019375Y16192500D03*
X38179375Y16192500D03*
X40719375Y16192500D03*
X15319375Y16192500D03*
X10239375Y31432500D03*
X17859375Y16192500D03*
X38179375Y31432500D03*
X20399375Y31432500D03*
X10239375Y16192500D03*
X12779375Y16192500D03*
D24*
G04 #@! TD*
X48339375Y31432500D03*
X48339375Y16192500D03*
X7699375Y31432500D03*
X7699375Y16192500D03*
D10*
G04 #@! TO.C,LED5*
X19526250Y4603750D03*
D11*
X19526250Y7143750D03*
D12*
G04 #@! TO.C,C3*
X20776250Y45323125D03*
D13*
X18276250Y45323125D03*
G04 --- BOARD END --- *
G04 #@! TF.MD5,131a6536452bfddfbfde63b84f5327a3*
M02*
